<?xml version="1.0" encoding="UTF-8"?>
<!DOCTYPE svg PUBLIC "-//W3C//DTD SVG 1.1//EN" "http://www.w3.org/Graphics/SVG/1.1/DTD/svg11.dtd">
<svg xmlns="http://www.w3.org/2000/svg" version="1.1" width="512px" height="512px" style="shape-rendering:geometricPrecision; text-rendering:geometricPrecision; image-rendering:optimizeQuality; fill-rule:evenodd; clip-rule:evenodd" xmlns:xlink="http://www.w3.org/1999/xlink">
<g><path style="opacity:0.945" fill="#fcfcfc" d="M 13.5,8.5 C 17.1817,8.3347 20.8484,8.50137 24.5,9C 25.4162,9.37424 26.2496,9.87424 27,10.5C 33.7707,24.1376 39.7707,38.1376 45,52.5C 57.6458,79.2893 77.1458,99.456 103.5,113C 106.196,113.765 108.696,114.932 111,116.5C 123.567,108.141 137.401,102.974 152.5,101C 175.226,97.8055 197.56,99.4721 219.5,106C 233.043,111.271 244.71,119.271 254.5,130C 256.934,130.333 257.934,129.166 257.5,126.5C 258.552,126.649 259.552,126.483 260.5,126C 277.345,110.248 297.345,101.582 320.5,100C 339.81,98.2763 358.81,99.943 377.5,105C 384.895,107.531 391.895,110.864 398.5,115C 401.649,115.274 404.649,114.608 407.5,113C 426.718,103.447 442.552,89.9467 455,72.5C 457.667,67.8333 460.333,63.1667 463,58.5C 469.862,42.9151 476.528,27.2485 483,11.5C 483.833,10.6667 484.667,9.83333 485.5,9C 494.41,6.00805 500.243,8.84139 503,17.5C 510.316,59.2318 508.649,100.565 498,141.5C 494.711,148.199 492.544,155.199 491.5,162.5C 490.5,162.5 489.5,162.5 488.5,162.5C 481.041,180.466 470.207,196.133 456,209.5C 459.457,252.665 450.457,292.999 429,330.5C 403.742,371.448 372.909,407.948 336.5,440C 327.167,448 317.833,456 308.5,464C 295.767,473.027 283.434,482.527 271.5,492.5C 262.619,499.151 253.286,499.984 243.5,495C 196.661,461.504 154.161,423.004 116,379.5C 91.8035,351.12 73.8035,319.12 62,283.5C 59.8589,275.936 58.1922,268.269 57,260.5C 55.4286,243.842 55.0952,227.175 56,210.5C 41.4345,196.785 30.2678,180.785 22.5,162.5C 21.5,162.5 20.5,162.5 19.5,162.5C 19.6621,160.473 19.4955,158.473 19,156.5C 9.82134,134.436 4.82134,111.436 4,87.5C 2.28666,62.9264 3.95333,38.5931 9,14.5C 9.80409,11.8541 11.3041,9.85408 13.5,8.5 Z"/></g>
<g><path style="opacity:1" fill="#030101" d="M 18.5,29.5 C 20.4109,29.5743 21.5776,30.5743 22,32.5C 27.3657,45.9652 33.0324,59.2986 39,72.5C 57.1273,103.275 83.4607,123.608 118,133.5C 171.167,101.999 217.001,110.332 255.5,158.5C 293.999,110.332 339.833,101.999 393,133.5C 432.463,122.031 460.796,97.6977 478,60.5C 481.944,50.1635 485.777,39.8302 489.5,29.5C 491.124,29.3601 492.29,30.0267 493,31.5C 503.504,89.4234 491.171,141.757 456,188.5C 451.333,193.167 446.667,197.833 442,202.5C 446.547,231.148 443.88,259.148 434,286.5C 423.827,311.188 410.827,334.188 395,355.5C 354.999,405.673 308.499,448.673 255.5,484.5C 204.477,449.709 159.31,408.376 120,360.5C 97.6673,332.842 81.334,301.842 71,267.5C 68.6255,255.924 67.1255,244.258 66.5,232.5C 66.6824,222.392 67.5157,212.392 69,202.5C 32.2825,166.199 14.1158,122.032 14.5,70C 14.6142,56.3587 15.9475,42.8587 18.5,29.5 Z"/></g>
<g><path style="opacity:1" fill="#fd0000" d="M 168.5,133.5 C 189.18,131.451 207.514,136.951 223.5,150C 232.695,157.895 240.861,166.728 248,176.5C 248.974,195.872 249.974,215.205 251,234.5C 268.816,240.578 286.649,246.578 304.5,252.5C 264.542,255.553 224.542,258.053 184.5,260C 178.781,260.599 176.281,263.766 177,269.5C 178.214,271.049 179.714,272.215 181.5,273C 203.885,279.74 226.218,286.573 248.5,293.5C 249.333,307.488 249.833,321.488 250,335.5C 250.273,337.329 251.107,338.829 252.5,340C 256.65,341.576 260.65,343.409 264.5,345.5C 250.697,349.362 236.697,352.528 222.5,355C 217.139,357.797 216.139,361.797 219.5,367C 229.197,371.516 238.864,376.016 248.5,380.5C 249.5,405.825 249.833,431.158 249.5,456.5C 248.448,456.649 247.448,456.483 246.5,456C 203.03,424.193 164.53,387.359 131,345.5C 112.662,321.824 99.3282,295.491 91,266.5C 86.301,249.891 85.801,233.224 89.5,216.5C 106.553,233.273 116.72,253.606 120,277.5C 122.203,264.432 121.87,251.432 119,238.5C 115.105,230.045 111.772,221.378 109,212.5C 106.226,200.807 109.726,191.64 119.5,185C 124.951,182.405 130.618,180.405 136.5,179C 141.333,176.833 144.833,173.333 147,168.5C 147.409,162.496 147.243,156.496 146.5,150.5C 145.652,142.839 148.986,138.006 156.5,136C 160.637,135.161 164.637,134.327 168.5,133.5 Z"/></g>
<g><path style="opacity:1" fill="#fd0000" d="M 323.5,133.5 C 332.213,133.248 340.88,133.748 349.5,135C 357.213,135.588 362.379,139.422 365,146.5C 365.211,152.201 364.711,157.868 363.5,163.5C 363.847,171.015 367.513,176.181 374.5,179C 384.141,180.403 392.308,184.57 399,191.5C 402.334,198.467 403.334,205.8 402,213.5C 398.337,223.156 394.67,232.822 391,242.5C 389.06,253.831 389.06,265.164 391,276.5C 394.577,253.01 404.744,233.01 421.5,216.5C 425.18,230.068 425.347,243.734 422,257.5C 417.958,277.295 410.958,295.962 401,313.5C 378.038,351.149 349.872,384.649 316.5,414C 299.555,429.116 281.889,443.283 263.5,456.5C 262.812,429.16 261.979,401.826 261,374.5C 260.417,372.998 259.584,371.665 258.5,370.5C 254.349,369.26 250.683,367.26 247.5,364.5C 263.024,360.577 278.691,357.077 294.5,354C 298.957,348.865 298.29,344.532 292.5,341C 282.399,337.45 272.399,333.617 262.5,329.5C 261.667,314.845 261.167,300.178 261,285.5C 259.833,284.333 258.667,283.167 257.5,282C 246.926,279.253 236.593,275.919 226.5,272C 267.802,269.113 309.136,266.446 350.5,264C 354.124,261.839 355.291,258.672 354,254.5C 352.786,252.951 351.286,251.785 349.5,251C 320.266,242.235 291.099,233.402 262,224.5C 261.333,209.833 261.333,195.167 262,180.5C 262.249,177.823 263.249,175.49 265,173.5C 276.462,158.367 290.628,146.533 307.5,138C 312.821,135.941 318.155,134.441 323.5,133.5 Z"/></g>
</svg>
