<svg version="1.2" baseProfile="tiny-ps" xmlns="http://www.w3.org/2000/svg" viewBox="0 0 512 512">
<title>Bayu Angora</title>
<path d="M13.9 10.3C10.5 12.9 8.8 19 6.5 38c-1.8 13.7-2 49.3-.4 62.4 4.9 41.2 19 74.6 42.7 101.3l8.2 9.1.3 23.9c.4 27.1 1.7 35.5 8.9 57.2 19.3 58.3 77.7 126.8 161.3 189.6 19.5 14.6 22.8 16.5 28.7 16.5 5.8 0 8.8-1.8 28.5-16.6 31.9-24.1 47.2-37.3 74.2-63.8 51.9-51 83-100.6 93.2-148.6 1.9-8.8 2.3-14.4 2.6-34.5l.3-23.9 3.9-4.1c26.6-27.8 42.7-64.6 47.2-107.3 1.6-15.3.7-57.7-1.5-69.7C501.7 13.1 499.1 9 491.9 9c-4.6 0-8.4 2.9-9.9 7.8-1.2 3.6-3.3 8.8-12.5 30.7-11.3 27-26.7 45.8-48.7 59.8-7.1 4.5-17.3 9.7-19 9.7-.7 0-5.3-2-10.3-4.5-10.3-5.2-21.9-9-32-10.5-9-1.2-37.9-1.3-47 0-17.4 2.5-33.7 10.5-49.6 24.2l-6.9 5.9-7.5-6.6c-12.7-11-24.1-17.3-39.5-21.8-6.8-2-9.8-2.2-32.5-2.2-23.4 0-25.5.2-33.5 2.4-9.1 2.6-22.5 8-27.6 11.2-1.7 1-3.9 1.9-4.9 1.9-2.7 0-18.4-8.6-25.9-14.2C73.6 94.6 67 88 59.5 77.9c-7.8-10.5-13.2-20.8-22-42.4-8.7-21.2-9.1-22-11.6-24.3-2.6-2.5-9.3-3-12-.9z" fill="#fff"/>
<path d="m18.5 29.5c1.91 0.074 3.078 1.074 3.5 3a958.33 958.33 0 0 0 17 40c18.127 30.775 44.46 51.108 79 61 53.167-31.501 99.001-23.168 137.5 25 38.499-48.168 84.333-56.501 137.5-25 39.463-11.469 67.796-35.802 85-73a1777.6 1777.6 0 0 0 11.5-31c1.624-0.14 2.79 0.527 3.5 2 10.504 57.923-1.829 110.26-37 157l-14 14c4.547 28.648 1.88 56.648-8 84-10.173 24.688-23.173 47.688-39 69-40.001 50.173-86.501 93.173-139.5 129-51.023-34.791-96.19-76.124-135.5-124-22.333-27.658-38.666-58.658-49-93a236.45 236.45 0 0 1-4.5-35 229.91 229.91 0 0 1 2.5-30c-36.718-36.301-54.884-80.468-54.5-132.5a225.41 225.41 0 0 1 4-40.5z" fill="#000"/>
<path d="m168.5 133.5c20.68-2.049 39.014 3.451 55 16.5a156.48 156.48 0 0 1 24.5 26.5c0.974 19.372 1.974 38.705 3 58a6679.1 6679.1 0 0 0 53.5 18 4345 4345 0 0 1-120 7.5c-5.719 0.599-8.219 3.766-7.5 9.5a11.532 11.532 0 0 0 4.5 3.5 7831.5 7831.5 0 0 1 67 20.5 883.56 883.56 0 0 1 1.5 42c0.273 1.829 1.107 3.329 2.5 4.5a98.031 98.031 0 0 1 12 5.5 428.7 428.7 0 0 1-42 9.5c-5.361 2.797-6.361 6.797-3 12 9.697 4.516 19.364 9.016 29 13.5 1 25.325 1.333 50.658 1 76a4.934 4.934 0 0 1-3-0.5c-43.47-31.807-81.97-68.641-115.5-110.5-18.338-23.676-31.672-50.009-40-79-4.699-16.609-5.199-33.276-1.5-50 17.053 16.773 27.22 37.106 30.5 61 2.203-13.068 1.87-26.068-1-39a215.78 215.78 0 0 1-10-26c-2.774-11.693 0.726-20.86 10.5-27.5a85.835 85.835 0 0 1 17-6c4.833-2.167 8.333-5.667 10.5-10.5a94.056 94.056 0 0 0-0.5-18c-0.848-7.661 2.486-12.494 10-14.5 4.137-0.839 8.137-1.673 12-2.5z" fill="#e00"/>
<path d="m323.5 133.5c8.713-0.252 17.38 0.248 26 1.5 7.713 0.588 12.879 4.422 15.5 11.5a68.512 68.512 0 0 1-1.5 17c0.347 7.515 4.013 12.681 11 15.5 9.641 1.403 17.808 5.57 24.5 12.5 3.334 6.967 4.334 14.3 3 22l-11 29a100.04 100.04 0 0 0 0 34c3.577-23.49 13.744-43.49 30.5-60 3.68 13.568 3.847 27.234 0.5 41-4.042 19.795-11.042 38.462-21 56-22.962 37.649-51.128 71.149-84.5 100.5a645.52 645.52 0 0 1-53 42.5 7701.7 7701.7 0 0 0-2.5-82 12.403 12.403 0 0 0-2.5-4c-4.151-1.24-7.817-3.24-11-6a870.96 870.96 0 0 1 47-10.5c4.457-5.135 3.79-9.468-2-13a571.93 571.93 0 0 1-30-11.5 969.64 969.64 0 0 1-1.5-44l-3.5-3.5a280.24 280.24 0 0 1-31-10 11590 11590 0 0 1 124-8c3.624-2.161 4.791-5.328 3.5-9.5a11.532 11.532 0 0 0-4.5-3.5 16365 16365 0 0 1-87.5-26.5 484.01 484.01 0 0 1 0-44c0.249-2.677 1.249-5.01 3-7 11.462-15.133 25.628-26.967 42.5-35.5 5.321-2.059 10.655-3.559 16-4.5z" fill="#e00"/>
</svg>
