<svg version="1.2" baseProfile="tiny-ps" xmlns="http://www.w3.org/2000/svg" viewBox="0 0 512 512">
<title>Bayu Angora</title>
<g transform="translate(0 600) scale(.1 -.1)">
<path d="m0 3e3v-3e3h3e3 3e3v1280 1280h-404c-372 0-405-1-417-17s-12-17 2-6 16 8 17-22c1-28-2-35-17-35-30 0-30 33-2 98l26 62h398 397v1320 1320h-240-240v40 40h240 240v320 320h-3e3 -3e3v-3e3zm3440 2174c0-20-4-24-17-20-56 17-276 36-418 36-141 0-348-18-422-37-20-4-23-1-23 21v26h440 440v-26zm-120-20c172-24 375-79 553-149 11-5 17-18 17-40 0-61 32-200 62-274 74-176 244-341 429-414 120-48 191-59 333-55l128 5 60-91c221-336 358-794 358-1196 0-115-16-176-95-355-95-213-103-287-54-455 96-334 107-449 55-573-51-119-197-176-449-177-104 0-134-9-174-52-37-40-51-89-62-223-28-344-110-553-290-739-87-90-286-236-321-236-6 0-10 179-10 502 0 555 2 538-64 538-71-1-76-20-76-273 0-193-2-216-18-230-56-50-206-80-466-93-121-5-150-4-157 7-5 8-9 136-9 286v272l-27 20c-28 23-54 21-85-7-16-14-18-41-18-294 0-251-2-279-17-285-26-10-379 15-463 33-85 18-145 45-160 73-6 12-10 102-10 223 0 112-3 213-6 226-14 52-98 61-123 13-7-13-11-185-11-515 0-358-3-496-11-496-29 0-222 141-300 219-193 192-284 416-308 757-10 142-16 165-56 212-44 52-67 59-230 65-241 10-340 52-400 172-28 57-30 66-29 175 1 96 7 134 33 230 18 63 44 161 59 218l26 103-17 84c-10 47-44 147-77 225-33 77-67 166-77 198-31 105-13 400 38 627 53 236 181 540 309 731l54 82 126-6c197-8 322 27 487 135 200 131 343 380 343 598v41l83 31c215 83 370 116 682 147 71 7 327-5 435-20zm-970-59c-41-14-80-23-87-20-6 2-14-1-17-8-2-7-5 3-5 21l-1 32h93l92-1-75-24zm1410 0c0-30 3-30-90-1l-75 24 83 1c81 1 82 1 82-24zm-1613-69c-39-17-47-32-47-91-1-27-5-68-9-90-7-31-9-12-10 78l-1 117 48-1c46-1 47-1 19-13zm1771-73-2-88-5 70c-6 68-7 70-41 87l-35 17 43 1h42l-2-87zm-1868-243c0-13-39-90-45-90-3 0-5 23-5 50 0 47 2 50 25 50 14 0 25-5 25-10zm1950-32-1-43-19 35c-24 45-24 50 0 50 17 0 20-7 20-42zm-2040-126c0-5-9-17-20-27-20-18-20-17-20 8 0 20 5 27 20 27 11 0 20-4 20-8zm2120-13c0-18-2-19-15-9-8 7-15 16-15 21s7 9 15 9c9 0 15-9 15-21zm-2180-62c0-2-13-16-30-32l-30-29v32c0 29 3 32 30 32 17 0 30-1 30-3zm2260-17c0-18-2-19-20-8-11 7-20 16-20 20 0 5 9 8 20 8 13 0 20-7 20-20zm-2366-75c-25-19-34-19-34 0 0 10 10 15 27 15 26 0 26-1 7-15zm2446-1c0-14-3-14-15-4-8 7-15 14-15 16s7 4 15 4 15-7 15-16zm-2561-69c-3-2-22-11-42-20-36-15-37-14-37 5 0 17 7 20 42 20 23 0 39-2 37-5zm2788-20c-15-31-20-31-82-1l-50 24 72 1 71 1-11-25zm-3327-75c-6-11-13-20-15-20-3 0-5 9-5 20s7 20 15 20c13 0 14-4 5-20zm227 13c-20-2-52-2-70 0-17 2 0 4 38 4 39 0 53-2 32-4zm3340 0c-20-2-52-2-70 0-17 2 0 4 38 4 39 0 53-2 32-4zm173-9c0-8-4-12-10-9-5 3-10 10-10 16 0 5 5 9 10 9 6 0 10-7 10-16zm-3798-91c-10-16-24-37-30-48-10-17-11-13-12 28 0 46 1 47 31 47h30l-19-27zm3878-15c0-45-4-44-36 15-14 26-14 27 11 27 23 0 25-4 25-42zm-3960-123c0-3-9-22-20-42l-20-38v43c0 35 3 42 20 42 11 0 20-2 20-5zm4040-27-1-33-14 25c-18 32-18 40 0 40 10 0 15-10 15-32zm-4126-150c-3-13-13-34-20-48-13-24-13-23-14 23 0 41 3 47 21 47 16 0 19-4 13-22zm4205-20c0-24-3-36-6-28s-12 27-20 43c-13 25-12 27 7 27 17 0 20-6 19-42zm81-200-1-83-24 75c-30 92-30 90 0 90 25 0 25-1 25-82zm-4375 22c-3-5-12-10-18-10-7 0-6 4 3 10 19 12 23 12 15 0zm5-27c0-5-7-28-14-53l-15-45v53c-1 40 2 52 14 52 8 0 15-3 15-7zm-64-265c-16-88-36-303-35-383 0-52 8-119 18-157l17-68h-23-23v320 320h26c24 0 26-3 20-32zm4512-135c-1-93-3-145-5-118-2 28-10 96-18 153-19 130-19 132 5 132 19 0 20-6 18-167zm2-398c0-70-2-75-21-75-16 0-19 4-14 18 4 9 12 43 18 75 7 31 13 57 14 57 2 0 3-34 3-75zm-4450-231c0-2-7-4-15-4-11 0-15 11-15 38l1 37 14-34c8-18 15-35 15-37zm74-269c0-55-5-111-12-125-8-20-11 5-11 120 0 118 2 141 12 125 7-12 12-58 11-120zm4215-7c-1-93-3-116-10-93-16 50-10 215 7 215 2 0 4-55 3-122zm81-315-1-108-23 85c-12 47-26 95-30 108-7 20-4 22 23 22h31v-107zm-4365 0c-4-16-13-53-20-83l-13-55-1 83c-1 77 0 82 20 82 18 0 20-4 14-27zm-9-420c12-31 12-33-7-33-16 0-19 7-18 48 0 26 3 40 6 32s12-30 19-47zm4374 2c0-25-4-35-16-35-11 0-14 5-9 18 4 9 10 25 12 35 8 27 13 20 13-18zm-4300-100c10-12 10-15-4-15-9 0-16 7-16 15s2 15 4 15 9-7 16-15zm4220-5c0-5-5-10-11-10-5 0-7 5-4 10 3 6 8 10 11 10 2 0 4-4 4-10zm-4105-57c32-10 107-18 210-23l160-7-212-1-213-2v25c0 14 1 25 3 25 1 0 25-8 52-17zm4025-8v-25l-202 2-203 1 155 7c103 5 169 12 195 23 54 21 55 21 55-8zm-3560-97c0-4-9-8-20-8-15 0-20 7-20 27 0 25 0 26 20 8 11-10 20-22 20-27zm3080 12c0-11-7-20-15-20-13 0-14 4-5 20 6 11 13 20 15 20 3 0 5-9 5-20zm-2305-156c13-14 15-47 15-236-1-215-1-221 21-244l22-24h-36-37v239 240l-37 3c-35 3-36 4-19 21 22 21 50 22 71 1zm785-4c19-19 20-33 20-300 0-180-4-280-10-280s-10 100-10 280v280h-40-40l-3-282-2-283-3 283c-2 270-1 283 18 302 11 11 27 20 35 20s24-9 35-20zm781 10c31-17 22-30-21-30h-40v-240-240h-31-30l20 26c20 25 21 39 21 245 0 214 0 218 22 233 26 19 33 19 59 6zm26-758c-1-130-2-23-2 238s1 368 2 237c2-130 2-344 0-475zm-2288 416c1-5-8-8-19-8-19 0-20 6-19 93l1 92 18-85c10-47 19-88 19-92zm2921 12v-100h-25c-14 0-25 2-25 5s9 38 20 77c11 40 20 83 20 95 0 13 2 23 5 23s5-45 5-100zm-2830-256c0-2-11-4-25-4-24 0-25 3-24 58v57l25-54c13-29 24-55 24-57zm2750 36c0-33-3-40-19-40-19 0-19 1-3 40 9 22 18 40 20 40 1 0 2-18 2-40zm-1890-19c36-6 79-12 95-14 17-2-23-5-87-6-114-1-118 0-118 20 0 17 5 20 23 16 12-3 51-11 87-16zm1090-1c0-19-6-20-112-19l-113 2 73 8c40 5 87 13 105 18 46 13 47 13 47-9zm-1906-85c3-8 1-15-4-15-6 0-10 7-10 15s2 15 4 15 6-7 10-15zm2626-50c0-45 0-45-36-45h-35l32 45c18 25 34 45 36 45s3-20 3-45zm-2489-115c18-14 16-15-26-12l-45 4v42l1 41 25-30c15-16 35-37 45-45zm2405 4c-3-8-17-14-32-14h-26l29 33c24 28 28 30 31 14 2-10 1-25-2-33zm-2351-56c6-5 18-14 28-21 15-11 12-13-28-14-41-2-45 0-45 21 0 37 12 41 45 14zm2275-8c0-28-2-30-40-30h-40l32 30c41 37 48 37 48 0zm-2120-105c0-3-9-5-20-5s-20 7-20 15c0 13 4 14 20 5 11-6 20-13 20-15zm1960 5c0-5-7-10-16-10-8 0-12 5-9 10 3 6 10 10 16 10 5 0 9-4 9-10z"/>
<path d="m2200 3563c-194-34-378-125-517-257-129-122-214-264-264-441-19-67-19-303 0-370 43-154 173-312 312-378 151-73 352-106 523-87 291 33 458 185 529 481 20 85 22 118 21 354-1 200-5 277-17 333-54 245-219 374-472 371-49-1-101-4-115-6zm275-28c35-11 13-13-170-13-144 0-201 3-180 9 90 28 266 30 350 4zm167-93c15-14 25-29 22-34s0-7 8-6c7 2 12-5 12-14-1-10 2-16 6-13 5 3 11 1 15-5s-8-10-29-10c-35 0-36 1-36 40v40h-40c-38 0-40 1-40 31v31l28-17c15-10 39-29 54-43zm-642 23c0-24-3-25-52-24l-53 1 50 24c28 13 51 24 53 24 1 0 2-11 2-25zm-160-80c0-22-4-25-37-25h-37l34 25c19 13 36 24 38 25 1 0 2-11 2-25zm-82-70c1-34 1-35-38-35-42 0-46-5-41-58 2-20-2-22-34-20-38 2-41 17-7 34 12 6 20 13 17 16-5 4 89 98 98 98 2 0 4-16 5-35zm1006-87c6-25 4-28-19-28-24 0-25 2-24 73v72l18-45c10-25 21-57 25-72zm-1167-105c-3-2-15-3-26-1-20 3-20 3 2 38l22 35 3-33c2-19 1-36-1-39zm-77-108c0-52-1-55-25-55-14 0-25 3-25 6 0 9 42 104 46 104 2 0 4-25 4-55zm-81-337c0-136-3-175-11-153-18 57-12 335 8 335 2 0 4-82 3-182zm1325-147c-3-41-14-89-30-125-12-29-13-25-14 62 0 90 1 92 23 92 19 0 23-5 21-29zm-1244-166c0-43-5-44-25-5-19 37-19 40 5 40 16 0 20-7 20-35zm1154-85c-15-22-28-40-30-40s-4 18-4 40c0 38 2 40 30 40h30l-26-40zm-994-59c0-11-3-26-6-35-5-13-10-12-35 6-16 12-29 26-29 31s7 4 16-3c8-8 14-9 13-4-3 19 1 24 21 24 13 0 20-7 20-19zm80-81c0-20-1-20-30-5-16 9-30 18-30 20 0 3 14 5 30 5 23 0 30-4 30-20zm768-5c-20-14-39-25-42-25-4 0-6 11-6 25 0 23 4 25 42 25h43l-37-25zm-130-61c-12-11-166-33-238-34-72 0-268 25-278 35-3 3 113 5 258 5s261-3 258-6z"/>
<path d="m3555 3556c-80-19-146-57-205-117-104-104-136-215-147-519-18-516 119-786 444-871 100-26 312-28 420-5 214 46 361 142 455 298 52 85 75 152 88 252 47 381-213 772-611 917-158 58-324 74-444 45zm310-21c45-12 29-13-155-14-207 0-242 8-109 27 73 11 189 5 264-13zm-428-92c-3-2-20-3-39-1l-33 3 35 22c35 22 35 22 38 2 2-11 1-23-1-26zm643 16 35-18-57-1c-56 0-58 1-58 26 0 22 3 24 23 18 12-3 38-15 57-25zm-720-64c0-31-3-35-25-35-14 0-25 3-25 6 0 8 40 64 46 64 2 0 4-16 4-35zm846-6c19-11 34-23 34-25s-18-4-40-4c-36 0-40 3-40 25 0 30 3 31 46 4zm-926-174v-95h-26c-25 0-25 2-19 43 7 44 36 147 42 147 2 0 3-43 3-95zm1180-85c0-3-13-7-30-8-29-2-30-1-30 45v47l30-40c16-21 30-41 30-44zm39-67c10-19 9-23-4-23-10 0-15 9-15 27 0 29 2 29 19-4zm94-378c0-93-4-143-15-175-15-43-16-37-16 175 0 211 1 218 15 175 11-31 16-85 16-175zm-1314-202-1-78-14 44c-8 25-17 60-20 78-5 29-4 33 15 33 20 0 21-5 20-77zm1240-120c-35-59-39-60-39-10 0 46 1 47 31 47h31l-23-37zm-1159-75-1-33-19 24c-25 30-25 41 0 41 16 0 20-7 20-32zm40-59c0 6 9 11 20 11 16 0 20-7 20-36v-36l-35 33c-35 33-48 53-20 29 10-9 15-9 15-1zm1020 7c0-3-4-8-10-11-5-3-10-1-10 4 0 6 5 11 10 11 6 0 10-2 10-4zm-900-96c0-25-7-25-45 0l-30 20h38c30 0 37-4 37-20zm770 0c-45-24-50-24-50 0 0 17 7 20 43 20l42-1-35-19zm-162-65c-10-10-206-35-278-35-72 1-226 23-238 34-3 3 113 6 258 6s261-2 258-5z"/>
<path d="m2843 1917c-116-85-230-321-173-357 8-5 63-10 122-10 103 0 107 1 127 26 19 24 21 40 21 170 0 78-4 154-10 168-12 33-45 34-87 3zm78-27c11-41 10-244-2-279-15-43-35-51-129-51-93 0-120 10-120 45 0 53 65 186 83 169 3-3 4 2 4 11-1 9 8 24 21 32 21 15 22 15 22-21 0-35 1-36 40-36h40v81c0 70 2 80 17 77 9-2 20-14 24-28z"/>
<path d="m2720 1640v-40h80 80v40 40h-80-80v-40z"/>
<path d="m3085 1916c-14-21-16-50-13-174 4-196 1-192 149-192 128 0 145 9 135 73-14 85-108 237-179 288-49 35-72 36-92 5zm35-156v-160h110c87 0 110-3 110-14 0-19-32-26-127-26-123 0-123 1-123 193 0 85 3 157 7 160 19 20 23-7 23-153zm95 90c3-5 1-10-4-10-6 0-11 5-11 10 0 6 2 10 4 10 3 0 8-4 11-10zm105-162c0-5-9-8-20-8-17 0-20 7-20 43l1 42 19-35c11-19 19-38 20-42z"/>
</g>
</svg>
