<svg version="1.2" baseProfile="tiny-ps" xmlns="http://www.w3.org/2000/svg" viewBox="0 0 512 512">
<title>Bayu Angora</title>
<path d="M16 1.333C2.612 4.494 2.155 26.836 2 38 1.513 73.082.705 107.114 12 141c5.605 16.816 13.918 34.579 24.333 49 4.716 6.53 12.616 12.898 16.167 20 3.894 7.788.5 25.246.5 34 0 17.214 3.894 34.681 9.333 51C82.238 354.715 126.874 408.358 173 450c18.942 17.1 37.704 33.829 58 49.333 10.03 7.663 20.313 15.516 34 11.334 7.254-2.217 13.189-8.733 19-13.334 14.394-11.395 28.379-23.037 42-35.333 48.301-43.605 89.975-92.005 117.833-151 9.612-20.355 14.018-43.895 16.167-66 .999-10.28-2.979-23.343-.833-33 1.214-5.464 8.132-10.671 11.5-15 7.782-10.006 13.901-20.802 19.5-32C508.888 127.558 511 88.197 511 47c0-10.582.313-36.682-9-43.667C496.34-.91 479.883-.823 475.333 5c-9.318 11.928-12.044 31.33-18.5 45-11.502 24.359-31.371 46.411-56.833 56.667-8.659 3.487-20.415-5.686-29-8.667-16.019-5.562-35.082-6.645-52-5-15.797 1.536-31.914 8.609-45 17.333-3.763 2.509-13.772 14.421-18 13.834-6.063-.842-13.607-11.538-19-14.834-13.128-8.022-28.493-14.825-44-16.333-16.532-1.607-34.232-.151-50 4.667-6.9 2.108-20.161 11.876-27 10.166C85.536 100.217 61.975 67.363 51.333 40 44.51 22.452 40.792-4.52 16 1.333z" fill="#fff"/>
<path d="M22 19c-.27 10.256-3.005 20.766-4 31-3.35 34.453 4.483 72.904 19.167 104 5.483 11.613 12.902 22.948 21 33 3.703 4.598 11.971 10.318 14 15.667 1.646 4.34-2.102 12.646-2.167 17.333-.217 15.63-.057 30.744 3.333 46C85.966 322.848 122.814 368.701 161 411c21.18 23.461 45.232 44.725 70 64.333 5.757 4.558 17.601 18.089 25 18.5 6.951.387 20.634-14.511 26-18.833 23.974-19.313 46.202-40.202 68-62 40.263-40.263 77.902-92.529 89.667-149 2.632-12.635 4.595-27.018 3.333-40-.485-4.988-4.517-16.6-2.5-21 2.46-5.367 9.42-10.349 13.167-15 7.284-9.042 13.759-18.755 19.166-29C495.37 116.298 498.571 65.53 490 19h-1c-11.699 37.046-29.356 74.643-64 95.333-7.833 4.678-23.327 15.908-33 14.834-3.908-.435-8.539-5.174-12-7-6.929-3.658-14.338-6.705-22-8.834-28.596-7.943-58.603-.619-81 18.667-7.029 6.053-17.552 14.698-20 24-23.002-24.973-46.493-49.646-84-46-12.581 1.223-25.636 4.484-37 10.167-4.525 2.262-10.692 8.566-15.667 9.166-4.377.529-13.38-4.633-17.333-6.5C77.915 110.988 56.254 91.797 43.167 67 37.994 57.199 33.797 46.516 30 36c-1.875-5.193-3.567-13.749-8-17z" fill="#000"/>
<path d="M124 279L123 279C122.817 256.839 109.357 226.04 91 213C90.4074 226.802 89.1242 240.224 91.4352 254C102.563 320.334 152.43 383.222 201 427.17C215.787 440.55 231.562 460.782 250 469L250 414C250 407.524 252.174 396.296 249.397 390.39C245.347 381.781 215.21 380.055 219.623 367.019C221.266 362.163 226.683 361.334 231 360.35C241.907 357.863 253.401 356.595 264 353L264 352C259.899 350.082 254.501 348.86 251.858 344.892C243.969 333.049 256.831 311.701 248.972 300.51C246.34 296.761 238.135 295.786 234 294.576C221.29 290.854 208.598 286.76 196 282.67C190.914 281.018 182.945 280.18 180.194 274.895C173.892 262.785 198.938 263.076 205 263.004C226.997 262.742 249.065 260.592 271 259.09C281.235 258.389 293.16 259.908 303 257C293.244 250.861 279.056 248.325 268 245.141C262.838 243.655 255.117 242.394 251.742 237.786C248.491 233.346 250 225.202 250 220C250 205.518 252.632 188.176 249.721 174C248.255 166.859 240.576 159.274 235.829 154C219.081 135.39 197.624 123.088 172 126.576C166.209 127.365 159.82 127.591 155.044 131.419C143.475 140.691 156.109 157.16 147.581 167.96C137.486 180.744 116.764 176.407 113.329 196C110.687 211.066 118.844 224.124 122.964 238C126.731 250.689 127.06 266.146 124 279M229 277L229 278C237.523 279.972 258.213 283.251 261.991 292.043C265.662 300.589 263 314.787 263 324C263 327.253 262.025 332.547 264.028 335.351C268.599 341.75 284.034 343.734 290.999 347.055C295.104 349.012 299.512 352.999 296.968 357.956C294.374 363.008 287.916 363.415 283 364.4C271.893 366.625 259.599 368.024 249 372L261.821 382.015L263 408L263 469C285.65 457.718 306.742 433.082 324.039 415C375.272 361.441 430.981 291.98 421 213C403.494 225.894 390.178 256.506 390 278L388 278C387.964 264.97 386.169 252.937 389.478 240C393.114 225.789 402.285 212.245 399.535 197C395.707 175.775 374.58 181.719 364.703 166.996C358.106 157.162 367.108 144.729 361.142 135.015C355.956 126.572 341.88 126.109 333 126.004C310.253 125.733 293.333 136.999 278.039 153C273.026 158.245 265.311 165.806 263.43 173C260.247 185.168 263 201.423 263 214C263 217.839 261.597 225.204 264.603 228.157C267.63 231.13 274.077 231.706 278 233.001C288.608 236.502 299.266 240.051 310 243.141C321.991 246.594 335.681 249.577 346.996 254.803C351.24 256.763 355.063 261.085 352.528 265.891C348.585 273.364 329.307 270.589 322 271.09C291.165 273.201 259.652 273.126 229 277z" fill="#e00"/>
</svg>
