<?xml version="1.0" standalone="yes"?>
<svg xmlns="http://www.w3.org/2000/svg" width="512" height="512">
<path style="fill:#fcfcfc; stroke:none;" d="M12.0039 0.742279C-1.45111 5.94611 0 26.5828 0 38C0 74.4234 0.765721 107.737 11.0008 143C15.8348 159.655 24.6463 175.693 34.3588 190C39.1097 196.998 47.3829 202.829 50.1458 211C53.1928 220.011 49.258 230.716 49.5941 240C50.1988 256.703 53.9584 274.017 58.7207 290C77.0605 351.549 123.277 403.09 167.715 447.285C185.479 464.952 204.537 481.393 224 497.196C236.504 507.348 249.729 517.265 267 511.03C273.884 508.545 279.314 502.285 284.999 497.887C299.91 486.354 314.178 473.897 328 461.089C377.624 415.103 428.11 363.18 451.308 298C457.698 280.046 461.812 259.046 462.791 240C463.383 228.483 457.428 216.377 464.789 206C476.107 190.045 487.427 176.049 495.691 158C510.529 125.594 512 90.9455 512 56C512 40.9782 517.104 13.4026 503.815 2.57251C497.298 -2.7384 479.02 -1.71307 473.954 5.10495C464.846 17.3649 462.785 32.2993 456.985 46C447.819 67.6548 427.383 94.7353 404.285 102.596C390.651 107.236 382.449 98.0581 370 94.3079C354.478 89.6318 337.101 88.9858 321 90.0895C303.596 91.2825 287.753 98.4938 273 107.352C267.324 110.76 262.97 120.1 256 120.764C249.192 121.412 243.85 111.868 238.985 108.301C228.247 100.427 214.045 94.322 201 91.8048C182.842 88.3009 161.863 88.7325 144 93.7462C134.099 96.525 123.588 106.9 113 104.238C76.5093 95.0666 59.3267 54.1353 47.5748 23C41.6552 7.31635 30.8917 -6.56274 12.0039 0.742279z"/>
<path style="fill:#030202; stroke:none;" d="M33 0L33 1C47.1944 11.2395 48.9416 32.05 55.5802 47C65.4511 69.2288 81.9438 88.3759 103 100.535C119.183 109.881 128.732 98.6996 144 94.0394C157.68 89.8639 172.816 89.4182 187 90.0394C204.44 90.8031 221.366 97.7462 236 106.951C242.101 110.789 246.749 119.59 254 121.088C260.634 122.459 264.963 114.942 269.039 111.105C275.699 104.835 286.494 99.71 295 96.4282C316.905 87.9771 342.303 87.9273 365 93.2354C380.254 96.8028 391.865 109.837 408 101.402C429.5 90.1624 447.533 69.3301 456.985 47C462.974 32.8522 465.033 8.95117 480 1C469.496 -3.40759 451.42 0 440 0L349 0L33 0M501 0L501 1C506.831 5.65576 510.342 11.5155 511 19L512 19L512 0L501 0M23 13C7.50136 58.7684 21.0177 119.882 43.3086 161C50.4175 174.113 64.7946 184.955 70.5926 198C73.526 204.6 69.3535 216.827 69.0394 224C68.3508 239.724 70.8785 255.835 74.8843 271C89.2963 325.561 125.081 374.178 162.911 415C183.928 437.679 206.377 458.617 230 478.576C236.094 483.724 247.876 497.333 256 498.133C263.409 498.862 276.568 483.934 282 479.414C306.816 458.761 330.031 436.606 352.025 413C390.986 371.183 425.784 320.248 439.116 264C442.556 249.483 443.35 234.865 442.985 220C442.836 213.887 439.139 204.773 441.314 199C443.482 193.246 450.506 187.785 454.389 183C461.631 174.075 467.887 164.288 473.031 154C494.599 110.865 499.101 59.9294 490 13L489 13C473.686 52.6994 459.405 88.8806 421 111.799C413.061 116.537 403.216 122.513 394 124.184C388.798 125.128 384.244 120.856 380 118.427C372.165 113.943 363.757 110.554 355 108.375C316.767 98.861 276.166 117.608 257 152L256 152C237.06 118.02 196.931 98.9939 159 108.13C150.258 110.236 141.858 113.478 134 117.862C128.449 120.958 123.676 125.666 117 123.637C81.514 112.851 55.0175 85.6561 39.2585 53C33.139 40.3192 30.7849 24.7232 23 13M0 91L0 512L244 512L244 511C234.539 506.917 226.765 498.777 219 492.131C205.796 480.831 192.801 469.492 179.91 457.855C132.407 414.973 88.7669 363.661 64.0116 304C56.5205 285.946 51.1319 264.566 50.0285 245C49.4136 234.096 53.2161 221.574 50.4421 211C48.4664 203.469 41.1426 197.916 36.517 192C28.8878 182.243 22.4897 170.227 17.3094 159C11.1491 145.649 6.979 130.438 4.2608 116C2.81271 108.309 2.96185 98.0558 0 91M511 94C510.918 123.72 498.493 154.825 483.597 180C477.563 190.198 465.03 199.792 461.649 211C458.854 220.264 463.091 230.593 462.625 240C461.744 257.775 457.887 277.117 452.329 294C430.297 360.937 377.352 414.428 327 461.089C313.178 473.897 298.926 486.379 284 497.887C278.11 502.428 272.872 507.978 266 511L266 512L512 512L512 216L512 131C512 120.366 515.108 103.789 511 94z"/>
<path style="fill:#fc0101; stroke:none;" d="M124 279L123 279C122.817 256.839 109.357 226.04 91 213C90.4074 226.802 89.1242 240.224 91.4352 254C102.563 320.334 152.43 383.222 201 427.17C215.787 440.55 231.562 460.782 250 469L250 414C250 407.524 252.174 396.296 249.397 390.39C245.347 381.781 215.21 380.055 219.623 367.019C221.266 362.163 226.683 361.334 231 360.35C241.907 357.863 253.401 356.595 264 353L264 352C259.899 350.082 254.501 348.86 251.858 344.892C243.969 333.049 256.831 311.701 248.972 300.51C246.34 296.761 238.135 295.786 234 294.576C221.29 290.854 208.598 286.76 196 282.67C190.914 281.018 182.945 280.18 180.194 274.895C173.892 262.785 198.938 263.076 205 263.004C226.997 262.742 249.065 260.592 271 259.09C281.235 258.389 293.16 259.908 303 257C293.244 250.861 279.056 248.325 268 245.141C262.838 243.655 255.117 242.394 251.742 237.786C248.491 233.346 250 225.202 250 220C250 205.518 252.632 188.176 249.721 174C248.255 166.859 240.576 159.274 235.829 154C219.081 135.39 197.624 123.088 172 126.576C166.209 127.365 159.82 127.591 155.044 131.419C143.475 140.691 156.109 157.16 147.581 167.96C137.486 180.744 116.764 176.407 113.329 196C110.687 211.066 118.844 224.124 122.964 238C126.731 250.689 127.06 266.146 124 279M229 277L229 278C237.523 279.972 258.213 283.251 261.991 292.043C265.662 300.589 263 314.787 263 324C263 327.253 262.025 332.547 264.028 335.351C268.599 341.75 284.034 343.734 290.999 347.055C295.104 349.012 299.512 352.999 296.968 357.956C294.374 363.008 287.916 363.415 283 364.4C271.893 366.625 259.599 368.024 249 372L261.821 382.015L263 408L263 469C285.65 457.718 306.742 433.082 324.039 415C375.272 361.441 430.981 291.98 421 213C403.494 225.894 390.178 256.506 390 278L388 278C387.964 264.97 386.169 252.937 389.478 240C393.114 225.789 402.285 212.245 399.535 197C395.707 175.775 374.58 181.719 364.703 166.996C358.106 157.162 367.108 144.729 361.142 135.015C355.956 126.572 341.88 126.109 333 126.004C310.253 125.733 293.333 136.999 278.039 153C273.026 158.245 265.311 165.806 263.43 173C260.247 185.168 263 201.423 263 214C263 217.839 261.597 225.204 264.603 228.157C267.63 231.13 274.077 231.706 278 233.001C288.608 236.502 299.266 240.051 310 243.141C321.991 246.594 335.681 249.577 346.996 254.803C351.24 256.763 355.063 261.085 352.528 265.891C348.585 273.364 329.307 270.589 322 271.09C291.165 273.201 259.652 273.126 229 277z"/>
</svg>
