<svg version="1.2" baseProfile="tiny-ps" xmlns="http://www.w3.org/2000/svg" viewBox="0 0 512 512">
<title>Bayu Angora</title>
<g transform="translate(0 600) scale(.1 -.1)">
<path d="m1404 5883c-41-100-70-155-130-245-36-54-62-103-58-109 4-7 34-9 94-4 66 5 110 3 174-10 69-14 89-15 101-5 22 19 19 32-34 138-27 53-60 129-74 167-37 102-38 105-49 105-5 0-16-17-24-37z"/>
<path d="m4546 5846c-14-41-51-128-81-192-45-95-53-119-44-136s17-19 47-14c133 24 165 27 238 21 48-4 84-3 87 2s-17 45-45 89c-28 43-71 122-95 174-56 121-57 123-70 127-5 2-22-30-37-71z"/>
<path d="m745 5808c3-18 15-85 25-148 20-131 43-196 71-205 21-7 142 10 197 27 37 11 162 157 162 188 0 19-29 32-100 45-79 15-209 59-268 91-81 44-97 44-87 2z"/>
<path d="m5158 5799c-52-27-119-51-205-71-158-38-166-44-130-95 15-21 50-64 79-96l53-58 104-16 104-17 18 23c24 29 42 96 63 226 8 55 18 110 22 123 9 33-17 28-108-19z"/>
<path d="m1706 5568c-43-86-95-171-148-242-103-134-114-153-105-162 4-5 45-3 90 4 125 18 259 15 355-8 46-11 88-18 93-14 17 10 9 36-55 173-80 171-110 244-127 310-23 90-30 85-103-61z"/>
<path d="m4226 5692c-3-6-19-51-36-102-16-50-58-153-93-228s-70-152-77-170c-20-52-5-57 91-33s228 28 356 9c56-8 86-9 93-2s-11 38-56 95c-37 46-85 110-106 143-40 58-138 246-138 264 0 15-27 34-34 24z"/>
<path d="m1265 5445c-49-7-153-25-230-40-150-30-333-38-467-22-84 11-88 0-25-71 24-27 79-100 122-162l78-113 121 6c113 6 337 44 398 68 44 18 258 267 258 301 0 37-117 52-255 33z"/>
<path d="m4561 5449c-90-12-91-27-4-135 104-130 171-196 215-211 70-24 324-63 412-63h83l56 84c31 46 85 121 121 165 36 45 66 86 66 92 0 7-22 8-67 2-38-4-124-8-193-8-120 1-155 5-410 55-119 23-210 29-279 19z"/>
<path d="m2858 5173c12-2 32-2 45 0 12 2 2 4-23 4s-35-2-22-4z"/>
<path d="m3103 5173c15-2 37-2 50 0 12 2 0 4-28 4-27 0-38-2-22-4z"/>
<path d="m2743 5163c9-2 25-2 35 0 9 3 1 5-18 5s-27-2-17-5z"/>
<path d="m3253 5163c9-2 23-2 30 0 6 3-1 5-18 5-16 0-22-2-12-5z"/>
<path d="m2668 5153c7-3 16-2 19 1 4 3-2 6-13 5-11 0-14-3-6-6z"/>
<path d="m3328 5153c7-3 16-2 19 1 4 3-2 6-13 5-11 0-14-3-6-6z"/>
<path d="m2598 5143c6-2 18-2 25 0 6 3 1 5-13 5s-19-2-12-5z"/>
<path d="m2508 5123c7-3 16-2 19 1 4 3-2 6-13 5-11 0-14-3-6-6z"/>
<path d="m1610 5103c-50-6-243-47-395-82-206-48-406-67-556-54-68 6-130 8-138 3-10-5 5-27 58-85 38-42 114-141 168-218 112-160 199-246 296-294 95-48 176-66 292-66 114-1 192 17 300 67 231 108 394 348 395 582 0 75-10 86-110 120-72 25-226 39-310 27z"/>
<path d="m4195 5104c-51-8-159-46-187-66-25-17-28-25-28-77 0-122 63-290 148-393 252-304 694-351 969-103 29 25 101 115 160 198 59 84 136 183 171 220s62 73 59 80c-2 7-17 11-33 10-290-17-401-11-614 37-47 11-154 35-239 54-150 34-328 52-406 40z"/>
<path d="m2140 5010c-8-5-10-10-5-10 6 0 17 5 25 10s11 10 5 10c-5 0-17-5-25-10z"/>
<path d="m3891 4974c0-11 3-14 6-6 3 7 2 16-1 19-3 4-6-2-5-13z"/>
<path d="m2112 4910c0-14 2-19 5-12 2 6 2 18 0 25-3 6-5 1-5-13z"/>
<path d="m3950 4695c0-5 5-17 10-25s10-10 10-5c0 6-5 17-10 25s-10 11-10 5z"/>
<path d="m1959 4533c-13-16-12-17 4-4s21 21 13 21c-2 0-10-8-17-17z"/>
<path d="m4040 4536c0-2 8-10 18-17 15-13 16-12 3 4s-21 21-21 13z"/>
<path d="m1880 4445c-24-25-42-45-39-45s25 20 49 45 42 45 39 45-25-20-49-45z"/>
<path d="m4100 4465c13-14 26-25 28-25 3 0-5 11-18 25s-26 25-28 25c-3 0 5-11 18-25z"/>
<path d="m4180 4396c0-2 8-10 18-17 15-13 16-12 3 4s-21 21-21 13z"/>
<path d="m4250 4346c0-3 9-10 20-16s20-8 20-6c0 3-9 10-20 16s-20 8-20 6z"/>
<path d="m1690 4310c-9-6-10-10-3-10 6 0 15 5 18 10 8 12 4 12-15 0z"/>
<path d="m4307 4309c7-7 15-10 18-7s-2 9-12 12c-14 6-15 5-6-5z"/>
<path d="m1565 4260c-13-6-15-9-5-9 8 0 22 4 30 9 18 12 2 12-25 0z"/>
<path d="m4821 4237c2-1 13-9 24-17 19-14 19-14 6 3-7 9-18 17-24 17s-8-1-6-3z"/>
<path d="m4768 4223c7-3 16-2 19 1 4 3-2 6-13 5-11 0-14-3-6-6z"/>
<path d="m1016 4003c-6-14-5-15 5-6 7 7 10 15 7 18s-9-2-12-12z"/>
<path d="m5021 3930c14-31 19-36 19-24 0 6-7 19-16 30-14 18-14 18-3-6z"/>
<path d="m2233 3563c9-2 23-2 30 0 6 3-1 5-18 5-16 0-22-2-12-5z"/>
<path d="m2383 3563c9-2 23-2 30 0 6 3-1 5-18 5-16 0-22-2-12-5z"/>
<path d="m3608 3563c6-2 18-2 25 0 6 3 1 5-13 5s-19-2-12-5z"/>
<path d="m3768 3563c6-2 18-2 25 0 6 3 1 5-13 5s-19-2-12-5z"/>
<path d="m2610 3487c0-2 15-16 33-33l32-29-29 33c-28 30-36 37-36 29z"/>
<path d="m3369 3463c-13-16-12-17 4-4s21 21 13 21c-2 0-10-8-17-17z"/>
<path d="m801 3444c0-11 3-14 6-6 3 7 2 16-1 19-3 4-6-2-5-13z"/>
<path d="m1875 3450c-3-6 1-7 9-4 18 7 21 14 7 14-6 0-13-4-16-10z"/>
<path d="m4120 3456c0-3 9-10 20-16s20-8 20-6c0 3-9 10-20 16s-20 8-20 6z"/>
<path d="m3329 3423c-13-16-12-17 4-4s21 21 13 21c-2 0-10-8-17-17z"/>
<path d="m4170 3427c0-2 19-17 43-32 23-16 37-22 30-14-12 15-73 53-73 46z"/>
<path d="m2680 3416c0-2 8-10 18-17 15-13 16-12 3 4s-21 21-21 13z"/>
<path d="m1769 3383c-13-16-12-17 4-4 9 7 17 15 17 17 0 8-8 3-21-13z"/>
<path d="m1714 3338-19-23 23 19c21 18 27 26 19 26-2 0-12-10-23-22z"/>
<path d="m3275 3349c-4-6-5-12-2-15 2-3 7 2 10 11 7 17 1 20-8 4z"/>
<path d="m4270 3356c0-2 8-10 18-17 15-13 16-12 3 4s-21 21-21 13z"/>
<path d="m4415 3210c10-11 20-20 23-20s-3 9-13 20-20 20-23 20 3-9 13-20z"/>
<path d="m5241 3204c0-11 3-14 6-6 3 7 2 16-1 19-3 4-6-2-5-13z"/>
<path d="m751 3134c0-11 3-14 6-6 3 7 2 16-1 19-3 4-6-2-5-13z"/>
<path d="m2792 3125c0-16 2-22 5-12 2 9 2 23 0 30-3 6-5-1-5-18z"/>
<path d="m5253 3115c0-22 2-30 4-17 2 12 2 30 0 40-3 9-5-1-4-23z"/>
<path d="m3211 3094c0-11 3-14 6-6 3 7 2 16-1 19-3 4-6-2-5-13z"/>
<path d="m1490 3059c-7-11-10-23-7-25 2-2 9 7 15 21 14 30 7 33-8 4z"/>
<path d="m4540 3005c0-5 5-17 10-25s10-10 10-5c0 6-5 17-10 25s-10 11-10 5z"/>
<path d="m2803 2940c0-30 2-43 4-27 2 15 2 39 0 55-2 15-4 2-4-28z"/>
<path d="m4601 2784c0-11 3-14 6-6 3 7 2 16-1 19-3 4-6-2-5-13z"/>
<path d="m2802 2720c0-19 2-27 5-17 2 9 2 25 0 35-3 9-5 1-5-18z"/>
<path d="m800 2661c0-6 4-13 10-16s7 1 4 9c-7 18-14 21-14 7z"/>
<path d="m2792 2605c0-16 2-22 5-12 2 9 2 23 0 30-3 6-5-1-5-18z"/>
<path d="m4602 2570c0-14 2-19 5-12 2 6 2 18 0 25-3 6-5 1-5-13z"/>
<path d="m5081 2324c0-11 3-14 6-6 3 7 2 16-1 19-3 4-6-2-5-13z"/>
<path d="m922 2290c0-19 2-27 5-17 2 9 2 25 0 35-3 9-5 1-5-18z"/>
<path d="m1570 2235c30-30 57-55 59-55 3 0-19 25-49 55s-57 55-59 55c-3 0 19-25 49-55z"/>
<path d="m4464 2268-19-23 23 19c21 18 27 26 19 26-2 0-12-10-23-22z"/>
<path d="m3330 2261c5-11 15-23 21-27 6-3 3 5-6 20-20 30-30 35-15 7z"/>
<path d="m5082 2245c0-16 2-22 5-12 2 9 2 23 0 30-3 6-5-1-5-18z"/>
<path d="m4375 2184c-30-27-32-31-9-16 28 19 62 53 53 52-2-1-22-17-44-36z"/>
<path d="m2605 2182c-17-15-44-37-60-50-17-13-21-19-10-13 21 10 114 90 105 90-3 0-19-12-35-27z"/>
<path d="m1640 2176c0-2 8-10 18-17 15-13 16-12 3 4s-21 21-21 13z"/>
<path d="m3430 2156c0-2 8-10 18-17 15-13 16-12 3 4s-21 21-21 13z"/>
<path d="m1680 2145c0-7 81-47 86-43 2 3-17 14-41 26-25 12-45 20-45 17z"/>
<path d="m4300 2135c-14-8-20-14-14-15 5 0 19 7 30 15 24 18 16 19-16 0z"/>
<path d="m1948 2043c7-3 16-2 19 1 4 3-2 6-13 5-11 0-14-3-6-6z"/>
<path d="m2008 2033c6-2 18-2 25 0 6 3 1 5-13 5s-19-2-12-5z"/>
<path d="m2268 2033c6-2 18-2 25 0 6 3 1 5-13 5s-19-2-12-5z"/>
<path d="m3723 2033c9-2 23-2 30 0 6 3-1 5-18 5-16 0-22-2-12-5z"/>
<path d="m3968 2033c6-2 18-2 25 0 6 3 1 5-13 5s-19-2-12-5z"/>
<path d="m2138 2023c12-2 32-2 45 0 12 2 2 4-23 4s-35-2-22-4z"/>
<path d="m3853 2023c9-2 23-2 30 0 6 3-1 5-18 5-16 0-22-2-12-5z"/>
<path d="m2839 1913c-13-16-12-17 4-4s21 21 13 21c-2 0-10-8-17-17z"/>
<path d="m3180 1907c0-2 15-16 33-33l32-29-29 33c-28 30-36 37-36 29z"/>
<path d="m821 1874c0-11 3-14 6-6 3 7 2 16-1 19-3 4-6-2-5-13z"/>
<path d="m3074 1755c0-77 2-107 3-67 2 40 2 103 0 140s-3 4-3-73z"/>
<path d="m2764 1838-19-23 23 19c21 18 27 26 19 26-2 0-12-10-23-22z"/>
<path d="m3240 1836c0-2 8-10 18-17 15-13 16-12 3 4s-21 21-21 13z"/>
<path d="m5192 1790c0-14 2-19 5-12 2 6 2 18 0 25-3 6-5 1-5-13z"/>
<path d="m802 1720c0-19 2-27 5-17 2 9 2 25 0 35-3 9-5 1-5-18z"/>
<path d="m2651 1604c0-11 3-14 6-6 3 7 2 16-1 19-3 4-6-2-5-13z"/>
<path d="m3080 1593c0-6 8-17 18-24 16-13 16-13 2 6-8 11-16 22-17 24-2 2-3 0-3-6z"/>
<path d="m2899 1563c-13-16-12-17 4-4 9 7 17 15 17 17 0 8-8 3-21-13z"/>
<path d="m840 1541c0-6 4-13 10-16s7 1 4 9c-7 18-14 21-14 7z"/>
<path d="m885 1480c10-11 20-20 23-20s-3 9-13 20-20 20-23 20 3-9 13-20z"/>
<path d="m5079 1453c-13-16-12-17 4-4 9 7 17 15 17 17 0 8-8 3-21-13z"/>
<path d="m5010 1420c-8-5-10-10-5-10 6 0 17 5 25 10s11 10 5 10c-5 0-17-5-25-10z"/>
<path d="m4928 1393c7-3 16-2 19 1 4 3-2 6-13 5-11 0-14-3-6-6z"/>
<path d="m1128 1383c12-2 30-2 40 0 9 3-1 5-23 4-22 0-30-2-17-4z"/>
<path d="m4868 1383c6-2 18-2 25 0 6 3 1 5-13 5s-19-2-12-5z"/>
<path d="m1496 1277c3-10 9-15 12-12s0 11-7 18c-10 9-11 8-5-6z"/>
<path d="m2974 1164c-19-15-19-15 1-6 11 5 27 12 35 15 13 5 13 6-1 6-8 1-24-6-35-15z"/>
<path d="m2169 1153c-13-17-13-17 6-3 11 8 22 16 24 17 2 2 0 3-6 3s-17-8-24-17z"/>
<path d="m3833 1147c12-13 24-22 26-20 6 4-30 43-40 43-5 0 2-10 14-23z"/>
<path d="m4481 1144c0-11 3-14 6-6 3 7 2 16-1 19-3 4-6-2-5-13z"/>
<path d="m2152 633c-1-390-5-502-14-506-10-4-10-6 0-6 7-1 15 5 17 12 3 6 4 235 3 507l-3 495-3-502z"/>
<path d="m1521 1104c0-11 3-14 6-6 3 7 2 16-1 19-3 4-6-2-5-13z"/>
<path d="m2284 915c0-116 2-161 3-102 2 59 2 154 0 210-1 56-3 8-3-108z"/>
<path d="m3724 915c0-116 2-161 3-102 2 59 2 154 0 210-1 56-3 8-3-108z"/>
<path d="m1532 1010c0-14 2-19 5-12 2 6 2 18 0 25-3 6-5 1-5-13z"/>
<path d="m4451 884c0-11 3-14 6-6 3 7 2 16-1 19-3 4-6-2-5-13z"/>
<path d="m3699 663c-13-16-12-17 4-4s21 21 13 21c-2 0-10-8-17-17z"/>
<path d="m2438 603c7-3 16-2 19 1 4 3-2 6-13 5-11 0-14-3-6-6z"/>
<path d="m3558 603c7-3 16-2 19 1 4 3-2 6-13 5-11 0-14-3-6-6z"/>
<path d="m2498 593c7-3 16-2 19 1 4 3-2 6-13 5-11 0-14-3-6-6z"/>
<path d="m3498 593c6-2 18-2 25 0 6 3 1 5-13 5s-19-2-12-5z"/>
<path d="m2568 583c6-2 18-2 25 0 6 3 1 5-13 5s-19-2-12-5z"/>
<path d="m3418 583c6-2 18-2 25 0 6 3 1 5-13 5s-19-2-12-5z"/>
<path d="m2668 573c17-2 47-2 65 0 17 2 3 4-33 4s-50-2-32-4z"/>
<path d="m3303 573c15-2 37-2 50 0 12 2 0 4-28 4-27 0-38-2-22-4z"/>
<path d="m1740 446c0-2 8-10 18-17 15-13 16-12 3 4s-21 21-21 13z"/>
<path d="m4180 353-65-68 68 65c62 60 72 70 64 70-1 0-32-30-67-67z"/>
<path d="m1835 340c33-33 62-60 64-60 3 0-21 27-54 60s-62 60-64 60c-3 0 21-27 54-60z"/>
<path d="m1910 276c0-2 8-10 18-17 15-13 16-12 3 4s-21 21-21 13z"/>
<path d="m4069 253c-13-16-12-17 4-4 9 7 17 15 17 17 0 8-8 3-21-13z"/>
</g>
</svg>
