<?xml version="1.0" encoding="UTF-8"?>
<!DOCTYPE svg PUBLIC "-//W3C//DTD SVG 1.1//EN" "http://www.w3.org/Graphics/SVG/1.1/DTD/svg11.dtd">
<!-- Creator: CorelDRAW -->
<svg xmlns="http://www.w3.org/2000/svg" xml:space="preserve" width="43.3492mm" height="43.3492mm" style="shape-rendering:geometricPrecision; text-rendering:geometricPrecision; image-rendering:optimizeQuality; fill-rule:evenodd; clip-rule:evenodd"
viewBox="0 0 43.3492 43.3492"
 xmlns:xlink="http://www.w3.org/1999/xlink">
 <defs>
  <style type="text/css">
   <![CDATA[
    .fil1 {fill:#1F1A17}
    .fil2 {fill:#DA251D}
    .fil3 {fill:#1F1A17;fill-rule:nonzero}
    .fil0 {fill:#DEDEDD;fill-rule:nonzero}
   ]]>
  </style>
 </defs>
 <g id="Layer_x0020_1">
  <metadata id="CorelCorpID_0Corel-Layer"/>
  <g>
   <path class="fil0" d="M2.5343 5.5063l-2.3588 0 0.0046 0.0046 -0.0001 -0.0102 0 -0.0103 -0.0001 -0.0102 -0.0046 -0.0149 0.0046 -0.0056 -0.0001 -0.0103 -0.0046 -0.0149 0 -0.0102 0.0046 -0.0057 -0.0001 -0.0103 -0.0046 -0.0149 0 -0.0103 0 -0.0103 0 -0.0103 0 -0.0103 0 -0.0103 0.0046 -0.015 0.0001 -0.0103 -0.0046 -0.0057 0 -0.0104 0.0046 -0.0149 0.0001 -0.0104 -0.0046 -0.0057 0.0046 -0.015 0.0001 -0.0104 0 -0.0103 0.0001 -0.0104 0 -0.0104 0.0001 -0.0151 0.0001 -0.0057 0 -0.0104 0.0001 -0.0104 2.3496 0.0092 -0.0001 0.0104 0 0.0104 -0.0001 0.0151 -0.0001 0.0057 0 0.0104 -0.0001 0.0104 0 0.0103 -0.0001 0.0104 0.0046 0.0058 -0.0046 0.0149 -0.0001 0.0104 0.0046 0.0057 0 0.0104 -0.0046 0.0149 -0.0001 0.0103 0.0046 0.0058 0 0.0103 0 0.0103 0 0.0103 0 0.0103 0 0.0103 -0.0046 0.0057 0.0001 0.0103 0.0046 0.0149 0 0.0102 -0.0046 0.0057 0.0001 0.0103 0.0046 0.0148 -0.0046 0.0057 0.0001 0.0102 0 0.0103 0.0001 0.0102 0.0046 0.0046zm-2.3542 0.0046l2.3496 -0.0092 -0.0013 0.0608 -0.0043 0.0599 -0.0072 0.0591 -0.0102 0.0582 -0.0129 0.0572 -0.0156 0.0561 -0.0182 0.0549 -0.0209 0.0537 -0.0233 0.0524 -0.0257 0.051 -0.0281 0.0496 -0.0304 0.048 -0.0326 0.0464 -0.0347 0.0448 -0.0367 0.043 -0.0388 0.0411 -0.0406 0.0393 -0.0425 0.0372 -0.0442 0.0353 -0.046 0.0331 -0.0475 0.0309 -0.0491 0.0286 -0.0505 0.0263 -0.052 0.0238 -0.0533 0.0214 -0.0545 0.0188 -0.0557 0.0161 -0.0567 0.0134 -0.0578 0.0106 -0.0588 0.0077 -0.0597 0.0048 -0.0604 0.0018 -0.0605 -0.0013 -0.0596 -0.0043 -0.0589 -0.0073 -0.0579 -0.0102 -0.0568 -0.0129 -0.0559 -0.0157 -0.0546 -0.0184 -0.0534 -0.0209 -0.0522 -0.0235 -0.0507 -0.0258 -0.0493 -0.0283 -0.0478 -0.0305 -0.0462 -0.0328 -0.0445 -0.0348 -0.0428 -0.037 -0.041 -0.0389 -0.039 -0.0409 -0.0371 -0.0427 -0.0351 -0.0444 -0.0329 -0.0462 -0.0307 -0.0478 -0.0285 -0.0493 -0.0262 -0.0508 -0.0237 -0.0522 -0.0212 -0.0536 -0.0187 -0.0547 -0.0161 -0.056 -0.0133 -0.0571 -0.0106 -0.0581 -0.0077 -0.059 -0.0047 -0.06 -0.0018 -0.0607zm0 0.001l-0.0046 -0.0046 0 -0.001 2.3588 0 0 0.001 -2.3542 0.0046zm-0.0046 -0.0046l2.3588 0 -0.0015 0.061 -0.0046 0.0602 -0.0075 0.0593 -0.0104 0.0584 -0.0131 0.0573 -0.0159 0.0563 -0.0186 0.055 -0.0211 0.0539 -0.0236 0.0525 -0.0261 0.0511 -0.0284 0.0496 -0.0306 0.0481 -0.0329 0.0465 -0.035 0.0448 -0.0371 0.043 -0.0391 0.0412 -0.0409 0.0392 -0.0428 0.0373 -0.0446 0.0352 -0.0462 0.033 -0.0479 0.0309 -0.0494 0.0285 -0.0508 0.0262 -0.0523 0.0237 -0.0535 0.0213 -0.0548 0.0186 -0.056 0.016 -0.057 0.0132 -0.0581 0.0104 -0.059 0.0076 -0.0599 0.0046 -0.0607 0.0015 -0.0607 -0.0015 -0.0599 -0.0046 -0.059 -0.0076 -0.0581 -0.0104 -0.057 -0.0132 -0.056 -0.016 -0.0548 -0.0186 -0.0535 -0.0213 -0.0523 -0.0237 -0.0508 -0.0262 -0.0494 -0.0285 -0.0479 -0.0309 -0.0462 -0.033 -0.0446 -0.0352 -0.0428 -0.0373 -0.0409 -0.0392 -0.0391 -0.0412 -0.0371 -0.043 -0.035 -0.0448 -0.0329 -0.0465 -0.0306 -0.0481 -0.0284 -0.0496 -0.0261 -0.0511 -0.0236 -0.0525 -0.0211 -0.0539 -0.0186 -0.055 -0.0159 -0.0563 -0.0131 -0.0573 -0.0104 -0.0584 -0.0075 -0.0593 -0.0046 -0.0602 -0.0015 -0.061zm6.8877 11.6686l-2.2944 -0.5278 0.3133 1.0974 -0.22 -0.2243 -0.2197 -0.2296 -0.2237 -0.2397 -0.2228 -0.2458 -0.2211 -0.2567 -0.2192 -0.2589 -0.217 -0.2753 -0.2189 -0.2782 -0.211 -0.2909 -0.2075 -0.2991 -0.208 -0.3079 -0.2038 -0.317 -0.1943 -0.3311 -0.189 -0.3411 -0.188 -0.3514 -0.1773 -0.3666 -0.1709 -0.3731 -0.1639 -0.3892 -0.1519 -0.4011 -0.1489 -0.4133 -0.1361 -0.4259 -0.1276 -0.4389 -0.1185 -0.4525 -0.1092 -0.4662 -0.0947 -0.4804 -0.0844 -0.495 -0.0738 -0.5099 -0.0627 -0.5254 -0.0513 -0.5365 -0.0347 -0.5572 -0.0224 -0.5693 -0.0097 -0.5861 2.3496 -0.0092 0.0097 0.5305 0.0224 0.5137 0.0347 0.4924 0.0421 0.4809 0.0535 0.4606 0.0646 0.4451 0.0752 0.4302 0.0855 0.4156 0.0908 0.4014 0.1001 0.3875 0.109 0.3741 0.1177 0.3611 0.1213 0.3485 0.1335 0.3363 0.1363 0.3244 0.1431 0.3175 0.1497 0.3018 0.1512 0.2958 0.1614 0.2855 0.1667 0.2755 0.1668 0.2708 0.1712 0.2615 0.1799 0.2529 0.1834 0.2445 0.1819 0.2412 0.1894 0.2291 0.1916 0.2311 0.1935 0.2197 0.195 0.218 0.1961 0.2119 0.2013 0.211 0.2016 0.2057 0.3133 1.0974zm-1.9811 0.5696l1.6678 -1.667 0.0416 0.0442 0.0389 0.0458 0.0362 0.0472 0.0335 0.0486 0.0308 0.0499 0.0281 0.051 0.0254 0.052 0.0228 0.053 0.02 0.0538 0.0173 0.0546 0.0147 0.0551 0.0119 0.0557 0.0093 0.0561 0.0066 0.0564 0.0038 0.0566 0.0012 0.0567 -0.0015 0.0567 -0.0042 0.0566 -0.0068 0.0564 -0.0096 0.056 -0.0123 0.0557 -0.0149 0.055 -0.0177 0.0545 -0.0203 0.0537 -0.023 0.0529 -0.0257 0.0519 -0.0284 0.0508 -0.0311 0.0497 -0.0338 0.0484 -0.0364 0.0471 -0.0392 0.0455 -0.0418 0.044 -0.044 0.0418 -0.0455 0.0391 -0.047 0.0364 -0.0484 0.0336 -0.0496 0.031 -0.0507 0.0283 -0.0518 0.0255 -0.0527 0.0229 -0.0536 0.0201 -0.0543 0.0174 -0.0548 0.0147 -0.0555 0.0121 -0.0558 0.0093 -0.0561 0.0066 -0.0563 0.0039 -0.0564 0.0012 -0.0565 -0.0015 -0.0563 -0.0043 -0.056 -0.0069 -0.0558 -0.0096 -0.0553 -0.0123 -0.0549 -0.015 -0.0541 -0.0178 -0.0535 -0.0204 -0.0526 -0.0231 -0.0516 -0.0259 -0.0506 -0.0285 -0.0494 -0.0312 -0.0482 -0.034 -0.0468 -0.0366 -0.0453 -0.0394 -0.0438 -0.042zm1.7344 1.8217l-2.3496 0.0186 0 0.0092 -0.0011 -0.0928 -0.0004 -0.0929 0.0001 -0.0881 0.0007 -0.0929 0.0014 -0.0928 0.0019 -0.0881 0.0026 -0.0927 0.0031 -0.0928 0.0038 -0.0928 0.0044 -0.0926 0.005 -0.0928 0.0057 -0.0926 0.0063 -0.0927 0.0069 -0.0926 0.0121 -0.088 0.0081 -0.0926 0.0088 -0.0971 0.0095 -0.0879 0.01 -0.0925 0.0153 -0.0925 0.0114 -0.0925 0.012 -0.0923 0.0172 -0.0924 0.0133 -0.0923 0.0139 -0.0924 0.0192 -0.0923 0.0153 -0.0922 0.0159 -0.0922 0.0212 -0.0922 0.0172 -0.0921 0.0225 -0.0922 0.0186 -0.092 2.2944 0.5278 -0.0186 0.0736 -0.0133 0.0736 -0.0172 0.0735 -0.012 0.0738 -0.0159 0.0736 -0.0153 0.0738 -0.01 0.0737 -0.0139 0.0738 -0.0133 0.0739 -0.008 0.0738 -0.012 0.0739 -0.0114 0.0739 -0.0061 0.0739 -0.01 0.0741 -0.0095 0.0785 -0.0088 0.0695 -0.0081 0.074 -0.0029 0.0788 -0.0069 0.074 -0.0063 0.0741 -0.0057 0.0742 -0.005 0.0742 -0.0044 0.0742 -0.0038 0.0742 -0.0031 0.0742 -0.0026 0.0743 -0.0019 0.0789 -0.0014 0.0742 -0.0007 0.0743 -0.0001 0.0789 0.0004 0.0743 0.0011 0.0744 0 0.0092zm-2.3496 0.0278l2.3496 -0.037 -0.0006 0.0608 -0.0036 0.06 -0.0065 0.0592 -0.0095 0.0583 -0.0122 0.0573 -0.015 0.0563 -0.0176 0.0552 -0.0202 0.0539 -0.0227 0.0527 -0.0252 0.0513 -0.0275 0.0499 -0.0298 0.0484 -0.032 0.0468 -0.0342 0.0451 -0.0363 0.0435 -0.0382 0.0416 -0.0402 0.0397 -0.042 0.0378 -0.0439 0.0358 -0.0455 0.0336 -0.0472 0.0315 -0.0488 0.0292 -0.0502 0.0268 -0.0517 0.0245 -0.053 0.022 -0.0543 0.0194 -0.0555 0.0168 -0.0566 0.0141 -0.0577 0.0113 -0.0587 0.0084 -0.0596 0.0055 -0.0604 0.0025 -0.0605 -0.0006 -0.0597 -0.0036 -0.0589 -0.0066 -0.058 -0.0095 -0.0571 -0.0123 -0.056 -0.015 -0.0548 -0.0177 -0.0537 -0.0203 -0.0524 -0.0228 -0.0511 -0.0253 -0.0496 -0.0277 -0.0482 -0.0299 -0.0466 -0.0322 -0.0449 -0.0344 -0.0432 -0.0364 -0.0414 -0.0385 -0.0396 -0.0404 -0.0375 -0.0422 -0.0356 -0.0441 -0.0335 -0.0458 -0.0313 -0.0474 -0.0291 -0.049 -0.0267 -0.0505 -0.0243 -0.0519 -0.0219 -0.0533 -0.0193 -0.0546 -0.0167 -0.0557 -0.014 -0.0569 -0.0113 -0.058 -0.0084 -0.059 -0.0054 -0.0599 -0.0025 -0.0607zm16.4936 21.4597l1.4282 1.8798 -1.4282 0 -0.5823 -0.4507 -0.607 -0.4801 -0.6291 -0.4996 -0.6396 -0.5271 -0.6521 -0.5495 -0.6621 -0.571 -0.6743 -0.5914 -0.6747 -0.6113 -0.6818 -0.6349 -0.6774 -0.6482 -0.6794 -0.6701 -0.6745 -0.6866 -0.667 -0.7068 -0.6618 -0.7169 -0.6447 -0.7354 -0.6343 -0.7486 -0.6123 -0.7653 -0.597 -0.7769 -0.5745 -0.7872 -0.5496 -0.8017 -0.5267 -0.8152 -0.4923 -0.8233 -0.4644 -0.8352 -0.4249 -0.846 -0.3921 -0.8563 -0.3475 -0.8657 -0.3051 -0.8741 -0.2603 -0.8818 -0.2082 -0.8887 -0.1582 -0.8946 -0.1013 -0.8998 -0.0371 -0.9087 2.3496 -0.0186 0.0371 0.7421 0.0829 0.7516 0.1306 0.7558 0.1806 0.7589 0.2233 0.7614 0.2683 0.7631 0.3107 0.7637 0.3459 0.7637 0.3881 0.7628 0.4184 0.761 0.4553 0.7585 0.4807 0.7504 0.5128 0.7461 0.5377 0.741 0.56 0.7305 0.5847 0.7191 0.5975 0.7114 0.6171 0.6984 0.6248 0.6891 0.6394 0.6698 0.6469 0.6588 0.6518 0.6423 0.6588 0.6298 0.6542 0.6071 0.6563 0.5927 0.6467 0.573 0.6437 0.5524 0.6337 0.5309 0.621 0.5087 0.6015 0.4902 0.5886 0.4617 0.5731 0.4415 -1.4282 0zm0 1.8798l1.4282 -1.8798 0.0472 0.0381 0.0447 0.0401 0.0423 0.0419 0.0397 0.0436 0.0373 0.0452 0.0348 0.0468 0.0322 0.0481 0.0297 0.0494 0.0271 0.0506 0.0245 0.0517 0.022 0.0527 0.0194 0.0536 0.0167 0.0543 0.0141 0.0551 0.0115 0.0555 0.0089 0.0561 0.0061 0.0564 0.0035 0.0567 0.0008 0.0568 -0.0019 0.0568 -0.0047 0.0568 -0.0073 0.0567 -0.0102 0.0564 -0.0129 0.056 -0.0157 0.0555 -0.0184 0.055 -0.0213 0.0542 -0.0241 0.0535 -0.0269 0.0526 -0.0298 0.0516 -0.0327 0.0505 -0.0355 0.0493 -0.038 0.0474 -0.0398 0.045 -0.0417 0.0424 -0.0434 0.04 -0.045 0.0375 -0.0465 0.0349 -0.0479 0.0324 -0.0491 0.0298 -0.0504 0.0273 -0.0514 0.0246 -0.0525 0.0221 -0.0533 0.0195 -0.054 0.0168 -0.0548 0.0142 -0.0553 0.0116 -0.0558 0.0088 -0.0561 0.0062 -0.0564 0.0035 -0.0565 0.0008 -0.0566 -0.0019 -0.0565 -0.0047 -0.0564 -0.0074 -0.0561 -0.0102 -0.0557 -0.0129 -0.0552 -0.0158 -0.0547 -0.0186 -0.054 -0.0214 -0.0532 -0.0242 -0.0524 -0.0271 -0.0513 -0.0299 -0.0503 -0.0328 -0.049 -0.0357zm15.5722 -23.3765l2.3496 0.037 0 -0.0092 -0.0371 0.9087 -0.1013 0.8998 -0.1582 0.8946 -0.2082 0.8887 -0.2603 0.8818 -0.3051 0.8741 -0.3475 0.8657 -0.3921 0.8563 -0.4249 0.846 -0.4644 0.8352 -0.4923 0.8233 -0.5267 0.8152 -0.5496 0.8017 -0.5745 0.7872 -0.597 0.7769 -0.6123 0.7653 -0.6343 0.7486 -0.6447 0.7354 -0.6618 0.7169 -0.667 0.7068 -0.6745 0.6866 -0.6794 0.6701 -0.6774 0.6482 -0.6818 0.6349 -0.6747 0.6113 -0.6743 0.5914 -0.6621 0.571 -0.6521 0.5495 -0.6396 0.5271 -0.6291 0.4996 -0.607 0.4801 -0.5823 0.4507 -1.4282 -1.8798 0.5731 -0.4415 0.5886 -0.4617 0.6015 -0.4902 0.621 -0.5087 0.6337 -0.5309 0.6437 -0.5524 0.6467 -0.573 0.6563 -0.5927 0.6542 -0.6071 0.6588 -0.6298 0.6518 -0.6423 0.6469 -0.6588 0.6394 -0.6698 0.6248 -0.6891 0.6171 -0.6984 0.5975 -0.7114 0.5847 -0.7191 0.56 -0.7305 0.5377 -0.741 0.5128 -0.7461 0.4807 -0.7504 0.4553 -0.7585 0.4184 -0.761 0.3881 -0.7628 0.3459 -0.7637 0.3107 -0.7637 0.2683 -0.7631 0.2233 -0.7614 0.1806 -0.7589 0.1306 -0.7558 0.0829 -0.7516 0.0371 -0.7421 0 -0.0092zm2.3496 0.0278l-2.3496 -0.0186 0.002 -0.0607 0.005 -0.06 0.0079 -0.059 0.0108 -0.058 0.0136 -0.0571 0.0162 -0.0559 0.0189 -0.0547 0.0215 -0.0534 0.0239 -0.0521 0.0263 -0.0507 0.0287 -0.0492 0.031 -0.0477 0.0331 -0.046 0.0352 -0.0444 0.0373 -0.0425 0.0392 -0.0407 0.0411 -0.0388 0.0429 -0.0368 0.0447 -0.0347 0.0463 -0.0325 0.0479 -0.0304 0.0494 -0.028 0.0509 -0.0257 0.0522 -0.0232 0.0535 -0.0207 0.0547 -0.0182 0.0559 -0.0154 0.057 -0.0128 0.0579 -0.0099 0.0588 -0.007 0.0597 -0.0041 0.0605 -0.0011 0.0604 0.002 0.0597 0.005 0.0587 0.008 0.0578 0.0109 0.0567 0.0136 0.0556 0.0163 0.0545 0.019 0.0531 0.0216 0.0519 0.0241 0.0504 0.0264 0.049 0.0289 0.0474 0.0311 0.0458 0.0332 0.0441 0.0354 0.0424 0.0375 0.0405 0.0394 0.0386 0.0413 0.0365 0.0432 0.0346 0.0448 0.0324 0.0466 0.0301 0.0481 0.028 0.0497 0.0255 0.0511 0.0231 0.0525 0.0206 0.0538 0.0181 0.055 0.0154 0.0562 0.0127 0.0572 0.0098 0.0582 0.0071 0.0591 0.004 0.06 0.0011 0.0608zm-2.283 -3.5073l1.6678 1.667 0.3133 -1.0974 0.0186 0.092 0.0225 0.0922 0.0172 0.0921 0.0212 0.0922 0.0159 0.0922 0.0153 0.0922 0.0192 0.0923 0.0139 0.0924 0.0133 0.0923 0.0172 0.0924 0.012 0.0923 0.0114 0.0925 0.0153 0.0925 0.01 0.0925 0.0095 0.0879 0.0088 0.0971 0.0081 0.0926 0.0121 0.088 0.0069 0.0926 0.0063 0.0927 0.0057 0.0926 0.005 0.0928 0.0044 0.0926 0.0038 0.0928 0.0031 0.0928 0.0026 0.0927 0.0019 0.0881 0.0014 0.0928 0.0007 0.0929 0.0001 0.0881 -0.0004 0.0929 -0.0011 0.0928 -2.3496 -0.037 0.0011 -0.0744 0.0004 -0.0743 -0.0001 -0.0789 -0.0007 -0.0743 -0.0014 -0.0742 -0.0019 -0.0789 -0.0026 -0.0743 -0.0031 -0.0742 -0.0038 -0.0742 -0.0044 -0.0742 -0.005 -0.0742 -0.0057 -0.0742 -0.0063 -0.0741 -0.0069 -0.074 -0.0029 -0.0788 -0.0081 -0.074 -0.0088 -0.0695 -0.0095 -0.0785 -0.01 -0.0741 -0.0061 -0.0739 -0.0114 -0.0739 -0.012 -0.0739 -0.008 -0.0738 -0.0133 -0.0739 -0.0139 -0.0738 -0.01 -0.0737 -0.0153 -0.0738 -0.0159 -0.0736 -0.012 -0.0738 -0.0172 -0.0735 -0.0133 -0.0736 -0.0186 -0.0736 0.3133 -1.0974zm1.9811 0.5696l-2.2944 0.5278 -0.012 -0.0597 -0.0089 -0.0595 -0.0059 -0.0594 -0.0028 -0.0591 0.0001 -0.0587 0.003 -0.0583 0.0058 -0.0577 0.0087 -0.0571 0.0113 -0.0563 0.014 -0.0556 0.0166 -0.0546 0.0192 -0.0537 0.0217 -0.0525 0.0242 -0.0514 0.0265 -0.0501 0.0289 -0.0488 0.0311 -0.0474 0.0334 -0.0458 0.0355 -0.0442 0.0377 -0.0425 0.0397 -0.0407 0.0417 -0.0388 0.0437 -0.0368 0.0455 -0.0348 0.0474 -0.0326 0.0492 -0.0304 0.0509 -0.0281 0.0526 -0.0256 0.0541 -0.0231 0.0558 -0.0206 0.0572 -0.0178 0.0587 -0.0151 0.0594 -0.0121 0.0592 -0.0089 0.0591 -0.0059 0.0588 -0.0028 0.0584 0.0001 0.058 0.003 0.0575 0.0058 0.0567 0.0087 0.0561 0.0114 0.0553 0.0141 0.0544 0.0167 0.0533 0.0193 0.0523 0.0218 0.0512 0.0242 0.0498 0.0267 0.0486 0.029 0.0471 0.0313 0.0456 0.0335 0.044 0.0358 0.0422 0.0378 0.0405 0.0399 0.0387 0.0419 0.0366 0.0439 0.0346 0.0458 0.0325 0.0476 0.0302 0.0494 0.028 0.0512 0.0255 0.0528 0.023 0.0545 0.0204 0.056 0.0178 0.0575 0.015 0.059zm2.2345 -11.1408l2.3588 0 -0.0046 0.0046 -0.0097 0.5861 -0.0224 0.5693 -0.0347 0.5572 -0.0513 0.5365 -0.0627 0.5254 -0.0738 0.5099 -0.0844 0.495 -0.0947 0.4804 -0.1092 0.4662 -0.1185 0.4525 -0.1276 0.4389 -0.1361 0.4259 -0.1489 0.4133 -0.1519 0.4011 -0.1639 0.3892 -0.1709 0.3731 -0.1773 0.3666 -0.188 0.3514 -0.189 0.3411 -0.1943 0.3311 -0.2038 0.317 -0.208 0.3079 -0.2075 0.2991 -0.211 0.2909 -0.2189 0.2782 -0.217 0.2753 -0.2192 0.2589 -0.2211 0.2567 -0.2228 0.2458 -0.2237 0.2397 -0.2197 0.2296 -0.22 0.2243 -1.6678 -1.667 0.2016 -0.2057 0.2013 -0.211 0.1961 -0.2119 0.195 -0.218 0.1935 -0.2197 0.1916 -0.2311 0.1894 -0.2291 0.1819 -0.2412 0.1834 -0.2445 0.1799 -0.2529 0.1712 -0.2615 0.1668 -0.2708 0.1667 -0.2755 0.1614 -0.2855 0.1512 -0.2958 0.1497 -0.3018 0.1431 -0.3175 0.1363 -0.3244 0.1335 -0.3363 0.1213 -0.3485 0.1177 -0.3611 0.109 -0.3741 0.1001 -0.3875 0.0908 -0.4014 0.0855 -0.4156 0.0752 -0.4302 0.0646 -0.4451 0.0535 -0.4606 0.0421 -0.4809 0.0347 -0.4924 0.0224 -0.5137 0.0097 -0.5305 -0.0046 0.0046zm2.3542 0.0046l-2.3496 -0.0092 0.0018 -0.0607 0.0047 -0.06 0.0077 -0.059 0.0106 -0.0581 0.0133 -0.0571 0.0161 -0.056 0.0187 -0.0547 0.0212 -0.0536 0.0237 -0.0522 0.0262 -0.0508 0.0285 -0.0493 0.0307 -0.0478 0.0329 -0.0462 0.0351 -0.0444 0.0371 -0.0427 0.039 -0.0409 0.041 -0.0389 0.0428 -0.037 0.0445 -0.0348 0.0462 -0.0328 0.0478 -0.0305 0.0493 -0.0283 0.0507 -0.0258 0.0522 -0.0235 0.0534 -0.0209 0.0546 -0.0184 0.0559 -0.0157 0.0568 -0.0129 0.0579 -0.0102 0.0589 -0.0073 0.0596 -0.0043 0.0605 -0.0013 0.0604 0.0018 0.0597 0.0048 0.0588 0.0077 0.0578 0.0106 0.0567 0.0134 0.0557 0.0161 0.0545 0.0188 0.0533 0.0214 0.052 0.0238 0.0505 0.0263 0.0491 0.0286 0.0475 0.0309 0.046 0.0331 0.0442 0.0353 0.0425 0.0372 0.0406 0.0393 0.0388 0.0411 0.0367 0.043 0.0347 0.0448 0.0326 0.0464 0.0304 0.048 0.0281 0.0496 0.0257 0.051 0.0233 0.0524 0.0209 0.0537 0.0182 0.0549 0.0156 0.0561 0.0129 0.0572 0.0102 0.0582 0.0072 0.0591 0.0043 0.0599 0.0013 0.0608zm-2.3496 -0.0102l2.3542 0.0046 0 0.001 -2.3588 0 0 -0.001 0.0046 -0.0046zm2.3542 0.0046l-2.3588 0 0.0015 -0.061 0.0046 -0.0602 0.0075 -0.0593 0.0104 -0.0584 0.0131 -0.0573 0.0159 -0.0563 0.0186 -0.055 0.0211 -0.0539 0.0236 -0.0525 0.0261 -0.0511 0.0284 -0.0496 0.0306 -0.0481 0.0329 -0.0465 0.035 -0.0448 0.0371 -0.043 0.0391 -0.0412 0.0409 -0.0392 0.0428 -0.0373 0.0446 -0.0352 0.0462 -0.033 0.0479 -0.0309 0.0494 -0.0285 0.0508 -0.0262 0.0523 -0.0237 0.0535 -0.0213 0.0548 -0.0186 0.056 -0.016 0.057 -0.0132 0.0581 -0.0104 0.059 -0.0076 0.0599 -0.0046 0.0607 -0.0015 0.0607 0.0015 0.0599 0.0046 0.059 0.0076 0.0581 0.0104 0.057 0.0132 0.056 0.016 0.0548 0.0186 0.0535 0.0213 0.0523 0.0237 0.0508 0.0262 0.0494 0.0285 0.0479 0.0309 0.0462 0.033 0.0446 0.0352 0.0428 0.0373 0.0409 0.0392 0.0391 0.0412 0.0371 0.043 0.035 0.0448 0.0329 0.0465 0.0306 0.0481 0.0284 0.0496 0.0261 0.0511 0.0236 0.0525 0.0211 0.0539 0.0186 0.055 0.0159 0.0563 0.0131 0.0573 0.0104 0.0584 0.0075 0.0593 0.0046 0.0602 0.0015 0.061zm-2.3545 -0.3257l2.3496 -0.0092 0 0 0.0001 0.0104 0 0.0104 0.0001 0.0057 0.0001 0.0151 0 0.0104 0.0001 0.0104 0 0.0103 0.0001 0.0104 0.0046 0.015 -0.0046 0.0057 0.0001 0.0104 0.0046 0.0149 0 0.0104 -0.0046 0.0057 0.0001 0.0103 0.0046 0.015 0 0.0103 0 0.0103 0 0.0103 0 0.0103 0 0.0103 -0.0046 0.0149 -0.0001 0.0103 0.0046 0.0057 0 0.0102 -0.0046 0.0149 -0.0001 0.0103 0.0046 0.0056 -0.0046 0.0149 -0.0001 0.0102 0 0.0103 -0.0001 0.0102 -2.3496 -0.0092 0.0001 -0.0102 0 -0.0103 0.0001 -0.0102 -0.0046 -0.0057 0.0046 -0.0148 0.0001 -0.0103 -0.0046 -0.0057 0 -0.0102 0.0046 -0.0149 0.0001 -0.0103 -0.0046 -0.0057 0 -0.0103 0 -0.0103 0 -0.0103 0 -0.0103 0 -0.0103 0.0046 -0.0058 -0.0001 -0.0103 -0.0046 -0.0149 0 -0.0104 0.0046 -0.0057 -0.0001 -0.0104 -0.0046 -0.0149 0.0046 -0.0058 -0.0001 -0.0104 0 -0.0103 -0.0001 -0.0104 0 -0.0104 -0.0001 -0.0057 -0.0001 -0.0151 0 -0.0104 -0.0001 -0.0104 0 0zm2.3496 -0.0092l-2.3496 0.0092 0.0013 -0.0608 0.0043 -0.0599 0.0072 -0.0591 0.0102 -0.0582 0.0129 -0.0572 0.0156 -0.0561 0.0182 -0.0549 0.0209 -0.0537 0.0233 -0.0524 0.0257 -0.051 0.0281 -0.0496 0.0304 -0.048 0.0326 -0.0464 0.0347 -0.0448 0.0367 -0.043 0.0388 -0.0411 0.0406 -0.0393 0.0425 -0.0372 0.0442 -0.0353 0.046 -0.0331 0.0475 -0.0309 0.0491 -0.0286 0.0505 -0.0263 0.052 -0.0238 0.0533 -0.0214 0.0545 -0.0188 0.0557 -0.0161 0.0567 -0.0134 0.0578 -0.0106 0.0588 -0.0077 0.0597 -0.0048 0.0604 -0.0018 0.0605 0.0013 0.0596 0.0043 0.0589 0.0073 0.0579 0.0102 0.0568 0.0129 0.0559 0.0157 0.0546 0.0184 0.0534 0.0209 0.0522 0.0235 0.0507 0.0258 0.0493 0.0283 0.0478 0.0305 0.0462 0.0328 0.0445 0.0348 0.0428 0.037 0.041 0.0389 0.039 0.0409 0.0371 0.0427 0.0351 0.0444 0.0329 0.0462 0.0307 0.0478 0.0285 0.0493 0.0262 0.0508 0.0237 0.0522 0.0212 0.0536 0.0187 0.0547 0.0161 0.056 0.0133 0.0571 0.0106 0.0581 0.0077 0.059 0.0047 0.06 0.0018 0.0607zm-0.3335 -3.4834l-2.2574 -0.6668 2.2943 0.176 0.0174 0.1346 0.0168 0.1339 0.0208 0.1333 0.0157 0.1325 0.0151 0.1318 0.0145 0.1312 0.014 0.1258 0.0135 0.1343 0.0128 0.129 0.0124 0.1238 0.0118 0.1323 0.0112 0.1224 0.0154 0.1262 0.0101 0.1257 0.0097 0.1249 0.0091 0.1243 0.0086 0.1236 0.0081 0.1275 0.0075 0.1223 0.0071 0.1217 0.0065 0.1209 0.006 0.1202 0.0055 0.1197 0.005 0.119 0.0045 0.1183 0.004 0.1177 0.0034 0.117 0.003 0.1164 0.0025 0.1157 0.002 0.1152 0.0016 0.1145 0.001 0.1185 -2.3496 0.0092 -0.001 -0.0999 -0.0016 -0.1053 -0.002 -0.1058 -0.0025 -0.1065 -0.003 -0.1072 -0.0034 -0.1078 -0.004 -0.1083 -0.0045 -0.1091 -0.005 -0.1098 -0.0055 -0.1103 -0.006 -0.111 -0.0065 -0.1117 -0.0071 -0.1123 -0.0075 -0.1131 -0.0081 -0.1091 -0.0086 -0.1142 -0.0091 -0.1151 -0.0097 -0.1157 -0.0101 -0.1163 -0.0062 -0.117 -0.0112 -0.1224 -0.0118 -0.1137 -0.0124 -0.1238 -0.0128 -0.1198 -0.0135 -0.1159 -0.014 -0.1258 -0.0145 -0.1218 -0.0151 -0.1226 -0.0157 -0.1233 -0.0116 -0.1239 -0.0168 -0.1247 -0.0174 -0.1254 2.2943 0.176zm0.0369 -0.4908l-2.3312 0.3148 -0.0065 -0.0605 -0.0035 -0.0601 -0.0004 -0.0596 0.0025 -0.0591 0.0055 -0.0584 0.0083 -0.0577 0.011 -0.057 0.0138 -0.056 0.0164 -0.055 0.019 -0.054 0.0215 -0.0529 0.024 -0.0516 0.0263 -0.0503 0.0287 -0.0489 0.031 -0.0475 0.0331 -0.0459 0.0353 -0.0442 0.0374 -0.0426 0.0394 -0.0407 0.0413 -0.0388 0.0432 -0.0369 0.045 -0.0348 0.0468 -0.0327 0.0485 -0.0304 0.0502 -0.0281 0.0517 -0.0257 0.0531 -0.0233 0.0547 -0.0207 0.056 -0.018 0.0573 -0.0154 0.0586 -0.0125 0.0598 -0.0096 0.0602 -0.0066 0.0598 -0.0034 0.0593 -0.0005 0.0588 0.0026 0.0581 0.0055 0.0574 0.0083 0.0567 0.0111 0.0557 0.0138 0.0548 0.0165 0.0537 0.0191 0.0526 0.0216 0.0513 0.0241 0.0501 0.0265 0.0487 0.0288 0.0472 0.0311 0.0457 0.0333 0.044 0.0355 0.0423 0.0376 0.0406 0.0396 0.0386 0.0415 0.0367 0.0434 0.0346 0.0453 0.0325 0.047 0.0303 0.0488 0.028 0.0504 0.0256 0.0519 0.0231 0.0535 0.0206 0.0549 0.0179 0.0563 0.0153 0.0576 0.0124 0.0589 0.0096 0.0601zm-10.2447 10.5354l1.3268 -1.954 -1.0366 -0.1435 0.2268 -0.0803 0.2385 -0.0866 0.2403 -0.089 0.2416 -0.0967 0.247 -0.1053 0.2515 -0.1143 0.2512 -0.1196 0.2547 -0.1303 0.2575 -0.1416 0.26 -0.1489 0.2569 -0.1618 0.2583 -0.1706 0.2632 -0.1894 0.2588 -0.1951 0.258 -0.2153 0.2569 -0.227 0.2596 -0.244 0.2526 -0.2573 0.2542 -0.2757 0.2506 -0.2949 0.2465 -0.3149 0.2462 -0.3309 0.2363 -0.3567 0.2395 -0.3743 0.2284 -0.3972 0.2259 -0.4251 0.2181 -0.4448 0.2142 -0.4698 0.2009 -0.4999 0.2005 -0.5218 0.1858 -0.5535 0.1797 -0.5813 2.2574 0.6668 -0.1981 0.6461 -0.2134 0.6183 -0.2189 0.5958 -0.2377 0.5649 -0.242 0.5438 -0.2549 0.5188 -0.2627 0.4901 -0.2744 0.4712 -0.2765 0.4483 -0.2915 0.4217 -0.2924 0.4049 -0.3017 0.3797 -0.3058 0.3597 -0.3096 0.3405 -0.317 0.3221 -0.315 0.2996 -0.3213 0.2826 -0.3226 0.2617 -0.3232 0.2505 -0.3186 0.2266 -0.3227 0.2168 -0.3215 0.1988 -0.3152 0.1861 -0.3129 0.1692 -0.3099 0.1581 -0.3064 0.1474 -0.2977 0.1329 -0.293 0.1237 -0.2876 0.1153 -0.2773 0.1076 -0.2661 0.0958 -0.2636 0.0895 -1.0366 -0.1435zm0.2902 -2.0975l0.7464 2.241 -0.0579 0.0178 -0.058 0.0148 -0.0582 0.0116 -0.0582 0.0086 -0.0581 0.0056 -0.0579 0.0027 -0.0577 -0.0001 -0.0573 -0.0031 -0.0568 -0.0058 -0.0564 -0.0086 -0.0556 -0.0113 -0.055 -0.0139 -0.0541 -0.0165 -0.0532 -0.0191 -0.0522 -0.0216 -0.0511 -0.0241 -0.0498 -0.0265 -0.0486 -0.0288 -0.0472 -0.0312 -0.0457 -0.0335 -0.0442 -0.0357 -0.0424 -0.0379 -0.0408 -0.04 -0.0388 -0.0422 -0.0369 -0.0441 -0.0349 -0.0462 -0.0327 -0.0481 -0.0305 -0.05 -0.0282 -0.0519 -0.0258 -0.0537 -0.0232 -0.0554 -0.0207 -0.0572 -0.0178 -0.0581 -0.0146 -0.0584 -0.0116 -0.0585 -0.0086 -0.0584 -0.0056 -0.0584 -0.0026 -0.0583 0.0001 -0.0579 0.0031 -0.0576 0.0058 -0.0572 0.0085 -0.0566 0.0112 -0.0559 0.0139 -0.0552 0.0164 -0.0544 0.019 -0.0535 0.0215 -0.0525 0.024 -0.0513 0.0263 -0.0501 0.0288 -0.0488 0.031 -0.0475 0.0333 -0.0459 0.0355 -0.0444 0.0377 -0.0427 0.0399 -0.0409 0.0419 -0.0391 0.0439 -0.0371 0.046 -0.035 0.0478 -0.0329 0.0498 -0.0307 0.0516 -0.0283 0.0534 -0.0259 0.0552 -0.0233 0.0569 -0.0208zm-4.591 0.6408l0.129 -2.3614 0 0 0.1924 0.0112 0.1959 0.0188 0.1899 0.0171 0.1888 0.0199 0.1921 0.0274 0.1862 0.0302 0.1849 0.0284 0.1882 0.0357 0.1824 0.0384 0.181 0.0411 0.1842 0.0438 0.1784 0.0463 0.1769 0.049 0.1756 0.0562 0.1788 0.054 0.1728 0.0567 0.1714 0.0636 0.1699 0.0615 0.1686 0.0685 0.167 0.0709 0.1656 0.0686 0.1642 0.0756 0.1626 0.0778 0.1611 0.0802 0.1596 0.0824 0.1536 0.0845 0.1565 0.0867 0.155 0.0888 0.1488 0.091 0.1519 0.0931 0.1457 0.0996 0.1486 0.0971 -1.3268 1.954 -0.1118 -0.0785 -0.1181 -0.072 -0.1149 -0.0745 -0.1212 -0.0724 -0.1182 -0.0704 -0.1197 -0.0681 -0.1258 -0.0661 -0.1228 -0.0638 -0.1243 -0.0616 -0.1258 -0.0594 -0.1272 -0.057 -0.1288 -0.0594 -0.1302 -0.0523 -0.1316 -0.0501 -0.1331 -0.0521 -0.1346 -0.0452 -0.136 -0.0473 -0.1326 -0.0448 -0.1388 -0.0376 -0.1401 -0.0398 -0.1414 -0.0371 -0.1382 -0.0346 -0.1442 -0.0317 -0.1454 -0.0292 -0.1422 -0.0265 -0.1481 -0.0284 -0.1494 -0.0208 -0.1459 -0.0182 -0.152 -0.0199 -0.1531 -0.0171 -0.1497 -0.0096 -0.1556 -0.0112 0 0zm-7.5966 3.2368l1.889 -1.4076 -1.889 0 0.1836 -0.2449 0.1858 -0.2388 0.1881 -0.2326 0.1951 -0.2263 0.1975 -0.2198 0.1998 -0.218 0.2022 -0.2067 0.2094 -0.2045 0.2118 -0.1933 0.2143 -0.1908 0.217 -0.1792 0.224 -0.1768 0.2314 -0.1648 0.2294 -0.1623 0.2366 -0.1501 0.2395 -0.1472 0.2468 -0.135 0.2449 -0.1274 0.2524 -0.1148 0.2597 -0.1115 0.2582 -0.099 0.2655 -0.0908 0.2686 -0.0825 0.2716 -0.0696 0.279 -0.0612 0.2777 -0.0527 0.2852 -0.0395 0.2837 -0.0353 0.287 -0.0173 0.2947 -0.0083 0.2886 0.0006 0.2965 0.0098 -0.129 2.3614 -0.2135 -0.0098 -0.215 -0.0006 -0.2025 0.0083 -0.204 0.0173 -0.2009 0.0169 -0.193 0.0301 -0.1947 0.0343 -0.187 0.0426 -0.1886 0.0512 -0.1856 0.0547 -0.1827 0.063 -0.1844 0.0712 -0.1769 0.0745 -0.1786 0.087 -0.1805 0.0902 -0.173 0.098 -0.1749 0.101 -0.1722 0.1131 -0.1742 0.1159 -0.1668 0.1278 -0.1688 0.1304 -0.1708 0.1422 -0.1683 0.1446 -0.1658 0.1561 -0.1632 0.1583 -0.1654 0.1697 -0.163 0.1716 -0.1605 0.1828 -0.1583 0.1893 -0.1605 0.1954 -0.1582 0.2018 -0.1558 0.2079 -1.889 0zm0 -1.4076l1.889 1.4076 -0.0373 0.0479 -0.0392 0.0455 -0.041 0.043 -0.0428 0.0406 -0.0444 0.038 -0.046 0.0356 -0.0474 0.033 -0.0487 0.0305 -0.0499 0.028 -0.0511 0.0254 -0.052 0.0228 -0.053 0.0202 -0.0538 0.0176 -0.0545 0.0149 -0.0551 0.0123 -0.0556 0.0097 -0.056 0.007 -0.0563 0.0043 -0.0565 0.0016 -0.0565 -0.0012 -0.0566 -0.0038 -0.0564 -0.0066 -0.0562 -0.0094 -0.0558 -0.0122 -0.0555 -0.0149 -0.0549 -0.0178 -0.0542 -0.0206 -0.0535 -0.0235 -0.0527 -0.0263 -0.0517 -0.0292 -0.0507 -0.032 -0.0495 -0.035 -0.0477 -0.0374 -0.0452 -0.0394 -0.0429 -0.0413 -0.0403 -0.043 -0.0379 -0.0446 -0.0354 -0.0462 -0.0328 -0.0477 -0.0304 -0.0489 -0.0278 -0.0502 -0.0253 -0.0513 -0.0226 -0.0523 -0.0201 -0.0533 -0.0176 -0.054 -0.0148 -0.0548 -0.0123 -0.0554 -0.0096 -0.0559 -0.007 -0.0562 -0.0042 -0.0566 -0.0016 -0.0567 0.0011 -0.0569 0.0038 -0.0568 0.0066 -0.0567 0.0094 -0.0565 0.0121 -0.0561 0.0149 -0.0557 0.0176 -0.0552 0.0205 -0.0545 0.0234 -0.0538 0.0261 -0.0529 0.0291 -0.052 0.0319 -0.0509 0.0348 -0.0498zm-5.7076 -1.8292l-0.129 -2.3614 0 0 0.2965 -0.0098 0.2886 -0.0006 0.2947 0.0083 0.287 0.0173 0.2837 0.0353 0.2852 0.0395 0.2777 0.0527 0.279 0.0612 0.2716 0.0696 0.2686 0.0825 0.2655 0.0908 0.2582 0.099 0.2597 0.1115 0.2524 0.1148 0.2449 0.1274 0.2468 0.135 0.2395 0.1472 0.2366 0.1501 0.2294 0.1623 0.2314 0.1648 0.224 0.1768 0.217 0.1792 0.2143 0.1908 0.2118 0.1933 0.2094 0.2045 0.2022 0.2067 0.1998 0.218 0.1975 0.2198 0.1951 0.2263 0.1881 0.2326 0.1858 0.2388 0.1836 0.2449 -1.889 1.4076 -0.1558 -0.2079 -0.1582 -0.2018 -0.1605 -0.1954 -0.1583 -0.1893 -0.1605 -0.1828 -0.163 -0.1716 -0.1654 -0.1697 -0.1632 -0.1583 -0.1658 -0.1561 -0.1683 -0.1446 -0.1708 -0.1422 -0.1688 -0.1304 -0.1668 -0.1278 -0.1742 -0.1159 -0.1722 -0.1131 -0.1749 -0.101 -0.173 -0.098 -0.1805 -0.0902 -0.1786 -0.087 -0.1769 -0.0745 -0.1844 -0.0712 -0.1827 -0.063 -0.1856 -0.0547 -0.1886 -0.0512 -0.187 -0.0426 -0.1947 -0.0343 -0.193 -0.0301 -0.2009 -0.0169 -0.204 -0.0173 -0.2025 -0.0083 -0.215 0.0006 -0.2135 0.0098 0 0zm-5.3374 1.6002l0.7464 -2.241 -1.0366 0.1435 0.1486 -0.0971 0.1457 -0.0996 0.1519 -0.0931 0.1488 -0.091 0.155 -0.0888 0.1565 -0.0867 0.1536 -0.0845 0.1596 -0.0824 0.1611 -0.0802 0.1626 -0.0778 0.1642 -0.0756 0.1656 -0.0686 0.167 -0.0709 0.1686 -0.0685 0.1699 -0.0615 0.1714 -0.0636 0.1728 -0.0567 0.1788 -0.054 0.1756 -0.0562 0.1769 -0.049 0.1784 -0.0463 0.1842 -0.0438 0.181 -0.0411 0.1824 -0.0384 0.1882 -0.0357 0.1849 -0.0284 0.1862 -0.0302 0.1921 -0.0274 0.1888 -0.0199 0.1899 -0.0171 0.1959 -0.0188 0.1924 -0.0112 0.129 2.3614 -0.1556 0.0112 -0.1497 0.0096 -0.1531 0.0171 -0.152 0.0199 -0.1459 0.0182 -0.1494 0.0208 -0.1481 0.0284 -0.1422 0.0265 -0.1454 0.0292 -0.1442 0.0317 -0.1382 0.0346 -0.1414 0.0371 -0.1401 0.0398 -0.1388 0.0376 -0.1326 0.0448 -0.136 0.0473 -0.1346 0.0452 -0.1331 0.0521 -0.1316 0.0501 -0.1302 0.0523 -0.1288 0.0594 -0.1272 0.057 -0.1258 0.0594 -0.1243 0.0616 -0.1228 0.0638 -0.1258 0.0661 -0.1197 0.0681 -0.1182 0.0704 -0.1212 0.0724 -0.1149 0.0745 -0.1181 0.072 -0.1118 0.0785 -1.0366 0.1435zm-0.2902 -2.0975l1.3268 1.954 -0.0509 0.033 -0.0519 0.0301 -0.0529 0.0272 -0.0537 0.0242 -0.0544 0.0214 -0.0551 0.0184 -0.0556 0.0156 -0.056 0.0128 -0.0563 0.01 -0.0566 0.0072 -0.0567 0.0044 -0.0567 0.0016 -0.0566 -0.0011 -0.0564 -0.0038 -0.0562 -0.0065 -0.0557 -0.0092 -0.0552 -0.0119 -0.0546 -0.0145 -0.054 -0.0171 -0.0531 -0.0197 -0.0522 -0.0223 -0.0512 -0.0248 -0.0501 -0.0274 -0.0488 -0.03 -0.0475 -0.0324 -0.0461 -0.0349 -0.0446 -0.0374 -0.043 -0.0398 -0.0412 -0.0422 -0.0394 -0.0447 -0.0374 -0.047 -0.0354 -0.0494 -0.0329 -0.0511 -0.0299 -0.0522 -0.027 -0.0532 -0.0241 -0.0539 -0.0213 -0.0547 -0.0183 -0.0554 -0.0156 -0.0559 -0.0127 -0.0563 -0.0099 -0.0566 -0.0071 -0.0569 -0.0044 -0.0569 -0.0016 -0.057 0.0011 -0.0569 0.0038 -0.0567 0.0064 -0.0564 0.0092 -0.056 0.0118 -0.0555 0.0144 -0.055 0.017 -0.0542 0.0196 -0.0533 0.0222 -0.0525 0.0248 -0.0515 0.0272 -0.0503 0.0298 -0.0491 0.0323 -0.0478 0.0347 -0.0463 0.0372 -0.0448 0.0396 -0.0432 0.042 -0.0414 0.0444 -0.0396 0.0468 -0.0376 0.0492 -0.0356zm-6.5867 -8.2666l-2.3312 -0.3148 2.2943 -0.176 0.1797 0.5813 0.1858 0.5535 0.2005 0.5218 0.2009 0.4999 0.2142 0.4698 0.2181 0.4448 0.2259 0.4251 0.2284 0.3972 0.2395 0.3743 0.2363 0.3567 0.2462 0.3309 0.2465 0.3149 0.2506 0.2949 0.2542 0.2757 0.2526 0.2573 0.2596 0.244 0.2569 0.227 0.258 0.2153 0.2588 0.1951 0.2632 0.1894 0.2583 0.1706 0.2569 0.1618 0.26 0.1489 0.2575 0.1416 0.2547 0.1303 0.2512 0.1196 0.2515 0.1143 0.247 0.1053 0.2416 0.0967 0.2403 0.089 0.2385 0.0866 0.2268 0.0803 -0.7464 2.241 -0.2636 -0.0895 -0.2661 -0.0958 -0.2773 -0.1076 -0.2876 -0.1153 -0.293 -0.1237 -0.2977 -0.1329 -0.3064 -0.1474 -0.3099 -0.1581 -0.3129 -0.1692 -0.3152 -0.1861 -0.3215 -0.1988 -0.3227 -0.2168 -0.3186 -0.2266 -0.3232 -0.2505 -0.3226 -0.2617 -0.3213 -0.2826 -0.315 -0.2996 -0.317 -0.3221 -0.3096 -0.3405 -0.3058 -0.3597 -0.3017 -0.3797 -0.2924 -0.4049 -0.2915 -0.4217 -0.2765 -0.4483 -0.2744 -0.4712 -0.2627 -0.4901 -0.2549 -0.5188 -0.242 -0.5438 -0.2377 -0.5649 -0.2189 -0.5958 -0.2134 -0.6183 -0.1981 -0.6461 2.2943 -0.176zm-0.0369 -0.4908l-2.2574 0.6668 -0.0156 -0.0588 -0.0125 -0.0589 -0.0094 -0.0589 -0.0064 -0.0588 -0.0034 -0.0586 -0.0006 -0.0583 0.0024 -0.058 0.0051 -0.0575 0.0079 -0.0569 0.0107 -0.0563 0.0133 -0.0555 0.0159 -0.0547 0.0184 -0.0538 0.021 -0.0527 0.0234 -0.0517 0.0259 -0.0504 0.0282 -0.0491 0.0305 -0.0478 0.0328 -0.0463 0.035 -0.0447 0.0372 -0.043 0.0393 -0.0413 0.0413 -0.0394 0.0434 -0.0375 0.0453 -0.0354 0.0472 -0.0334 0.0491 -0.0311 0.0509 -0.0288 0.0526 -0.0264 0.0544 -0.0239 0.0561 -0.0213 0.0576 -0.0186 0.0585 -0.0157 0.0586 -0.0125 0.0586 -0.0095 0.0585 -0.0064 0.0583 -0.0035 0.058 -0.0005 0.0577 0.0023 0.0572 0.0052 0.0566 0.0079 0.056 0.0107 0.0553 0.0134 0.0544 0.0159 0.0535 0.0186 0.0525 0.0211 0.0514 0.0235 0.0502 0.026 0.0489 0.0284 0.0475 0.0307 0.046 0.0329 0.0445 0.0352 0.0428 0.0374 0.0411 0.0394 0.0392 0.0416 0.0373 0.0435 0.0353 0.0456 0.0331 0.0475 0.031 0.0493 0.0286 0.0512 0.0263 0.0529 0.0238 0.0546 0.0212 0.0564 0.0185 0.0579zm-0.2413 4.1594l-2.3496 -0.0092 0 0 0.001 -0.1185 0.0016 -0.1145 0.002 -0.1152 0.0025 -0.1157 0.003 -0.1164 0.0034 -0.117 0.004 -0.1177 0.0045 -0.1183 0.005 -0.119 0.0055 -0.1197 0.006 -0.1202 0.0065 -0.1209 0.0071 -0.1217 0.0075 -0.1223 0.0081 -0.1275 0.0086 -0.1236 0.0091 -0.1243 0.0097 -0.1249 0.0101 -0.1257 0.0154 -0.1262 0.0112 -0.1224 0.0118 -0.1323 0.0124 -0.1238 0.0128 -0.129 0.0135 -0.1343 0.014 -0.1258 0.0145 -0.1312 0.0151 -0.1318 0.0157 -0.1325 0.0208 -0.1333 0.0168 -0.1339 0.0174 -0.1346 2.3312 0.3148 -0.0174 0.1254 -0.0168 0.1247 -0.0116 0.1239 -0.0157 0.1233 -0.0151 0.1226 -0.0145 0.1218 -0.014 0.1258 -0.0135 0.1159 -0.0128 0.1198 -0.0124 0.1238 -0.0118 0.1137 -0.0112 0.1224 -0.0062 0.117 -0.0101 0.1163 -0.0097 0.1157 -0.0091 0.1151 -0.0086 0.1142 -0.0081 0.1091 -0.0075 0.1131 -0.0071 0.1123 -0.0065 0.1117 -0.006 0.111 -0.0055 0.1103 -0.005 0.1098 -0.0045 0.1091 -0.004 0.1083 -0.0034 0.1078 -0.003 0.1072 -0.0025 0.1065 -0.002 0.1058 -0.0016 0.1053 -0.001 0.0999 0 0zm-2.3496 -0.0092l2.3496 0.0092 -0.0018 0.0607 -0.0047 0.06 -0.0077 0.059 -0.0106 0.0581 -0.0133 0.0571 -0.0161 0.056 -0.0187 0.0547 -0.0212 0.0536 -0.0237 0.0522 -0.0262 0.0508 -0.0285 0.0493 -0.0307 0.0478 -0.0329 0.0462 -0.0351 0.0444 -0.0371 0.0427 -0.039 0.0409 -0.041 0.0389 -0.0428 0.037 -0.0445 0.0348 -0.0462 0.0328 -0.0478 0.0305 -0.0493 0.0283 -0.0507 0.0258 -0.0522 0.0235 -0.0534 0.0209 -0.0546 0.0184 -0.0559 0.0157 -0.0568 0.0129 -0.0579 0.0102 -0.0589 0.0073 -0.0596 0.0043 -0.0605 0.0013 -0.0604 -0.0018 -0.0597 -0.0048 -0.0588 -0.0077 -0.0578 -0.0106 -0.0567 -0.0134 -0.0557 -0.0161 -0.0545 -0.0188 -0.0533 -0.0214 -0.052 -0.0238 -0.0505 -0.0263 -0.0491 -0.0286 -0.0475 -0.0309 -0.046 -0.0331 -0.0442 -0.0353 -0.0425 -0.0372 -0.0406 -0.0393 -0.0388 -0.0411 -0.0367 -0.043 -0.0347 -0.0448 -0.0326 -0.0464 -0.0304 -0.048 -0.0281 -0.0496 -0.0257 -0.051 -0.0233 -0.0524 -0.0209 -0.0537 -0.0182 -0.0549 -0.0156 -0.0561 -0.0129 -0.0572 -0.0102 -0.0582 -0.0072 -0.0591 -0.0043 -0.0599 -0.0013 -0.0608zm5.9997 14.6634l2.3496 -0.0186 0 -0.0092 0.0367 0.6326 0.0748 0.6409 0.1155 0.6482 0.1587 0.6547 0.1951 0.6602 0.2342 0.6696 0.2711 0.6732 0.3013 0.6714 0.3388 0.6778 0.3694 0.6743 0.3981 0.6743 0.4244 0.6688 0.449 0.6669 0.4713 0.6643 0.4914 0.6561 0.5097 0.6469 0.5304 0.6415 0.5444 0.6305 0.5516 0.6232 0.5661 0.6057 0.5738 0.5967 0.5795 0.582 0.583 0.5664 0.5844 0.55 0.5839 0.5371 0.5858 0.5144 0.5764 0.4996 0.5696 0.4795 0.5604 0.4539 0.5496 0.4365 0.541 0.4136 0.5212 0.3899 -1.3914 1.9076 -0.5488 -0.4083 -0.5594 -0.4322 -0.5772 -0.4549 -0.5882 -0.4817 -0.5972 -0.4981 -0.604 -0.5182 -0.6042 -0.542 -0.6115 -0.5557 -0.6122 -0.5778 -0.6106 -0.5942 -0.6071 -0.6098 -0.6014 -0.6245 -0.5937 -0.6427 -0.5886 -0.651 -0.572 -0.6675 -0.558 -0.6785 -0.5465 -0.6933 -0.5284 -0.7023 -0.5081 -0.7107 -0.4858 -0.7225 -0.4614 -0.7336 -0.4349 -0.7391 -0.4062 -0.7483 -0.3756 -0.752 -0.3475 -0.764 -0.3079 -0.7658 -0.271 -0.7714 -0.2321 -0.7806 -0.1863 -0.7843 -0.1431 -0.7872 -0.0932 -0.7891 -0.0367 -0.79 0 -0.0092zm2.3496 -0.0278l-2.3496 0.037 0.0006 -0.0608 0.0036 -0.06 0.0065 -0.0592 0.0095 -0.0583 0.0122 -0.0573 0.015 -0.0563 0.0176 -0.0552 0.0202 -0.0539 0.0227 -0.0527 0.0252 -0.0513 0.0275 -0.0499 0.0298 -0.0484 0.032 -0.0468 0.0342 -0.0451 0.0363 -0.0435 0.0382 -0.0416 0.0402 -0.0397 0.042 -0.0378 0.0439 -0.0358 0.0455 -0.0336 0.0472 -0.0315 0.0488 -0.0292 0.0502 -0.0268 0.0517 -0.0245 0.053 -0.022 0.0543 -0.0194 0.0555 -0.0168 0.0566 -0.0141 0.0577 -0.0113 0.0587 -0.0084 0.0596 -0.0055 0.0604 -0.0025 0.0605 0.0006 0.0597 0.0036 0.0589 0.0066 0.058 0.0095 0.0571 0.0123 0.056 0.015 0.0548 0.0177 0.0537 0.0203 0.0524 0.0228 0.0511 0.0253 0.0496 0.0277 0.0482 0.0299 0.0466 0.0322 0.0449 0.0344 0.0432 0.0364 0.0414 0.0385 0.0396 0.0404 0.0375 0.0422 0.0356 0.0441 0.0335 0.0458 0.0313 0.0474 0.0291 0.049 0.0267 0.0505 0.0243 0.0519 0.0219 0.0533 0.0193 0.0546 0.0167 0.0557 0.014 0.0569 0.0113 0.058 0.0084 0.059 0.0054 0.0599 0.0025 0.0607zm-0.2785 -2.2856l-1.6124 1.7224 1.9718 -0.6991 -0.0062 0.04 -0.0059 0.0402 -0.0057 0.0354 -0.0009 0.0402 -0.0053 0.0402 -0.005 0.0356 -0.0048 0.0402 -0.0046 0.0403 -0.0044 0.0403 -0.0042 0.0403 0.0007 0.0357 -0.0038 0.0404 -0.0035 0.0404 -0.0033 0.0403 -0.0031 0.0405 -0.0029 0.0359 -0.0027 0.0404 -0.0024 0.0405 -0.0023 0.0406 -0.002 0.0405 -0.0019 0.036 -0.0016 0.0405 -0.0014 0.0406 -0.0012 0.0407 -0.001 0.0407 -0.0008 0.0406 -0.0007 0.0407 -0.0004 0.0361 -0.0002 0.0408 0 0.0454 0.0002 0.0408 0.0004 0.0407 -2.3496 0.0186 -0.0004 -0.0501 -0.0002 -0.05 0 -0.0454 0.0002 -0.05 0.0004 -0.0547 0.0007 -0.0499 0.0008 -0.05 0.001 -0.0499 0.0012 -0.0499 0.0014 -0.0498 0.0016 -0.0499 0.0019 -0.0544 0.002 -0.0499 0.0023 -0.0498 0.0024 -0.0497 0.0027 -0.0498 0.0029 -0.0543 0.0031 -0.0497 0.0033 -0.0497 0.0035 -0.0496 0.0038 -0.0496 0.0085 -0.0543 0.0042 -0.0495 0.0044 -0.0497 0.0046 -0.0495 0.0048 -0.0494 0.005 -0.0542 0.0053 -0.0494 0.0101 -0.0494 0.0057 -0.054 0.0059 -0.0494 0.0062 -0.0494 1.9718 -0.6991zm0.3594 1.0233l-2.3312 -0.3242 0.0098 -0.0601 0.0127 -0.0588 0.0155 -0.0576 0.0182 -0.0563 0.0208 -0.0549 0.0233 -0.0534 0.0258 -0.0519 0.0282 -0.0503 0.0305 -0.0486 0.0327 -0.0469 0.0348 -0.0452 0.0369 -0.0433 0.0388 -0.0414 0.0407 -0.0395 0.0425 -0.0374 0.0442 -0.0353 0.0458 -0.0331 0.0474 -0.031 0.0488 -0.0286 0.0502 -0.0263 0.0515 -0.0239 0.0527 -0.0215 0.0538 -0.0188 0.0548 -0.0163 0.0559 -0.0136 0.0567 -0.0109 0.0574 -0.0081 0.0582 -0.0053 0.0588 -0.0023 0.0594 0.0007 0.0598 0.0037 0.0602 0.0068 0.0598 0.0099 0.0585 0.0127 0.0573 0.0156 0.056 0.0183 0.0546 0.0209 0.0531 0.0235 0.0517 0.0259 0.05 0.0283 0.0484 0.0307 0.0467 0.0328 0.0449 0.035 0.0431 0.0371 0.0412 0.039 0.0393 0.0409 0.0372 0.0427 0.0352 0.0444 0.033 0.0461 0.0307 0.0476 0.0286 0.0491 0.0261 0.0504 0.0238 0.0518 0.0213 0.0529 0.0188 0.0541 0.0162 0.0552 0.0136 0.0561 0.0108 0.0569 0.0081 0.0578 0.0052 0.0585 0.0023 0.0591 -0.0006 0.0597 -0.0037 0.0601 -0.0068 0.0605zm2.8554 4.6488l-2.3496 -0.0186 0 0.0139 -0.0048 -0.1397 -0.012 -0.131 -0.0098 -0.132 -0.0211 -0.1283 -0.0232 -0.125 -0.0296 -0.1216 -0.0313 -0.1185 -0.0374 -0.1156 -0.0434 -0.1173 -0.0445 -0.1148 -0.0501 -0.1168 -0.0556 -0.1147 -0.0608 -0.117 -0.0705 -0.1151 -0.0707 -0.1132 -0.0756 -0.1162 -0.0801 -0.1192 -0.0846 -0.118 -0.0932 -0.1167 -0.0928 -0.1204 -0.1013 -0.1195 -0.105 -0.1234 -0.113 -0.1229 -0.1119 -0.1224 -0.1197 -0.1269 -0.1227 -0.1269 -0.1256 -0.1269 -0.1328 -0.1318 -0.1353 -0.1323 -0.1331 -0.1328 -0.1444 -0.1336 -0.1417 -0.1345 1.6124 -1.7224 0.1511 0.1437 0.1444 0.1428 0.1515 0.1422 0.1445 0.1415 0.142 0.141 0.144 0.1455 0.1411 0.1453 0.1381 0.1455 0.1395 0.1502 0.1316 0.1507 0.1326 0.1512 0.1289 0.1565 0.1296 0.1574 0.121 0.1631 0.1214 0.1642 0.1169 0.1656 0.1124 0.1718 0.1077 0.178 0.0981 0.1799 0.0976 0.1818 0.0924 0.1887 0.0871 0.191 0.0813 0.198 0.071 0.2007 0.065 0.2082 0.0591 0.2111 0.048 0.2142 0.0416 0.2176 0.0303 0.2209 0.0282 0.2246 0.012 0.233 0.0048 0.2323 0 0.0139zm-2.3496 -0.0047l2.3496 -0.0092 -0.0013 0.0608 -0.0043 0.0599 -0.0072 0.0591 -0.0102 0.0582 -0.0129 0.0572 -0.0156 0.0561 -0.0182 0.0549 -0.0209 0.0537 -0.0233 0.0524 -0.0257 0.051 -0.0281 0.0496 -0.0304 0.048 -0.0326 0.0464 -0.0347 0.0448 -0.0367 0.043 -0.0388 0.0411 -0.0406 0.0393 -0.0425 0.0372 -0.0442 0.0353 -0.046 0.0331 -0.0475 0.0309 -0.0491 0.0286 -0.0505 0.0263 -0.052 0.0238 -0.0533 0.0214 -0.0545 0.0188 -0.0557 0.0161 -0.0567 0.0134 -0.0578 0.0106 -0.0588 0.0077 -0.0597 0.0048 -0.0604 0.0018 -0.0605 -0.0013 -0.0596 -0.0043 -0.0589 -0.0073 -0.0579 -0.0102 -0.0568 -0.0129 -0.0559 -0.0157 -0.0546 -0.0184 -0.0534 -0.0209 -0.0522 -0.0235 -0.0507 -0.0258 -0.0493 -0.0283 -0.0478 -0.0305 -0.0462 -0.0328 -0.0445 -0.0348 -0.0428 -0.037 -0.041 -0.0389 -0.039 -0.0409 -0.0371 -0.0427 -0.0351 -0.0444 -0.0329 -0.0462 -0.0307 -0.0478 -0.0285 -0.0493 -0.0262 -0.0508 -0.0237 -0.0522 -0.0212 -0.0536 -0.0187 -0.0547 -0.0161 -0.056 -0.0133 -0.0571 -0.0106 -0.0581 -0.0077 -0.059 -0.0047 -0.06 -0.0018 -0.0607zm0.0713 -0.0591l2.1654 0.926 -2.2529 -0.5695 0.0012 -0.0085 -0.0035 -0.0083 0.0011 -0.0084 0.001 -0.013 0.0011 -0.013 0.001 -0.0037 0.0009 -0.0129 0.001 -0.0084 0.0008 -0.0083 0.0009 -0.0129 0.0008 -0.0128 0.0008 -0.0129 0.0008 -0.0082 0.0007 -0.0035 0.0007 -0.0128 0.0007 -0.0128 0.0006 -0.0081 0.0006 -0.0128 0.0006 -0.008 0.0005 -0.0081 0.0005 -0.0081 0.0004 -0.0126 0.0005 -0.0127 0.0004 -0.0079 0.0004 -0.008 0.0003 -0.008 0.0003 -0.0125 0.0003 -0.008 0.0002 -0.0125 0.0003 -0.0078 0.0001 -0.0079 0.0002 -0.0079 2.3496 0.0186 -0.0002 0.0171 -0.0001 0.0171 -0.0003 0.0172 -0.0002 0.0125 -0.0003 0.0172 -0.0003 0.0125 -0.0003 0.0172 -0.0004 0.0172 -0.0004 0.0173 -0.0005 0.0127 -0.0004 0.0126 -0.0005 0.0173 -0.0005 0.0173 -0.0006 0.0174 -0.0006 0.0128 -0.0006 0.0173 -0.0007 0.0128 -0.0007 0.0128 -0.0007 0.0221 -0.0008 0.0174 -0.0008 0.0129 -0.0008 0.0128 -0.0009 0.0129 -0.0008 0.0175 -0.001 0.0176 -0.0009 0.0129 -0.001 0.0223 -0.0011 0.013 -0.001 0.013 -0.0011 0.0176 -0.0057 0.0177 -0.0012 0.0177 -2.2529 -0.5695zm-0.0875 0.3565l2.3404 0.213 -0.007 0.0604 -0.0099 0.0593 -0.0127 0.0582 -0.0155 0.0569 -0.0182 0.0558 -0.0208 0.0543 -0.0233 0.053 -0.0258 0.0515 -0.0281 0.05 -0.0305 0.0483 -0.0326 0.0467 -0.0347 0.045 -0.0368 0.0431 -0.0388 0.0413 -0.0406 0.0393 -0.0424 0.0373 -0.0442 0.0353 -0.0458 0.0331 -0.0473 0.0309 -0.0489 0.0286 -0.0502 0.0262 -0.0515 0.0239 -0.0528 0.0214 -0.054 0.0188 -0.055 0.0162 -0.0561 0.0136 -0.0569 0.0108 -0.0578 0.008 -0.0586 0.0051 -0.0592 0.0021 -0.0599 -0.0009 -0.0603 -0.0039 -0.0601 -0.007 -0.059 -0.01 -0.0579 -0.0128 -0.0567 -0.0156 -0.0554 -0.0182 -0.0541 -0.0209 -0.0527 -0.0235 -0.0512 -0.0259 -0.0497 -0.0282 -0.0481 -0.0306 -0.0465 -0.0328 -0.0447 -0.0349 -0.0429 -0.037 -0.0411 -0.0389 -0.0391 -0.0408 -0.0372 -0.0427 -0.035 -0.0444 -0.033 -0.046 -0.0307 -0.0476 -0.0285 -0.0491 -0.0261 -0.0504 -0.0238 -0.0519 -0.0212 -0.053 -0.0188 -0.0543 -0.0161 -0.0553 -0.0135 -0.0563 -0.0107 -0.0572 -0.008 -0.0581 -0.005 -0.0589 -0.0022 -0.0595 0.0009 -0.0601 0.0039 -0.0607zm2.3532 0.1739l-2.3496 -0.176 2.2529 0.5649 -0.0049 0.0099 0.0273 -0.0641 -0.0002 0.0006 -0.0279 0.0655 0.0135 -0.0365 0.0136 -0.0271 -0.0003 0.0007 -0.0002 0.0006 -0.0003 0.0007 -0.0002 0.0006 -0.0003 0.0007 -0.0002 0.0006 -0.0003 0.0007 -0.0002 0.0006 -0.0003 0.0007 -0.014 0.0283 0.0135 -0.0271 -0.0002 0.0007 -0.0003 0.0006 -0.0002 0.0007 -0.0003 0.0006 -0.0002 0.0007 -0.0003 0.0006 -0.0002 0.0007 -0.0003 0.0006 -0.0002 0.0007 -0.0141 0.0283 0.0136 -0.0271 -0.0279 0.0655 0.0273 -0.0642 -0.0002 0.0007 -0.0187 0.0422 -2.1654 -0.926 -0.0181 0.041 0.0002 -0.0007 0.0279 -0.0654 -0.0273 0.0641 0.014 -0.0283 -0.0135 0.0271 0.0002 -0.0007 0.0003 -0.0006 0.0002 -0.0007 0.0003 -0.0006 0.0002 -0.0007 0.0003 -0.0006 0.0002 -0.0007 0.0003 -0.0006 0.0002 -0.0007 0.0141 -0.0283 -0.0136 0.0271 0.0003 -0.0007 0.0002 -0.0006 0.0003 -0.0007 0.0002 -0.0006 0.0003 -0.0007 0.0002 -0.0006 0.0003 -0.0007 0.0002 -0.0006 0.0003 -0.0007 0.014 -0.0283 0.0141 -0.0377 -0.0273 0.0641 0.0002 -0.0006 0.0279 -0.0655 -0.0043 0.0087 2.2529 0.5649zm-0.0967 0.3889l-2.1562 -0.9538 0.0258 -0.0551 0.0283 -0.0532 0.0306 -0.0512 0.0328 -0.0492 0.035 -0.0471 0.0371 -0.045 0.0389 -0.0428 0.0409 -0.0407 0.0426 -0.0384 0.0443 -0.0362 0.0458 -0.0339 0.0473 -0.0315 0.0487 -0.0292 0.0499 -0.0268 0.0511 -0.0243 0.0522 -0.0218 0.0531 -0.0193 0.0541 -0.0168 0.0548 -0.0141 0.0555 -0.0116 0.0561 -0.0088 0.0565 -0.0061 0.057 -0.0034 0.0573 -0.0005 0.0574 0.0022 0.0576 0.0051 0.0575 0.0081 0.0575 0.0109 0.0573 0.014 0.0569 0.0169 0.0566 0.0201 0.0561 0.0231 0.0549 0.0259 0.0529 0.0284 0.0509 0.0308 0.0489 0.033 0.0469 0.0352 0.0447 0.0372 0.0427 0.0392 0.0404 0.041 0.0383 0.0429 0.036 0.0445 0.0337 0.046 0.0314 0.0475 0.0291 0.049 0.0266 0.0501 0.0242 0.0514 0.0217 0.0524 0.0192 0.0535 0.0167 0.0543 0.0141 0.0551 0.0114 0.0557 0.0088 0.0564 0.0061 0.0569 0.0034 0.0572 0.0005 0.0576 -0.0022 0.0577 -0.0051 0.0579 -0.008 0.0578 -0.0109 0.0577 -0.0139 0.0576 -0.0169 0.0573 -0.0199 0.0568 -0.023 0.0564zm-2.1736 -0.8296l2.1746 0.9076 -2.2575 -0.5603 0.0003 -0.0032 0.0003 -0.0032 -0.0043 0.0108 0.0002 0.0014 0.0049 -0.0217 0.0003 -0.0031 -0.0043 0.0153 0.0002 -0.0032 0.0049 -0.0217 -0.0043 0.0108 0.0002 0.0014 0.0049 -0.0217 -0.0043 0.0108 0.0002 -0.0032 0.0003 -0.0031 0.0002 0.0014 0.0003 -0.0078 0.0002 -0.0031 0.0003 -0.0032 0.0002 -0.0031 0.0003 -0.0032 0.0002 -0.0031 0.0003 -0.0032 0.0002 0.0154 0.0002 -0.0217 0.0003 -0.0031 0.0002 -0.0032 0.0003 -0.0031 0.0002 0.0153 0.0002 -0.0216 0.0003 -0.0032 0.0002 0.0015 2.3496 0.176 -0.0002 0.0077 -0.0003 0.0032 -0.0002 -0.0154 -0.0002 0.0217 -0.0003 0.0031 -0.0002 0.0032 -0.0003 0.0031 -0.0002 -0.0153 -0.0002 0.0216 -0.0003 0.0032 -0.0002 0.0031 -0.0003 0.0032 -0.0002 0.0031 -0.0003 0.0032 -0.0002 0.0031 -0.0003 -0.0014 -0.0002 0.0078 -0.0003 0.0031 -0.0002 0.0032 -0.0049 0.017 0.0043 -0.0153 -0.0002 0.0078 -0.0049 0.017 0.0043 -0.0153 -0.0002 0.0032 -0.0049 0.0217 -0.0003 0.0031 0.0043 -0.0153 -0.0002 0.0078 -0.0049 0.017 -0.0003 0.0032 -0.0003 0.0032 -2.2575 -0.5603zm-0.0829 0.3473l2.3404 0.213 -0.007 0.0604 -0.0099 0.0593 -0.0127 0.0582 -0.0155 0.0569 -0.0182 0.0558 -0.0208 0.0543 -0.0233 0.053 -0.0258 0.0515 -0.0281 0.05 -0.0305 0.0483 -0.0326 0.0467 -0.0347 0.045 -0.0368 0.0431 -0.0388 0.0413 -0.0406 0.0393 -0.0424 0.0373 -0.0442 0.0353 -0.0458 0.0331 -0.0473 0.0309 -0.0489 0.0286 -0.0502 0.0262 -0.0515 0.0239 -0.0528 0.0214 -0.054 0.0188 -0.055 0.0162 -0.0561 0.0136 -0.0569 0.0108 -0.0578 0.008 -0.0586 0.0051 -0.0592 0.0021 -0.0599 -0.0009 -0.0603 -0.0039 -0.0601 -0.007 -0.059 -0.01 -0.0579 -0.0128 -0.0567 -0.0156 -0.0554 -0.0182 -0.0541 -0.0209 -0.0527 -0.0235 -0.0512 -0.0259 -0.0497 -0.0282 -0.0481 -0.0306 -0.0465 -0.0328 -0.0447 -0.0349 -0.0429 -0.037 -0.0411 -0.0389 -0.0391 -0.0408 -0.0372 -0.0427 -0.035 -0.0444 -0.033 -0.046 -0.0307 -0.0476 -0.0285 -0.0491 -0.0261 -0.0504 -0.0238 -0.0519 -0.0212 -0.053 -0.0188 -0.0543 -0.0161 -0.0553 -0.0135 -0.0563 -0.0107 -0.0572 -0.008 -0.0581 -0.005 -0.0589 -0.0022 -0.0595 0.0009 -0.0601 0.0039 -0.0607zm0.2805 -1.4414l2.3496 0.0186 0 -0.0139 0.0001 0.0533 -0.0004 0.0627 -0.001 0.0626 -0.0014 0.0579 -0.0019 0.0625 -0.0025 0.0625 -0.003 0.0625 -0.0036 0.0624 -0.0087 0.0625 -0.0047 0.0623 -0.0052 0.0624 -0.0104 0.0622 -0.0064 0.0623 -0.007 0.0622 -0.0123 0.062 -0.0082 0.0621 -0.0134 0.0668 -0.0141 0.0619 -0.0101 0.0619 -0.0154 0.0619 -0.016 0.0664 -0.0167 0.0617 -0.0174 0.0664 -0.0182 0.0616 -0.0187 0.0614 -0.0195 0.0662 -0.0201 0.0614 -0.0209 0.0659 -0.0216 0.0613 -0.027 0.0657 -0.0231 0.0611 -0.0238 0.061 -2.1746 -0.9076 0.0146 -0.0332 0.0139 -0.0333 0.0086 -0.0287 0.0124 -0.0335 0.0117 -0.0289 0.0109 -0.0336 0.0103 -0.029 0.0095 -0.0338 0.0088 -0.0338 0.0082 -0.0292 0.0075 -0.0339 0.0068 -0.0294 0.0062 -0.0341 0.0101 -0.0341 0.0049 -0.0343 0.0042 -0.0296 0.0082 -0.0343 0.0031 -0.0344 0.007 -0.0344 0.0064 -0.0345 0.0012 -0.0344 0.0052 -0.0346 0.0047 -0.0345 -0.0005 -0.0347 0.0036 -0.0346 0.003 -0.0347 0.0025 -0.0347 0.0019 -0.0347 0.0014 -0.0395 0.001 -0.0348 0.0004 -0.0349 -0.0001 -0.0441 0 -0.0139zm2.3496 0.0047l-2.3496 0.0092 0.0013 -0.0608 0.0043 -0.0599 0.0072 -0.0591 0.0102 -0.0582 0.0129 -0.0572 0.0156 -0.0561 0.0182 -0.0549 0.0209 -0.0537 0.0233 -0.0524 0.0257 -0.051 0.0281 -0.0496 0.0304 -0.048 0.0326 -0.0464 0.0347 -0.0448 0.0367 -0.043 0.0388 -0.0411 0.0406 -0.0393 0.0425 -0.0372 0.0442 -0.0353 0.046 -0.0331 0.0475 -0.0309 0.0491 -0.0286 0.0505 -0.0263 0.052 -0.0238 0.0533 -0.0214 0.0545 -0.0188 0.0557 -0.0161 0.0567 -0.0134 0.0578 -0.0106 0.0588 -0.0077 0.0597 -0.0048 0.0604 -0.0018 0.0605 0.0013 0.0596 0.0043 0.0589 0.0073 0.0579 0.0102 0.0568 0.0129 0.0559 0.0157 0.0546 0.0184 0.0534 0.0209 0.0522 0.0235 0.0507 0.0258 0.0493 0.0283 0.0478 0.0305 0.0462 0.0328 0.0445 0.0348 0.0428 0.037 0.041 0.0389 0.039 0.0409 0.0371 0.0427 0.0351 0.0444 0.0329 0.0462 0.0307 0.0478 0.0285 0.0493 0.0262 0.0508 0.0237 0.0522 0.0212 0.0536 0.0187 0.0547 0.0161 0.056 0.0133 0.0571 0.0106 0.0581 0.0077 0.059 0.0047 0.06 0.0018 0.0607zm-3.4286 -5.2025l2.3496 0.0186 0 -0.0186 0.0044 0.0845 0.0057 0.0919 0.0111 0.0991 0.0162 0.1063 0.0208 0.1133 0.0252 0.1202 0.029 0.127 0.0324 0.1339 0.0356 0.1359 0.0382 0.1425 0.0404 0.1488 0.0471 0.1508 0.0439 0.1569 0.0496 0.1631 0.0503 0.1599 0.0506 0.1706 0.0551 0.1718 0.0501 0.1729 0.0538 0.1787 0.0479 0.1796 0.0508 0.1851 0.0487 0.1859 0.0462 0.1912 0.0434 0.1965 0.0401 0.1968 0.0365 0.1973 0.0324 0.2023 0.028 0.207 0.0185 0.2071 0.0178 0.2117 0.0076 0.2163 0.0016 0.2115 -2.3496 -0.0186 -0.0016 -0.1373 -0.0076 -0.1329 -0.0086 -0.1377 -0.0185 -0.1423 -0.0188 -0.1422 -0.0232 -0.1467 -0.0273 -0.1509 -0.0309 -0.1506 -0.0342 -0.1501 -0.037 -0.1542 -0.0395 -0.1581 -0.0416 -0.1573 -0.0479 -0.1612 -0.0444 -0.1601 -0.0501 -0.1637 -0.0459 -0.1626 -0.0506 -0.1612 -0.0503 -0.1693 -0.0496 -0.1631 -0.0531 -0.1661 -0.0471 -0.1692 -0.0498 -0.1674 -0.0474 -0.1703 -0.0448 -0.1729 -0.0416 -0.1709 -0.0382 -0.1734 -0.0344 -0.1758 -0.03 -0.1781 -0.0254 -0.1803 -0.0203 -0.1825 -0.0149 -0.1845 -0.0044 -0.1863 0 -0.0186zm2.3496 0l-2.3496 0.0186 0.0011 -0.0608 0.004 -0.06 0.0071 -0.0591 0.0098 -0.0582 0.0127 -0.0572 0.0154 -0.0562 0.0181 -0.055 0.0206 -0.0538 0.0231 -0.0525 0.0255 -0.0511 0.028 -0.0497 0.0301 -0.0481 0.0324 -0.0466 0.0346 -0.0448 0.0365 -0.0432 0.0386 -0.0413 0.0405 -0.0394 0.0424 -0.0375 0.0441 -0.0354 0.0458 -0.0332 0.0474 -0.0311 0.049 -0.0289 0.0504 -0.0264 0.0519 -0.0241 0.0531 -0.0216 0.0545 -0.019 0.0556 -0.0163 0.0567 -0.0136 0.0578 -0.0109 0.0587 -0.008 0.0597 -0.005 0.0604 -0.002 0.0605 0.0011 0.0597 0.0041 0.0588 0.007 0.0579 0.0099 0.057 0.0128 0.0559 0.0154 0.0547 0.0182 0.0535 0.0207 0.0522 0.0232 0.0509 0.0257 0.0494 0.028 0.0479 0.0304 0.0463 0.0325 0.0447 0.0347 0.0429 0.0368 0.0411 0.0388 0.0392 0.0407 0.0373 0.0425 0.0352 0.0444 0.0331 0.046 0.031 0.0477 0.0287 0.0492 0.0263 0.0507 0.0239 0.0521 0.0215 0.0534 0.0189 0.0547 0.0162 0.0559 0.0136 0.0571 0.0108 0.058 0.0079 0.059 0.005 0.06 0.002 0.0607zm-0.8757 -2.5902l1.1978 2.028 0.0046 0 -0.0329 0.0236 -0.0306 0.0152 -0.0234 0.0207 -0.0257 0.0169 -0.0232 0.0178 -0.0165 0.0139 -0.0187 0.0148 -0.0118 0.0156 -0.0143 0.0164 -0.012 0.0125 -0.0099 0.0134 -0.0078 0.0095 -0.0104 0.015 -0.0084 0.0109 -0.0063 0.0119 -0.009 0.0124 -0.0025 0.0133 -0.0098 0.014 -0.0034 0.0101 -0.0062 0.0153 -0.0044 0.0162 -0.0073 0.0168 -0.0055 0.0174 -0.004 0.0228 -0.0024 0.0188 -0.0053 0.024 -0.0039 0.0247 -0.0023 0.0254 -0.0008 0.026 -0.0041 0.0312 -0.0026 0.0318 -0.0013 0.0325 -2.3496 -0.0186 0.0013 -0.0879 0.0026 -0.0874 0.0041 -0.0868 0.01 -0.0908 0.0115 -0.0902 0.0131 -0.0895 0.0145 -0.089 0.0208 -0.0928 0.0224 -0.0876 0.0241 -0.0916 0.0257 -0.0908 0.032 -0.0902 0.0338 -0.0895 0.0402 -0.0933 0.0376 -0.0882 0.0485 -0.0873 0.0458 -0.0866 0.0525 -0.0859 0.0544 -0.0851 0.0564 -0.0798 0.0632 -0.0835 0.0651 -0.0782 0.0674 -0.0773 0.0695 -0.072 0.0764 -0.0712 0.0739 -0.0704 0.0809 -0.0695 0.0786 -0.064 0.0809 -0.0633 0.088 -0.0577 0.0858 -0.0614 0.0883 -0.0514 0.0046 0zm1.6987 -0.8558l1.8612 1.4446 0 0 -0.0989 0.1245 -0.1007 0.115 -0.1021 0.1058 -0.1082 0.1013 -0.1045 0.097 -0.1102 0.0883 -0.1062 0.0842 -0.1115 0.076 -0.1072 0.0724 -0.1074 0.0644 -0.1073 0.0611 -0.1026 0.0582 -0.1067 0.0506 -0.0969 0.0434 -0.1008 0.0454 -0.0951 0.0386 -0.0895 0.0365 -0.0926 0.0298 -0.0818 0.028 -0.0802 0.0266 -0.0737 0.025 -0.0715 0.0192 -0.0646 0.0228 -0.0575 0.0172 -0.0501 0.012 -0.0428 0.0161 -0.0303 0.0111 -0.0226 0.0063 -0.0098 0.0017 0.0075 -0.0027 0.0206 -0.0116 0.0431 -0.025 -1.1978 -2.028 0.1043 -0.0584 0.09 -0.044 0.0845 -0.0343 0.0744 -0.0295 0.0686 -0.0249 0.0673 -0.0203 0.0612 -0.0161 0.0593 -0.0212 0.0575 -0.0172 0.0554 -0.0136 0.0531 -0.0192 0.0551 -0.0158 0.0526 -0.0172 0.0542 -0.0188 0.0466 -0.0206 0.0525 -0.0179 0.0491 -0.02 0.0456 -0.0178 0.0507 -0.0248 0.0423 -0.0228 0.0472 -0.0212 0.0429 -0.0241 0.0428 -0.0272 0.0428 -0.0262 0.0377 -0.0296 0.0418 -0.0288 0.0364 -0.0327 0.0401 -0.0322 0.0344 -0.0365 0.0377 -0.0408 0.0361 -0.041 0.0345 -0.0411 0 0zm0.0656 -0.6246l2.3496 0.0092 0 -0.0092 -0.0001 0.0644 -0.0008 0.0644 -0.0015 0.069 -0.0022 0.0644 -0.0029 0.0687 -0.0035 0.064 -0.0088 0.0684 -0.0049 0.0634 -0.0055 0.0676 -0.0108 0.0626 -0.0067 0.0667 -0.012 0.0662 -0.0126 0.0656 -0.0087 0.0649 -0.0138 0.0596 -0.0143 0.0633 -0.015 0.0672 -0.0155 0.0617 -0.0161 0.0606 -0.0213 0.0643 -0.0172 0.0632 -0.0223 0.062 -0.0228 0.0609 -0.0233 0.0643 -0.0284 0.063 -0.029 0.0661 -0.0294 0.0602 -0.0344 0.0678 -0.035 0.0663 -0.04 0.0648 -0.045 0.0677 -0.0502 0.0659 -1.8612 -1.4446 -0.0144 0.0173 -0.0102 0.0157 -0.0062 0.0094 -0.0018 0.0077 -0.0024 0.0062 0.0018 -0.0046 0.0012 -0.0013 0.0008 -0.0074 0.0049 -0.0087 0.0044 -0.0145 0.0039 -0.0158 0.008 -0.0168 0.0027 -0.0181 0.0069 -0.0236 0.0063 -0.0245 0.0058 -0.021 0.0051 -0.0263 0.0046 -0.0318 0.0087 -0.0279 0.0034 -0.0284 0.0028 -0.0292 0.0067 -0.0297 0.0016 -0.0348 0.0055 -0.0306 0.0049 -0.0356 -0.0004 -0.0314 0.0035 -0.0362 0.0029 -0.0317 0.0022 -0.0366 0.0015 -0.032 0.0008 -0.0366 0.0001 -0.0366 0 -0.0092zm2.3496 0l-2.3496 0.0092 0.0013 -0.0608 0.0043 -0.0599 0.0072 -0.0591 0.0102 -0.0582 0.0129 -0.0572 0.0156 -0.0561 0.0182 -0.0549 0.0209 -0.0537 0.0233 -0.0524 0.0257 -0.051 0.0281 -0.0496 0.0304 -0.048 0.0326 -0.0464 0.0347 -0.0448 0.0367 -0.043 0.0388 -0.0411 0.0406 -0.0393 0.0425 -0.0372 0.0442 -0.0353 0.046 -0.0331 0.0475 -0.0309 0.0491 -0.0286 0.0505 -0.0263 0.052 -0.0238 0.0533 -0.0214 0.0545 -0.0188 0.0557 -0.0161 0.0567 -0.0134 0.0578 -0.0106 0.0588 -0.0077 0.0597 -0.0048 0.0604 -0.0018 0.0605 0.0013 0.0596 0.0043 0.0589 0.0073 0.0579 0.0102 0.0568 0.0129 0.0559 0.0157 0.0546 0.0184 0.0534 0.0209 0.0522 0.0235 0.0507 0.0258 0.0493 0.0283 0.0478 0.0305 0.0462 0.0328 0.0445 0.0348 0.0428 0.037 0.041 0.0389 0.039 0.0409 0.0371 0.0427 0.0351 0.0444 0.0329 0.0462 0.0307 0.0478 0.0285 0.0493 0.0262 0.0508 0.0237 0.0522 0.0212 0.0536 0.0187 0.0547 0.0161 0.056 0.0133 0.0571 0.0106 0.0581 0.0077 0.059 0.0047 0.06 0.0018 0.0607zm-2.2655 -0.3028l1.4006 -1.8984 0 0 0.081 0.0668 0.0754 0.0639 0.0699 0.0702 0.0644 0.0719 0.0587 0.0735 0.0533 0.0751 0.0477 0.0719 0.0469 0.0733 0.0367 0.0701 0.0404 0.076 0.0304 0.0682 0.034 0.0738 0.024 0.0705 0.0278 0.0715 0.0222 0.068 0.0216 0.0689 0.016 0.0699 0.0198 0.0707 0.0144 0.067 0.0136 0.0677 0.0128 0.0685 0.012 0.069 0.0066 0.0698 0.0104 0.0656 0.0051 0.0661 0.009 0.0666 0.0036 0.0669 0.0029 0.0672 0.0021 0.0675 0.0014 0.0677 0.0008 0.0632 0 0.0634 -2.3496 -0.0092 0 -0.0356 -0.0008 -0.0354 -0.0014 -0.0307 -0.0021 -0.0305 -0.0029 -0.0302 -0.0036 -0.0299 0.0002 -0.0294 -0.0051 -0.0291 -0.0012 -0.0286 -0.0066 -0.0234 -0.0028 -0.0228 -0.0036 -0.0221 -0.0044 -0.0215 -0.0052 -0.0206 -0.0014 -0.0153 -0.0068 -0.0143 -0.003 -0.0133 -0.0038 -0.0124 -0.0002 -0.0067 -0.0056 -0.0057 0.0028 0.0002 -0.0026 -0.0032 0.0056 0.0072 0.0001 0.0041 0.0085 0.0099 0.0075 0.0115 0.0113 0.0175 0.0149 0.0191 0.0186 0.0207 0.0223 0.0224 0.0258 0.0195 0.0296 0.0258 0 0zm-0.0035 -2.1245l1.0412 2.1206 0.0369 -2.1021 0.0064 0.0035 0.0109 0.008 0.0109 0.0035 0.0109 0.0081 0.0108 0.0035 0.0062 0.0035 0.0062 0.0082 0.0245 0.0127 0.006 0.0036 0.0014 -0.0011 0.0152 0.0081 0.0105 0.0083 0.0105 0.0035 0.0151 0.0128 0.0058 0.0036 0.0104 0.0036 0.0103 0.0083 0.0103 0.0036 0.0056 0.0082 0.0102 0.0036 0.0193 0.0128 0.0101 0.0037 0.0054 0.0083 0.0146 0.0083 0.0008 0.0037 0.0099 0.0036 0.0145 0.013 0.0145 0.0083 0.0051 0.0037 0.0144 0.0083 0.0143 0.0131 0.005 0.0037 -1.4006 1.8984 -0.005 -0.0037 0.0041 0.0055 0.004 0.0009 -0.0051 -0.0037 0.0041 0.0009 0.0039 0.0056 -0.0007 -0.0036 -0.01 -0.0037 0.0038 0.0009 -0.0054 0.0011 -0.0009 -0.0037 0.0083 0.0056 -0.001 -0.0036 -0.0056 0.001 -0.0011 -0.0036 -0.0011 0.0011 -0.0012 -0.0036 -0.0058 -0.0036 0.0035 0.0056 -0.0013 -0.0035 -0.0013 0.0011 0.0032 0.0011 -0.0106 -0.0081 -0.006 -0.0036 0.0123 0.0057 -0.0062 0.0012 -0.0062 -0.0035 -0.0016 -0.0035 -0.0017 0.0011 -0.0017 -0.0035 -0.0017 0.0012 -0.0064 -0.0035 0.0369 -2.1021zm1.0781 0.0185l-1.115 2.0836 -0.0526 -0.0302 -0.0505 -0.0325 -0.0483 -0.0346 -0.0462 -0.0368 -0.0439 -0.0387 -0.0416 -0.0406 -0.0394 -0.0425 -0.0371 -0.0441 -0.0348 -0.0456 -0.0324 -0.0472 -0.0299 -0.0486 -0.0276 -0.0498 -0.0251 -0.051 -0.0226 -0.0521 -0.0201 -0.0531 -0.0175 -0.0539 -0.015 -0.0548 -0.0123 -0.0554 -0.0098 -0.056 -0.007 -0.0564 -0.0043 -0.0569 -0.0017 -0.0571 0.0012 -0.0573 0.0039 -0.0574 0.0068 -0.0573 0.0096 -0.0572 0.0124 -0.057 0.0154 -0.0567 0.0184 -0.0562 0.0213 -0.0557 0.0243 -0.0551 0.0273 -0.0543 0.03 -0.0529 0.0323 -0.0507 0.0345 -0.0486 0.0366 -0.0464 0.0385 -0.0441 0.0405 -0.0419 0.0422 -0.0396 0.0438 -0.0372 0.0455 -0.035 0.0469 -0.0325 0.0483 -0.0302 0.0496 -0.0276 0.0508 -0.0253 0.0518 -0.0227 0.0528 -0.0202 0.0537 -0.0176 0.0545 -0.015 0.0551 -0.0125 0.0557 -0.0097 0.0562 -0.0071 0.0566 -0.0044 0.0568 -0.0016 0.057 0.0012 0.0571 0.0039 0.0571 0.0068 0.0569 0.0096 0.0567 0.0126 0.0564 0.0155 0.0559 0.0184 0.0555 0.0214 0.0547 0.0244 0.0541 0.0275zm2.9412 -0.8577l-0.1014 2.3614 0 0 -0.1013 -0.0043 -0.1006 -0.0024 -0.1045 -0.0006 -0.0992 0.0014 -0.0982 0.0032 -0.0931 0.005 -0.0968 0.0069 -0.0961 0.0087 -0.0952 0.0058 -0.0946 0.0123 -0.0938 0.0093 -0.0929 0.0157 -0.0922 0.0127 -0.0915 0.0145 -0.0906 0.0208 -0.0898 0.0178 -0.0891 0.0193 -0.0883 0.0211 -0.0873 0.0227 -0.0867 0.0243 -0.0859 0.0257 -0.0851 0.0273 -0.0888 0.0242 -0.0834 0.0304 -0.0827 0.0319 -0.0817 0.0287 -0.0856 0.0348 -0.0802 0.0316 -0.0839 0.0377 -0.0785 0.0343 -0.0776 0.0405 -0.0815 0.0371 -1.0412 -2.1206 0.1091 -0.0557 0.1144 -0.0497 0.1155 -0.0529 0.1115 -0.0469 0.117 -0.0502 0.1132 -0.044 0.1187 -0.0473 0.1195 -0.0411 0.1202 -0.0396 0.1166 -0.0428 0.1219 -0.0365 0.1227 -0.0351 0.1235 -0.0335 0.1243 -0.0319 0.1251 -0.0303 0.1259 -0.0287 0.1268 -0.027 0.1274 -0.0208 0.1283 -0.0237 0.129 -0.0221 0.1299 -0.0157 0.1306 -0.0185 0.1314 -0.0123 0.1322 -0.015 0.1329 -0.0087 0.1336 -0.0069 0.1391 -0.005 0.1352 -0.0032 0.136 -0.0014 0.1321 0.0006 0.1374 0.0024 0.1383 0.0043 0 0zm5.0765 5.0463l1.9166 1.3706 -1.9166 0 -0.1492 -0.2058 -0.1466 -0.2045 -0.1534 -0.2028 -0.1507 -0.2011 -0.153 -0.194 -0.1551 -0.196 -0.1528 -0.1884 -0.1596 -0.185 -0.1573 -0.1816 -0.1594 -0.1727 -0.1619 -0.173 -0.1596 -0.1638 -0.162 -0.1587 -0.1642 -0.1579 -0.1669 -0.143 -0.1647 -0.1414 -0.1624 -0.1351 -0.1652 -0.1238 -0.1675 -0.1211 -0.1656 -0.1092 -0.1636 -0.1014 -0.1663 -0.0978 -0.1642 -0.0848 -0.167 -0.0805 -0.1651 -0.0714 -0.1679 -0.0619 -0.166 -0.0521 -0.1642 -0.0465 -0.1671 -0.0359 -0.17 -0.0296 -0.1682 -0.0232 -0.1712 -0.0115 0.1014 -2.3614 0.291 0.0207 0.288 0.0324 0.2804 0.0482 0.2777 0.0637 0.2748 0.0743 0.2674 0.0891 0.2601 0.0989 0.2571 0.1084 0.25 0.1177 0.2472 0.131 0.2399 0.1348 0.2374 0.1478 0.23 0.1554 0.2229 0.1583 0.2204 0.17 0.2178 0.1721 0.2107 0.1786 0.2037 0.1892 0.2012 0.1857 0.1988 0.1957 0.1964 0.2008 0.1895 0.2008 0.1872 0.2099 0.1849 0.2092 0.178 0.2128 0.1804 0.2162 0.1735 0.2146 0.1714 0.2218 0.1693 0.2195 0.1626 0.2214 0.165 0.2231 0.1584 0.2242 -1.9166 0zm0 1.3706l1.9166 -1.3706 0.0338 0.0505 0.031 0.0515 0.028 0.0526 0.0252 0.0534 0.0222 0.0543 0.0195 0.0549 0.0166 0.0555 0.0138 0.056 0.011 0.0564 0.0083 0.0567 0.0054 0.0568 0.0028 0.0569 0 0.0569 -0.0027 0.0567 -0.0054 0.0565 -0.008 0.0562 -0.0107 0.0557 -0.0134 0.0551 -0.0159 0.0545 -0.0186 0.0537 -0.0211 0.0529 -0.0237 0.0518 -0.0263 0.0509 -0.0288 0.0496 -0.0313 0.0484 -0.0338 0.0469 -0.0363 0.0455 -0.0387 0.0439 -0.0412 0.0423 -0.0436 0.0404 -0.0461 0.0385 -0.0484 0.0365 -0.0502 0.034 -0.0513 0.0311 -0.0523 0.0281 -0.0532 0.0253 -0.0539 0.0224 -0.0547 0.0196 -0.0553 0.0167 -0.0557 0.0138 -0.0561 0.0111 -0.0564 0.0083 -0.0565 0.0055 -0.0566 0.0027 -0.0566 0.0001 -0.0565 -0.0027 -0.0562 -0.0054 -0.0558 -0.0081 -0.0554 -0.0108 -0.0549 -0.0134 -0.0542 -0.016 -0.0535 -0.0187 -0.0526 -0.0212 -0.0516 -0.0239 -0.0506 -0.0264 -0.0494 -0.0289 -0.0481 -0.0314 -0.0467 -0.034 -0.0453 -0.0365 -0.0437 -0.0389 -0.042 -0.0414 -0.0402 -0.0439 -0.0384 -0.0462 -0.0363 -0.0487zm6.9931 -6.4169l0.1014 2.3614 0 0 -0.1712 0.0115 -0.1682 0.0232 -0.17 0.0296 -0.1671 0.0359 -0.1642 0.0465 -0.166 0.0521 -0.1679 0.0619 -0.1651 0.0714 -0.167 0.0805 -0.1642 0.0848 -0.1663 0.0978 -0.1636 0.1014 -0.1656 0.1092 -0.1675 0.1211 -0.1652 0.1238 -0.1624 0.1351 -0.1647 0.1414 -0.1669 0.143 -0.1642 0.1579 -0.162 0.1587 -0.1596 0.1638 -0.1619 0.173 -0.1594 0.1727 -0.1573 0.1816 -0.1596 0.185 -0.1528 0.1884 -0.1551 0.196 -0.153 0.194 -0.1507 0.2011 -0.1534 0.2028 -0.1466 0.2045 -0.1492 0.2058 -1.9166 -1.3706 0.1584 -0.2242 0.165 -0.2231 0.1626 -0.2214 0.1693 -0.2195 0.1714 -0.2218 0.1735 -0.2146 0.1804 -0.2162 0.178 -0.2128 0.1849 -0.2092 0.1872 -0.2099 0.1895 -0.2008 0.1964 -0.2008 0.1988 -0.1957 0.2012 -0.1857 0.2037 -0.1892 0.2107 -0.1786 0.2178 -0.1721 0.2204 -0.17 0.2229 -0.1583 0.23 -0.1554 0.2374 -0.1478 0.2399 -0.1348 0.2472 -0.131 0.25 -0.1177 0.2571 -0.1084 0.2601 -0.0989 0.2674 -0.0891 0.2748 -0.0743 0.2777 -0.0637 0.2804 -0.0482 0.288 -0.0324 0.291 -0.0207 0 0zm4.0562 2.9413l-1.115 -2.0836 0.0369 2.1021 -0.0815 -0.0371 -0.0776 -0.0405 -0.0785 -0.0343 -0.0839 -0.0377 -0.0802 -0.0316 -0.0856 -0.0348 -0.0817 -0.0287 -0.0827 -0.0319 -0.0834 -0.0304 -0.0888 -0.0242 -0.0851 -0.0273 -0.0859 -0.0257 -0.0867 -0.0243 -0.0873 -0.0227 -0.0883 -0.0211 -0.0891 -0.0193 -0.0898 -0.0178 -0.0906 -0.0208 -0.0915 -0.0145 -0.0922 -0.0127 -0.0929 -0.0157 -0.0938 -0.0093 -0.0946 -0.0123 -0.0952 -0.0058 -0.0961 -0.0087 -0.0968 -0.0069 -0.0931 -0.005 -0.0982 -0.0032 -0.0992 -0.0014 -0.1045 0.0006 -0.1006 0.0024 -0.1013 0.0043 -0.1014 -2.3614 0.1383 -0.0043 0.1374 -0.0024 0.1321 -0.0006 0.136 0.0014 0.1352 0.0032 0.1391 0.005 0.1336 0.0069 0.1329 0.0087 0.1322 0.015 0.1314 0.0123 0.1306 0.0185 0.1299 0.0157 0.129 0.0221 0.1283 0.0237 0.1274 0.0208 0.1268 0.027 0.1259 0.0287 0.1251 0.0303 0.1243 0.0319 0.1235 0.0335 0.1227 0.0351 0.1219 0.0365 0.1166 0.0428 0.1202 0.0396 0.1195 0.0411 0.1187 0.0473 0.1132 0.044 0.117 0.0502 0.1115 0.0469 0.1155 0.0529 0.1144 0.0497 0.1091 0.0557 0.0369 2.1021zm-1.0781 0.0185l1.0412 -2.1206 0.0536 0.0283 0.0516 0.0307 0.0495 0.0329 0.0473 0.0351 0.0452 0.0371 0.0431 0.0391 0.0408 0.041 0.0386 0.0428 0.0363 0.0444 0.034 0.046 0.0317 0.0474 0.0292 0.0488 0.0269 0.0501 0.0244 0.0512 0.0219 0.0523 0.0194 0.0533 0.0168 0.0542 0.0143 0.0549 0.0117 0.0556 0.009 0.0561 0.0063 0.0567 0.0036 0.057 0.0008 0.0573 -0.0019 0.0574 -0.0047 0.0575 -0.0076 0.0575 -0.0105 0.0574 -0.0134 0.0571 -0.0164 0.0568 -0.0193 0.0564 -0.0224 0.0559 -0.0254 0.0552 -0.0282 0.0539 -0.0305 0.0518 -0.0327 0.0497 -0.0349 0.0476 -0.037 0.0455 -0.0389 0.0432 -0.0408 0.0411 -0.0425 0.0388 -0.0442 0.0364 -0.0458 0.0342 -0.0472 0.0318 -0.0486 0.0294 -0.0498 0.027 -0.051 0.0245 -0.052 0.022 -0.053 0.0196 -0.0539 0.0169 -0.0547 0.0143 -0.0553 0.0117 -0.0559 0.0091 -0.0563 0.0064 -0.0567 0.0036 -0.057 0.0008 -0.0572 -0.0019 -0.0572 -0.0048 -0.0572 -0.0076 -0.0571 -0.0105 -0.0568 -0.0135 -0.0565 -0.0165 -0.0562 -0.0194 -0.0555 -0.0225 -0.055 -0.0255zm1.0377 0.0039l-1.4006 -1.8984 0 0 0.005 -0.0037 0.0143 -0.0131 0.0144 -0.0083 0.0051 -0.0037 0.0145 -0.0083 0.0145 -0.013 0.0099 -0.0036 0.0008 -0.0037 0.0146 -0.0083 0.0054 -0.0083 0.0101 -0.0037 0.0193 -0.0128 0.0102 -0.0036 0.0056 -0.0082 0.0103 -0.0036 0.0103 -0.0083 0.0104 -0.0036 0.0058 -0.0036 0.0151 -0.0128 0.0105 -0.0035 0.0105 -0.0083 0.0152 -0.0081 0.0014 0.0011 0.006 -0.0036 0.0245 -0.0127 0.0062 -0.0082 0.0062 -0.0035 0.0108 -0.0035 0.0109 -0.0081 0.0109 -0.0035 0.0109 -0.008 0.0064 -0.0035 1.115 2.0836 -0.0064 0.0035 -0.0017 -0.0012 -0.0017 0.0035 -0.0017 -0.0011 -0.0016 0.0035 -0.0062 0.0035 -0.0062 -0.0012 0.0123 -0.0057 -0.006 0.0036 -0.0106 0.0081 0.0032 -0.0011 -0.0013 -0.0011 -0.0013 0.0035 0.0035 -0.0056 -0.0058 0.0036 -0.0012 0.0036 -0.0011 -0.0011 -0.0011 0.0036 -0.0056 -0.001 -0.001 0.0036 0.0083 -0.0056 -0.0009 0.0037 -0.0054 -0.0011 0.0038 -0.0009 -0.01 0.0037 -0.0007 0.0036 0.0039 -0.0056 0.0041 -0.0009 -0.0051 0.0037 0.004 -0.0009 0.0041 -0.0055 -0.005 0.0037 0 0zm0.0841 0.312l-2.3496 -0.0092 0 0.0092 0 -0.0634 0.0008 -0.0632 0.0014 -0.0677 0.0021 -0.0675 0.0029 -0.0672 0.0036 -0.0669 0.009 -0.0666 0.0051 -0.0661 0.0104 -0.0656 0.0066 -0.0698 0.012 -0.069 0.0128 -0.0685 0.0136 -0.0677 0.0144 -0.067 0.0198 -0.0707 0.016 -0.0699 0.0216 -0.0689 0.0222 -0.068 0.0278 -0.0715 0.024 -0.0705 0.034 -0.0738 0.0304 -0.0682 0.0404 -0.076 0.0367 -0.0701 0.0469 -0.0733 0.0477 -0.0719 0.0533 -0.0751 0.0587 -0.0735 0.0644 -0.0719 0.0699 -0.0702 0.0754 -0.0639 0.081 -0.0668 1.4006 1.8984 0.0296 -0.0258 0.0258 -0.0195 0.0223 -0.0224 0.0186 -0.0207 0.0149 -0.0191 0.0113 -0.0175 0.0075 -0.0115 0.0085 -0.0099 0.0001 -0.0041 0.0056 -0.0072 -0.0026 0.0032 0.0028 -0.0002 -0.0056 0.0057 -0.0002 0.0067 -0.0038 0.0124 -0.003 0.0133 -0.0068 0.0143 -0.0014 0.0153 -0.0052 0.0206 -0.0044 0.0215 -0.0036 0.0221 -0.0028 0.0228 -0.0066 0.0234 -0.0012 0.0286 -0.0051 0.0291 0.0002 0.0294 -0.0036 0.0299 -0.0029 0.0302 -0.0021 0.0305 -0.0014 0.0307 -0.0008 0.0354 0 0.0356 0 0.0092zm-2.3496 0l2.3496 -0.0092 -0.0013 0.0608 -0.0043 0.0599 -0.0072 0.0591 -0.0102 0.0582 -0.0129 0.0572 -0.0156 0.0561 -0.0182 0.0549 -0.0209 0.0537 -0.0233 0.0524 -0.0257 0.051 -0.0281 0.0496 -0.0304 0.048 -0.0326 0.0464 -0.0347 0.0448 -0.0367 0.043 -0.0388 0.0411 -0.0406 0.0393 -0.0425 0.0372 -0.0442 0.0353 -0.046 0.0331 -0.0475 0.0309 -0.0491 0.0286 -0.0505 0.0263 -0.052 0.0238 -0.0533 0.0214 -0.0545 0.0188 -0.0557 0.0161 -0.0567 0.0134 -0.0578 0.0106 -0.0588 0.0077 -0.0597 0.0048 -0.0604 0.0018 -0.0605 -0.0013 -0.0596 -0.0043 -0.0589 -0.0073 -0.0579 -0.0102 -0.0568 -0.0129 -0.0559 -0.0157 -0.0546 -0.0184 -0.0534 -0.0209 -0.0522 -0.0235 -0.0507 -0.0258 -0.0493 -0.0283 -0.0478 -0.0305 -0.0462 -0.0328 -0.0445 -0.0348 -0.0428 -0.037 -0.041 -0.0389 -0.039 -0.0409 -0.0371 -0.0427 -0.0351 -0.0444 -0.0329 -0.0462 -0.0307 -0.0478 -0.0285 -0.0493 -0.0262 -0.0508 -0.0237 -0.0522 -0.0212 -0.0536 -0.0187 -0.0547 -0.0161 -0.056 -0.0133 -0.0571 -0.0106 -0.0581 -0.0077 -0.059 -0.0047 -0.06 -0.0018 -0.0607zm2.4152 0.6154l-1.8612 1.4446 0 0 -0.0502 -0.0659 -0.045 -0.0677 -0.04 -0.0648 -0.035 -0.0663 -0.0344 -0.0678 -0.0294 -0.0602 -0.029 -0.0661 -0.0284 -0.063 -0.0233 -0.0643 -0.0228 -0.0609 -0.0223 -0.062 -0.0172 -0.0632 -0.0213 -0.0643 -0.0161 -0.0606 -0.0155 -0.0617 -0.015 -0.0672 -0.0143 -0.0633 -0.0138 -0.0596 -0.0087 -0.0649 -0.0126 -0.0656 -0.012 -0.0662 -0.0067 -0.0667 -0.0108 -0.0626 -0.0055 -0.0676 -0.0049 -0.0634 -0.0088 -0.0684 -0.0035 -0.064 -0.0029 -0.0687 -0.0022 -0.0644 -0.0015 -0.069 -0.0008 -0.0644 -0.0001 -0.0644 2.3496 0.0092 0.0001 0.0366 0.0008 0.0366 0.0015 0.032 0.0022 0.0366 0.0029 0.0317 0.0035 0.0362 -0.0004 0.0314 0.0049 0.0356 0.0055 0.0306 0.0016 0.0348 0.0067 0.0297 0.0028 0.0292 0.0034 0.0284 0.0087 0.0279 0.0046 0.0318 0.0051 0.0263 0.0058 0.021 0.0063 0.0245 0.0069 0.0236 0.0027 0.0181 0.008 0.0168 0.0039 0.0158 0.0044 0.0145 0.0049 0.0087 0.0008 0.0074 0.0012 0.0013 0.0018 0.0046 -0.0024 -0.0062 -0.0018 -0.0077 -0.0062 -0.0094 -0.0102 -0.0157 -0.0144 -0.0173 0 0zm1.7033 0.8558l-1.207 2.028 0.0046 0 0.0431 0.025 0.0206 0.0116 0.0075 0.0027 -0.0098 -0.0017 -0.0226 -0.0063 -0.0303 -0.0111 -0.0428 -0.0161 -0.0501 -0.012 -0.0575 -0.0172 -0.0646 -0.0228 -0.0715 -0.0192 -0.0737 -0.025 -0.0802 -0.0266 -0.0818 -0.028 -0.0926 -0.0298 -0.0895 -0.0365 -0.0951 -0.0386 -0.1008 -0.0454 -0.0969 -0.0434 -0.1067 -0.0506 -0.1026 -0.0582 -0.1073 -0.0611 -0.1074 -0.0644 -0.1072 -0.0724 -0.1115 -0.076 -0.1062 -0.0842 -0.1102 -0.0883 -0.1045 -0.097 -0.1082 -0.1013 -0.1021 -0.1058 -0.1007 -0.115 -0.0989 -0.1245 1.8612 -1.4446 0.0345 0.0411 0.0361 0.041 0.0377 0.0408 0.0344 0.0365 0.0401 0.0322 0.0364 0.0327 0.0418 0.0288 0.0377 0.0296 0.0428 0.0262 0.0428 0.0272 0.0429 0.0241 0.0472 0.0212 0.0423 0.0228 0.0507 0.0248 0.0456 0.0178 0.0491 0.02 0.0525 0.0179 0.0466 0.0206 0.0542 0.0188 0.0526 0.0172 0.0551 0.0158 0.0531 0.0192 0.0554 0.0136 0.0575 0.0172 0.0593 0.0212 0.0612 0.0161 0.0673 0.0203 0.0686 0.0249 0.0744 0.0295 0.0845 0.0343 0.09 0.044 0.1043 0.0584 0.0046 0zm1.4693 2.6088l-2.3496 -0.0186 0 0.0186 -0.0013 -0.0325 -0.0026 -0.0318 -0.004 -0.0312 -0.0009 -0.026 -0.0023 -0.03 -0.0038 -0.0201 -0.0054 -0.024 -0.0024 -0.0234 -0.0085 -0.0182 -0.0009 -0.0174 -0.0074 -0.0168 -0.0044 -0.0162 -0.0062 -0.0153 -0.0034 -0.0101 -0.0098 -0.014 -0.0025 -0.0133 -0.009 -0.0124 -0.0063 -0.0119 -0.0084 -0.0109 -0.0104 -0.015 -0.0078 -0.0095 -0.0099 -0.0134 -0.012 -0.0125 -0.0143 -0.0164 -0.0118 -0.0156 -0.0187 -0.0148 -0.0165 -0.0139 -0.0232 -0.0178 -0.0257 -0.0169 -0.0234 -0.0207 -0.0306 -0.0152 -0.0329 -0.0236 1.207 -2.028 0.0883 0.0514 0.0858 0.0614 0.088 0.0577 0.0809 0.0633 0.0786 0.064 0.0809 0.0695 0.0739 0.0704 0.0764 0.0712 0.0695 0.072 0.0674 0.0773 0.0651 0.0782 0.0632 0.0835 0.0564 0.0798 0.0544 0.0851 0.0525 0.0859 0.0458 0.0866 0.0485 0.0873 0.0376 0.0882 0.0402 0.0933 0.0338 0.0895 0.032 0.0902 0.0258 0.0908 0.0287 0.0916 0.0177 0.0922 0.0208 0.0882 0.0146 0.089 0.013 0.0941 0.0115 0.0856 0.0101 0.0908 0.004 0.0868 0.0026 0.0874 0.0013 0.0879 0 0.0186zm-2.3496 0l2.3496 -0.0186 -0.0011 0.0608 -0.004 0.06 -0.0071 0.0591 -0.0098 0.0582 -0.0127 0.0572 -0.0154 0.0562 -0.0181 0.055 -0.0206 0.0538 -0.0231 0.0525 -0.0255 0.0511 -0.028 0.0497 -0.0301 0.0481 -0.0324 0.0466 -0.0346 0.0448 -0.0365 0.0432 -0.0386 0.0413 -0.0405 0.0394 -0.0424 0.0375 -0.0441 0.0354 -0.0458 0.0332 -0.0474 0.0311 -0.049 0.0289 -0.0504 0.0264 -0.0519 0.0241 -0.0531 0.0216 -0.0545 0.019 -0.0556 0.0163 -0.0567 0.0136 -0.0578 0.0109 -0.0587 0.008 -0.0597 0.005 -0.0604 0.002 -0.0605 -0.0011 -0.0597 -0.0041 -0.0588 -0.007 -0.0579 -0.0099 -0.057 -0.0128 -0.0559 -0.0154 -0.0547 -0.0182 -0.0535 -0.0207 -0.0522 -0.0232 -0.0509 -0.0257 -0.0494 -0.028 -0.0479 -0.0304 -0.0463 -0.0325 -0.0447 -0.0347 -0.0429 -0.0368 -0.0411 -0.0388 -0.0392 -0.0407 -0.0373 -0.0425 -0.0352 -0.0444 -0.0331 -0.046 -0.031 -0.0477 -0.0287 -0.0492 -0.0263 -0.0507 -0.0239 -0.0521 -0.0215 -0.0534 -0.0189 -0.0547 -0.0162 -0.0559 -0.0136 -0.0571 -0.0108 -0.058 -0.0079 -0.059 -0.005 -0.06 -0.002 -0.0607zm1.2706 5.1931l-2.3496 -0.0092 0 0.0139 0.0016 -0.2115 0.0076 -0.2163 0.0178 -0.2117 0.0185 -0.2071 0.028 -0.207 0.0324 -0.2023 0.0365 -0.1973 0.0401 -0.1968 0.0433 -0.1965 0.0463 -0.1912 0.0487 -0.1859 0.0508 -0.1851 0.0479 -0.1796 0.0538 -0.1787 0.05 -0.1729 0.0552 -0.1718 0.0506 -0.1706 0.0503 -0.1599 0.0496 -0.1631 0.0439 -0.1569 0.047 -0.1508 0.0404 -0.1488 0.0383 -0.1425 0.0355 -0.1359 0.0325 -0.1339 0.029 -0.127 0.0251 -0.1202 0.0209 -0.1133 0.0162 -0.1063 0.0111 -0.0991 0.0057 -0.0919 0.0044 -0.0845 2.3496 0.0186 -0.0044 0.1863 -0.0149 0.1845 -0.0203 0.1825 -0.0254 0.1803 -0.0301 0.1781 -0.0343 0.1758 -0.0382 0.1734 -0.0417 0.1709 -0.0447 0.1729 -0.0475 0.1703 -0.0498 0.1674 -0.047 0.1692 -0.0531 0.1661 -0.0496 0.1631 -0.0503 0.1693 -0.0506 0.1612 -0.046 0.1626 -0.05 0.1637 -0.0444 0.1601 -0.0479 0.1612 -0.0416 0.1573 -0.0395 0.1581 -0.0371 0.1542 -0.0341 0.1501 -0.0309 0.1506 -0.0273 0.1509 -0.0232 0.1467 -0.0188 0.1422 -0.0185 0.1423 -0.0086 0.1377 -0.0076 0.1329 -0.0016 0.1373 0 0.0139zm-2.3496 0.0047l2.3496 -0.0186 -0.0011 0.0608 -0.004 0.06 -0.0071 0.0591 -0.0098 0.0582 -0.0127 0.0572 -0.0154 0.0562 -0.0181 0.055 -0.0206 0.0538 -0.0231 0.0525 -0.0255 0.0511 -0.028 0.0497 -0.0301 0.0481 -0.0324 0.0466 -0.0346 0.0448 -0.0365 0.0432 -0.0386 0.0413 -0.0405 0.0394 -0.0424 0.0375 -0.0441 0.0354 -0.0458 0.0332 -0.0474 0.0311 -0.049 0.0289 -0.0504 0.0264 -0.0519 0.0241 -0.0531 0.0216 -0.0545 0.019 -0.0556 0.0163 -0.0567 0.0136 -0.0578 0.0109 -0.0587 0.008 -0.0597 0.005 -0.0604 0.002 -0.0605 -0.0011 -0.0597 -0.0041 -0.0588 -0.007 -0.0579 -0.0099 -0.057 -0.0128 -0.0559 -0.0154 -0.0547 -0.0182 -0.0535 -0.0207 -0.0522 -0.0232 -0.0509 -0.0257 -0.0494 -0.028 -0.0479 -0.0304 -0.0463 -0.0325 -0.0447 -0.0347 -0.0429 -0.0368 -0.0411 -0.0388 -0.0392 -0.0407 -0.0373 -0.0425 -0.0352 -0.0444 -0.0331 -0.046 -0.031 -0.0477 -0.0287 -0.0492 -0.0263 -0.0507 -0.0239 -0.0521 -0.0215 -0.0534 -0.0189 -0.0547 -0.0162 -0.0559 -0.0136 -0.0571 -0.0108 -0.058 -0.0079 -0.059 -0.005 -0.06 -0.002 -0.0607zm0.2897 1.6358l2.3404 -0.213 -2.2575 0.5603 -0.0238 -0.061 -0.0231 -0.0611 -0.027 -0.0657 -0.0216 -0.0613 -0.0209 -0.0659 -0.0201 -0.0614 -0.0195 -0.0662 -0.0187 -0.0614 -0.0182 -0.0616 -0.0173 -0.0664 -0.0167 -0.0617 -0.0161 -0.0664 -0.0153 -0.0619 -0.0101 -0.0619 -0.0141 -0.0619 -0.0135 -0.0668 -0.0082 -0.0621 -0.0122 -0.062 -0.007 -0.0622 -0.0064 -0.0623 -0.0105 -0.0622 -0.0052 -0.0624 -0.0047 -0.0623 -0.0087 -0.0625 -0.0035 -0.0624 -0.0031 -0.0625 -0.0024 -0.0625 -0.002 -0.0625 -0.0014 -0.0579 -0.0009 -0.0626 -0.0005 -0.0581 0.0001 -0.0579 2.3496 0.0092 -0.0001 0.0395 0.0005 0.0395 0.0009 0.0348 0.0014 0.0395 0.002 0.0347 0.0024 0.0347 0.0031 0.0347 0.0035 0.0346 -0.0005 0.0347 0.0047 0.0345 0.0052 0.0346 0.0013 0.0344 0.0064 0.0345 0.007 0.0344 0.003 0.0344 0.0082 0.0343 0.0043 0.0296 0.0049 0.0343 0.0101 0.0341 0.0061 0.0341 0.0069 0.0294 0.0075 0.0339 0.0081 0.0292 0.0088 0.0338 0.0095 0.0338 0.0103 0.029 0.0109 0.0336 0.0117 0.0289 0.0124 0.0335 0.0086 0.0287 0.0139 0.0333 0.0146 0.0332 -2.2575 0.5603zm0.0829 0.3473l2.1746 -0.9076 0.0218 0.0568 0.0187 0.0573 0.0157 0.0575 0.0127 0.0578 0.0097 0.0579 0.0067 0.058 0.0039 0.0579 0.0011 0.0578 -0.0018 0.0574 -0.0046 0.0572 -0.0072 0.0567 -0.01 0.0561 -0.0126 0.0555 -0.0152 0.0548 -0.0178 0.0539 -0.0204 0.053 -0.0228 0.0519 -0.0252 0.0508 -0.0277 0.0496 -0.03 0.0483 -0.0324 0.0468 -0.0347 0.0453 -0.0369 0.0437 -0.0391 0.042 -0.0413 0.0402 -0.0434 0.0382 -0.0455 0.0363 -0.0476 0.0341 -0.0495 0.032 -0.0516 0.0297 -0.0534 0.0272 -0.0554 0.0248 -0.0565 0.0219 -0.057 0.0189 -0.0573 0.0157 -0.0575 0.0127 -0.0576 0.0098 -0.0577 0.0068 -0.0576 0.0039 -0.0575 0.001 -0.0572 -0.0017 -0.0568 -0.0046 -0.0564 -0.0073 -0.0559 -0.01 -0.0552 -0.0127 -0.0545 -0.0153 -0.0536 -0.0179 -0.0528 -0.0204 -0.0516 -0.0229 -0.0506 -0.0254 -0.0493 -0.0278 -0.0481 -0.0302 -0.0466 -0.0325 -0.0451 -0.0349 -0.0434 -0.0371 -0.0418 -0.0393 -0.04 -0.0415 -0.0381 -0.0436 -0.036 -0.0457 -0.034 -0.0478 -0.0318 -0.0498 -0.0295 -0.0518 -0.0272 -0.0538 -0.0246 -0.0556zm2.1572 -1.0318l-2.1562 0.9538 2.2529 -0.5649 0.0002 -0.0015 0.0003 0.0032 0.0002 0.0216 0.0002 -0.0153 0.0003 0.0031 0.0002 0.0032 0.0003 0.0031 0.0002 0.0217 0.0002 -0.0154 0.0003 0.0032 0.0002 0.0031 0.0003 0.0032 0.0002 0.0031 0.0003 0.0032 0.0002 0.0031 0.0003 0.0078 0.0002 -0.0014 0.0003 0.0031 0.0002 0.0032 -0.0043 -0.0108 0.0049 0.0217 0.0002 -0.0014 -0.0043 -0.0108 0.0049 0.0217 0.0002 0.0032 -0.0043 -0.0153 0.0003 0.0031 0.0049 0.0217 0.0002 -0.0014 -0.0043 -0.0108 0.0003 0.0032 0.0003 0.0032 -2.3404 0.213 -0.0003 -0.0032 -0.0003 -0.0032 -0.0049 -0.017 -0.0002 -0.0078 0.0043 0.0153 -0.0003 -0.0031 -0.0049 -0.0217 -0.0002 -0.0032 0.0043 0.0153 -0.0049 -0.017 -0.0002 -0.0078 0.0043 0.0153 -0.0049 -0.017 -0.0002 -0.0032 -0.0003 -0.0031 -0.0002 -0.0078 -0.0003 0.0014 -0.0002 -0.0031 -0.0003 -0.0032 -0.0002 -0.0031 -0.0003 -0.0032 -0.0002 -0.0031 -0.0003 -0.0032 -0.0002 -0.0216 -0.0002 0.0153 -0.0003 -0.0031 -0.0002 -0.0032 -0.0003 -0.0031 -0.0002 -0.0217 -0.0002 0.0154 -0.0003 -0.0032 -0.0002 -0.0077 2.2529 -0.5649zm0.0967 0.3889l-2.3496 0.176 -0.003 -0.0609 0.0001 -0.0603 0.0031 -0.0596 0.006 -0.0589 0.0089 -0.0581 0.0117 -0.0572 0.0144 -0.0563 0.0171 -0.0552 0.0196 -0.054 0.0222 -0.0529 0.0246 -0.0515 0.027 -0.0502 0.0294 -0.0488 0.0315 -0.0472 0.0338 -0.0456 0.0358 -0.0439 0.0379 -0.0422 0.0399 -0.0403 0.0418 -0.0384 0.0436 -0.0363 0.0454 -0.0343 0.0471 -0.0321 0.0487 -0.0299 0.0503 -0.0276 0.0518 -0.0251 0.0532 -0.0226 0.0546 -0.0201 0.0558 -0.0175 0.0571 -0.0147 0.0582 -0.0119 0.0594 -0.009 0.0603 -0.0061 0.0606 -0.003 0.06 0.0001 0.0593 0.0031 0.0586 0.0061 0.0578 0.0089 0.057 0.0117 0.0559 0.0145 0.055 0.0171 0.0537 0.0198 0.0526 0.0223 0.0513 0.0247 0.05 0.0272 0.0485 0.0294 0.047 0.0318 0.0453 0.0339 0.0437 0.036 0.042 0.0381 0.0401 0.0401 0.0382 0.042 0.0361 0.0438 0.0342 0.0456 0.0319 0.0474 0.0297 0.0489 0.0274 0.0506 0.025 0.052 0.0226 0.0535 0.02 0.0548 0.0173 0.0562 0.0146 0.0573 0.0119 0.0585 0.009 0.0597 0.006 0.0606zm-2.3368 0.2151l2.3404 -0.213 -2.2529 0.5695 -0.0187 -0.0422 -0.0002 -0.0007 0.0273 0.0642 -0.0279 -0.0655 0.0136 0.0271 -0.0141 -0.0283 -0.0002 -0.0007 -0.0003 -0.0006 -0.0002 -0.0007 -0.0003 -0.0006 -0.0002 -0.0007 -0.0003 -0.0006 -0.0002 -0.0007 -0.0003 -0.0006 -0.0002 -0.0007 0.0135 0.0271 -0.014 -0.0283 -0.0003 -0.0007 -0.0002 -0.0006 -0.0003 -0.0007 -0.0002 -0.0006 -0.0003 -0.0007 -0.0002 -0.0006 -0.0003 -0.0007 -0.0002 -0.0006 -0.0003 -0.0007 0.0136 0.0271 0.0135 0.0365 -0.0279 -0.0655 -0.0002 -0.0006 0.0273 0.0641 -0.0049 -0.0099 2.1562 -0.9538 -0.0043 -0.0087 0.0279 0.0655 0.0002 0.0006 -0.0273 -0.0641 0.0141 0.0377 0.014 0.0283 0.0003 0.0007 0.0002 0.0006 0.0003 0.0007 0.0002 0.0006 0.0003 0.0007 0.0002 0.0006 0.0003 0.0007 0.0002 0.0006 0.0003 0.0007 -0.0136 -0.0271 0.0141 0.0283 0.0002 0.0007 0.0003 0.0006 0.0002 0.0007 0.0003 0.0006 0.0002 0.0007 0.0003 0.0006 0.0002 0.0007 0.0003 0.0006 0.0002 0.0007 -0.0135 -0.0271 0.014 0.0283 -0.0273 -0.0641 0.0279 0.0654 0.0002 0.0007 -0.0181 -0.041 -2.2529 0.5695zm0.0875 0.3565l2.1654 -0.926 0.0223 0.0566 0.0192 0.057 0.0162 0.0574 0.0131 0.0577 0.0102 0.0578 0.0073 0.0579 0.0044 0.0578 0.0015 0.0577 -0.0013 0.0575 -0.004 0.0571 -0.0068 0.0567 -0.0095 0.0562 -0.0121 0.0556 -0.0147 0.0548 -0.0173 0.0541 -0.0199 0.0531 -0.0223 0.0521 -0.0248 0.051 -0.0273 0.0498 -0.0296 0.0485 -0.0319 0.0471 -0.0343 0.0456 -0.0365 0.044 -0.0387 0.0423 -0.0409 0.0405 -0.0431 0.0386 -0.0451 0.0366 -0.0473 0.0346 -0.0492 0.0324 -0.0513 0.03 -0.0532 0.0278 -0.0551 0.0252 -0.0563 0.0224 -0.0568 0.0193 -0.0571 0.0163 -0.0573 0.0132 -0.0576 0.0102 -0.0576 0.0074 -0.0575 0.0044 -0.0574 0.0015 -0.0572 -0.0013 -0.0569 -0.004 -0.0564 -0.0069 -0.0559 -0.0095 -0.0553 -0.0122 -0.0546 -0.0148 -0.0538 -0.0174 -0.0528 -0.0199 -0.0519 -0.0225 -0.0507 -0.0249 -0.0496 -0.0274 -0.0482 -0.0297 -0.0469 -0.0321 -0.0453 -0.0344 -0.0438 -0.0367 -0.0421 -0.039 -0.0403 -0.0411 -0.0384 -0.0433 -0.0365 -0.0454 -0.0344 -0.0474 -0.0322 -0.0495 -0.0299 -0.0515 -0.0276 -0.0535 -0.0251 -0.0554zm-0.1129 -0.8761l2.3496 0.0092 0 -0.0139 0.0002 0.0079 0.0001 0.0079 0.0003 0.0078 0.0002 0.0125 0.0003 0.008 0.0003 0.0125 0.0003 0.008 0.0004 0.008 0.0004 0.0079 0.0005 0.0127 0.0004 0.0126 0.0005 0.0081 0.0005 0.0081 0.0006 0.008 0.0006 0.0128 0.0006 0.0081 0.0007 0.0128 0.0007 0.0128 0.0007 0.0035 0.0008 0.0082 0.0008 0.0129 0.0008 0.0128 0.0009 0.0129 0.0008 0.0083 0.001 0.0084 0.0009 0.0129 0.001 0.0037 0.0011 0.013 0.001 0.013 0.0011 0.0084 -0.0035 0.0083 0.0012 0.0085 -2.3404 0.213 -0.0012 -0.0177 -0.0057 -0.0177 -0.0011 -0.0176 -0.001 -0.013 -0.0011 -0.013 -0.001 -0.0223 -0.0009 -0.0129 -0.001 -0.0176 -0.0008 -0.0175 -0.0009 -0.0129 -0.0008 -0.0128 -0.0008 -0.0129 -0.0008 -0.0174 -0.0007 -0.0221 -0.0007 -0.0128 -0.0007 -0.0128 -0.0006 -0.0173 -0.0006 -0.0128 -0.0006 -0.0174 -0.0005 -0.0173 -0.0005 -0.0173 -0.0004 -0.0126 -0.0005 -0.0127 -0.0004 -0.0173 -0.0004 -0.0172 -0.0003 -0.0172 -0.0003 -0.0125 -0.0003 -0.0172 -0.0002 -0.0125 -0.0003 -0.0172 -0.0001 -0.0171 -0.0002 -0.0171 0 -0.0139zm2.3496 -0.0047l-2.3496 0.0186 0.0011 -0.0608 0.004 -0.06 0.0071 -0.0591 0.0098 -0.0582 0.0127 -0.0572 0.0154 -0.0562 0.0181 -0.055 0.0206 -0.0538 0.0231 -0.0525 0.0255 -0.0511 0.028 -0.0497 0.0301 -0.0481 0.0324 -0.0466 0.0346 -0.0448 0.0365 -0.0432 0.0386 -0.0413 0.0405 -0.0394 0.0424 -0.0375 0.0441 -0.0354 0.0458 -0.0332 0.0474 -0.0311 0.049 -0.0289 0.0504 -0.0264 0.0519 -0.0241 0.0531 -0.0216 0.0545 -0.019 0.0556 -0.0163 0.0567 -0.0136 0.0578 -0.0109 0.0587 -0.008 0.0597 -0.005 0.0604 -0.002 0.0605 0.0011 0.0597 0.0041 0.0588 0.007 0.0579 0.0099 0.057 0.0128 0.0559 0.0154 0.0547 0.0182 0.0535 0.0207 0.0522 0.0232 0.0509 0.0257 0.0494 0.028 0.0479 0.0304 0.0463 0.0325 0.0447 0.0347 0.0429 0.0368 0.0411 0.0388 0.0392 0.0407 0.0373 0.0425 0.0352 0.0444 0.0331 0.046 0.031 0.0477 0.0287 0.0492 0.0263 0.0507 0.0239 0.0521 0.0215 0.0534 0.0189 0.0547 0.0162 0.0559 0.0136 0.0571 0.0108 0.058 0.0079 0.059 0.005 0.06 0.002 0.0607zm2.837 -4.9544l-2.3312 0.3242 1.9718 0.6991 -0.1417 0.1345 -0.1444 0.1336 -0.1331 0.1328 -0.1353 0.1323 -0.1328 0.1318 -0.1256 0.1269 -0.1227 0.1269 -0.1197 0.1269 -0.1119 0.1224 -0.113 0.1229 -0.105 0.1234 -0.1013 0.1195 -0.0928 0.1204 -0.0932 0.1167 -0.0846 0.118 -0.0801 0.1192 -0.0756 0.1162 -0.0707 0.1132 -0.0705 0.1151 -0.0608 0.117 -0.0556 0.1147 -0.0501 0.1168 -0.0445 0.1148 -0.0434 0.1173 -0.0374 0.1156 -0.0313 0.1185 -0.0296 0.1216 -0.0232 0.125 -0.0211 0.1283 -0.0098 0.132 -0.012 0.131 -0.0048 0.1397 -2.3496 -0.0092 0.0048 -0.2323 0.012 -0.233 0.0282 -0.2246 0.0303 -0.2209 0.0416 -0.2176 0.048 -0.2142 0.0591 -0.2111 0.065 -0.2082 0.071 -0.2007 0.0813 -0.198 0.0871 -0.191 0.0924 -0.1887 0.0976 -0.1818 0.0981 -0.1799 0.1077 -0.178 0.1124 -0.1718 0.1169 -0.1656 0.1214 -0.1642 0.121 -0.1631 0.1296 -0.1574 0.1289 -0.1565 0.1326 -0.1512 0.1316 -0.1507 0.1395 -0.1502 0.1381 -0.1455 0.1411 -0.1453 0.144 -0.1455 0.142 -0.141 0.1445 -0.1415 0.1515 -0.1422 0.1444 -0.1428 0.1511 -0.1437 1.9718 0.6991zm-0.3594 1.0233l-1.6124 -1.7224 0.0451 -0.0406 0.0467 -0.0378 0.048 -0.0351 0.0493 -0.0323 0.0504 -0.0296 0.0515 -0.0268 0.0525 -0.0241 0.0534 -0.0214 0.0541 -0.0187 0.0547 -0.0159 0.0553 -0.0132 0.0558 -0.0105 0.0561 -0.0077 0.0563 -0.0051 0.0564 -0.0023 0.0564 0.0004 0.0564 0.0031 0.0562 0.0057 0.0559 0.0085 0.0555 0.0112 0.055 0.0139 0.0544 0.0165 0.0537 0.0193 0.0529 0.0219 0.0519 0.0246 0.051 0.0272 0.0498 0.03 0.0485 0.0326 0.0473 0.0353 0.0458 0.0379 0.0442 0.0406 0.0426 0.0433 0.0404 0.0454 0.0376 0.0468 0.0349 0.0483 0.0322 0.0495 0.0294 0.0507 0.0267 0.0518 0.024 0.0528 0.0212 0.0536 0.0186 0.0544 0.0158 0.055 0.0132 0.0556 0.0104 0.056 0.0077 0.0563 0.005 0.0566 0.0023 0.0567 -0.0003 0.0568 -0.0031 0.0566 -0.0058 0.0565 -0.0084 0.0562 -0.0111 0.0558 -0.0138 0.0553 -0.0165 0.0546 -0.0191 0.054 -0.0218 0.0531 -0.0245 0.0522 -0.0272 0.0512 -0.0297 0.0501 -0.0325 0.0488 -0.0351 0.0475 -0.0378 0.046 -0.0404 0.0445 -0.043 0.0428zm0.4587 0.6002l-2.3496 -0.037 0 0.0092 0.0004 -0.0407 0.0002 -0.0408 0 -0.0454 -0.0002 -0.0408 -0.0004 -0.0361 -0.0007 -0.0407 -0.0008 -0.0406 -0.001 -0.0407 -0.0012 -0.0407 -0.0014 -0.0406 -0.0016 -0.0405 -0.0019 -0.036 -0.002 -0.0405 -0.0023 -0.0406 -0.0024 -0.0405 -0.0027 -0.0404 -0.0029 -0.0359 -0.0031 -0.0405 -0.0033 -0.0403 -0.0035 -0.0404 -0.0038 -0.0404 0.0007 -0.0357 -0.0042 -0.0403 -0.0044 -0.0403 -0.0046 -0.0403 -0.0048 -0.0402 -0.005 -0.0356 -0.0053 -0.0402 -0.0009 -0.0402 -0.0057 -0.0354 -0.0059 -0.0402 -0.0062 -0.04 2.3312 -0.3242 0.0062 0.0494 0.0059 0.0494 0.0057 0.054 0.0101 0.0494 0.0053 0.0494 0.005 0.0542 0.0048 0.0494 0.0046 0.0495 0.0044 0.0497 0.0042 0.0495 0.0085 0.0543 0.0038 0.0496 0.0035 0.0496 0.0033 0.0497 0.0031 0.0497 0.0029 0.0543 0.0027 0.0498 0.0024 0.0497 0.0023 0.0498 0.002 0.0499 0.0019 0.0544 0.0016 0.0499 0.0014 0.0498 0.0012 0.0499 0.001 0.0499 0.0008 0.05 0.0007 0.0499 0.0004 0.0547 0.0002 0.05 0 0.0454 -0.0002 0.05 -0.0004 0.0501 0 0.0092zm-2.3496 -0.0278l2.3496 0.0186 -0.002 0.0607 -0.005 0.06 -0.0079 0.059 -0.0108 0.058 -0.0136 0.0571 -0.0162 0.0559 -0.0189 0.0547 -0.0215 0.0534 -0.0239 0.0521 -0.0263 0.0507 -0.0287 0.0492 -0.031 0.0477 -0.0331 0.046 -0.0352 0.0444 -0.0373 0.0425 -0.0392 0.0407 -0.0411 0.0388 -0.0429 0.0368 -0.0447 0.0347 -0.0463 0.0325 -0.0479 0.0304 -0.0494 0.028 -0.0509 0.0257 -0.0522 0.0232 -0.0535 0.0207 -0.0547 0.0182 -0.0559 0.0154 -0.057 0.0128 -0.0579 0.0099 -0.0588 0.007 -0.0597 0.0041 -0.0605 0.0011 -0.0604 -0.002 -0.0597 -0.005 -0.0587 -0.008 -0.0578 -0.0109 -0.0567 -0.0136 -0.0556 -0.0163 -0.0545 -0.019 -0.0531 -0.0216 -0.0519 -0.0241 -0.0504 -0.0264 -0.049 -0.0289 -0.0474 -0.0311 -0.0458 -0.0332 -0.0441 -0.0354 -0.0424 -0.0375 -0.0405 -0.0394 -0.0386 -0.0413 -0.0365 -0.0432 -0.0346 -0.0448 -0.0324 -0.0466 -0.0301 -0.0481 -0.028 -0.0497 -0.0255 -0.0511 -0.0231 -0.0525 -0.0206 -0.0538 -0.0181 -0.055 -0.0154 -0.0562 -0.0127 -0.0572 -0.0098 -0.0582 -0.0071 -0.0591 -0.004 -0.06 -0.0011 -0.0608zm-13.8406 20.9991l1.3914 -1.9076 -1.3914 0 0.5212 -0.3899 0.541 -0.4136 0.5496 -0.4365 0.5604 -0.4539 0.5696 -0.4795 0.5764 -0.4996 0.5858 -0.5144 0.5839 -0.5371 0.5844 -0.55 0.583 -0.5664 0.5795 -0.582 0.5738 -0.5967 0.5661 -0.6057 0.5516 -0.6232 0.5444 -0.6305 0.5304 -0.6415 0.5097 -0.6469 0.4914 -0.6561 0.4713 -0.6643 0.449 -0.6669 0.4244 -0.6688 0.3981 -0.6743 0.3694 -0.6743 0.3388 -0.6778 0.3013 -0.6714 0.2711 -0.6732 0.2342 -0.6696 0.1951 -0.6602 0.1587 -0.6547 0.1155 -0.6482 0.0748 -0.6409 0.0367 -0.6326 2.3496 0.037 -0.0367 0.79 -0.0932 0.7891 -0.1431 0.7872 -0.1863 0.7843 -0.2321 0.7806 -0.271 0.7714 -0.3079 0.7658 -0.3475 0.764 -0.3756 0.752 -0.4062 0.7483 -0.4349 0.7391 -0.4614 0.7336 -0.4858 0.7225 -0.5081 0.7107 -0.5284 0.7023 -0.5465 0.6933 -0.558 0.6785 -0.572 0.6675 -0.5886 0.651 -0.5937 0.6427 -0.6014 0.6245 -0.6071 0.6098 -0.6106 0.5942 -0.6122 0.5778 -0.6115 0.5557 -0.6042 0.542 -0.604 0.5182 -0.5972 0.4981 -0.5882 0.4817 -0.5772 0.4549 -0.5594 0.4322 -0.5488 0.4083 -1.3914 0zm0 -1.9076l1.3914 1.9076 -0.0497 0.0347 -0.0509 0.0319 -0.0519 0.0289 -0.0529 0.026 -0.0537 0.0232 -0.0544 0.0203 -0.055 0.0175 -0.0556 0.0147 -0.0559 0.0118 -0.0563 0.0091 -0.0565 0.0063 -0.0566 0.0036 -0.0566 0.0008 -0.0566 -0.0019 -0.0563 -0.0046 -0.056 -0.0073 -0.0556 -0.01 -0.055 -0.0126 -0.0545 -0.0153 -0.0537 -0.0179 -0.0529 -0.0205 -0.052 -0.0231 -0.051 -0.0257 -0.0498 -0.0282 -0.0486 -0.0308 -0.0473 -0.0333 -0.0458 -0.0359 -0.0442 -0.0383 -0.0426 -0.0408 -0.0409 -0.0433 -0.039 -0.0457 -0.037 -0.0482 -0.0346 -0.05 -0.0316 -0.0511 -0.0288 -0.0522 -0.0259 -0.0531 -0.0231 -0.054 -0.0202 -0.0546 -0.0174 -0.0554 -0.0146 -0.0558 -0.0118 -0.0562 -0.009 -0.0566 -0.0063 -0.0568 -0.0036 -0.0569 -0.0008 -0.0569 0.0019 -0.0568 0.0046 -0.0565 0.0073 -0.0563 0.0099 -0.0559 0.0126 -0.0553 0.0152 -0.0548 0.0178 -0.054 0.0204 -0.0532 0.023 -0.0522 0.0256 -0.0512 0.0281 -0.0501 0.0306 -0.0488 0.0332 -0.0475 0.0356 -0.046 0.0382 -0.0445 0.0406 -0.0428 0.0431 -0.0411 0.0455 -0.0392 0.0479 -0.0372z"/>
   <path id="1" class="fil1" d="M1.3552 5.176c-0.0008,0.111 -0.0009,0.2212 -0.0003,0.3303l0 0.001c0.0337,6.0474 2.313,9.1374 4.5611,11.4047 -0.2017,0.8831 -0.2889,1.7728 -0.2743,2.6645 0.0944,8.7996 9.9861,17.7946 16.0329,22.4181 6.0468,-4.6235 15.9385,-13.6185 16.0329,-22.4181 0.0146,-0.8917 -0.0726,-1.7814 -0.2743,-2.6645 2.2481,-2.2673 4.5274,-5.3573 4.5611,-11.4047l0 -0.001c0.0006,-0.1091 0.0005,-0.2193 -0.0003,-0.3303 -0.0085,-1.1617 -0.0991,-2.4307 -0.2874,-3.8214 -1.9557,6.6969 -5.8399,8.5263 -8.4157,9.401 -1.3805,-0.9475 -3.0372,-1.5562 -4.8997,-1.6604 -2.7377,-0.1532 -4.9182,1.2665 -6.7166,3.7137 -1.7984,-2.4472 -3.9789,-3.8669 -6.7166,-3.7137 -1.8625,0.1042 -3.5192,0.7129 -4.8997,1.6604 -2.5758,-0.8747 -6.46,-2.7041 -8.4157,-9.401 -0.1883,1.3907 -0.2789,2.6597 -0.2874,3.8214zm20.3194 34.6855c-5.6181,-4.1267 -14.1888,-12.4715 -14.3197,-20.036 -0.0052,-0.4847 0.0232,-0.9661 0.0901,-1.4429 1.5717,1.4893 2.8334,2.7964 2.8462,4.8016 -0.0015,0.133 -0.0082,0.269 -0.0208,0.4085 0.0029,-0.0068 0.0052,-0.0138 0.0082,-0.0206 -0.0025,0.0335 -0.0051,0.0672 -0.0082,0.1011 0.2093,-0.5019 0.2885,-1.0185 0.2851,-1.5386 0.0168,-1.859 -1.0646,-3.7678 -1.079,-5.1978 0.0066,-0.6453 0.2381,-1.1904 0.898,-1.5855 0.3046,-0.1822 1.3285,-0.2379 2.0304,-1.1475 0.1927,-0.2497 0.3127,-0.8041 0.3098,-1.3423 0.0034,-0.5279 -0.1109,-1.0481 -0.3904,-1.2566 -0.0535,-0.0399 -0.1148,-0.0781 -0.1832,-0.115 1.0116,-0.5023 2.1663,-0.7752 3.448,-0.7188 2.4804,0.1093 4.456,2.2518 6.0855,4.5509 1.6295,-2.2991 3.6051,-4.4416 6.0855,-4.5509 1.2817,-0.0564 2.4364,0.2165 3.448,0.7188 -0.0684,0.0369 -0.1297,0.0751 -0.1832,0.115 -0.2795,0.2085 -0.3938,0.7287 -0.3904,1.2566 -0.0029,0.5382 0.1171,1.0926 0.3098,1.3423 0.7019,0.9096 1.7258,0.9653 2.0304,1.1475 0.6599,0.3951 0.8915,0.9402 0.898,1.5855 -0.0145,1.43 -1.0958,3.3388 -1.079,5.1978 -0.0033,0.5201 0.0758,1.0367 0.2851,1.5386 -0.0031,-0.0339 -0.0057,-0.0676 -0.0082,-0.1011 0.003,0.0068 0.0053,0.0138 0.0082,0.0206 -0.0126,-0.1395 -0.0193,-0.2755 -0.0208,-0.4085 0.0128,-2.0052 1.2745,-3.3123 2.8462,-4.8016 0.0669,0.4768 0.0953,0.9582 0.0901,1.4429 -0.1309,7.5645 -8.7016,15.9093 -14.3197,20.036z"/>
  </g>
  <path class="fil1" d="M1.3552 5.1759c-0.0008,0.1112 -0.0009,0.2213 -0.0003,0.3305l0 0.0009c0.0337,6.0474 2.313,9.1373 4.561,11.4046 -0.2017,0.8831 -0.2888,1.7729 -0.2742,2.6646 0.0945,8.7996 9.9861,17.7945 16.0329,22.418 6.0468,-4.6235 15.9384,-13.6184 16.0329,-22.418 0.0146,-0.8917 -0.0725,-1.7815 -0.2742,-2.6646 2.248,-2.2672 4.5273,-5.3572 4.561,-11.4046l0 -0.0009c0.0006,-0.1092 0.0005,-0.2193 -0.0003,-0.3305 -0.0085,-1.1617 -0.0991,-2.4305 -0.2874,-3.8212 -1.9556,6.6967 -5.8399,8.5262 -8.4157,9.4008 -1.3804,-0.9474 -3.0372,-1.5561 -4.8997,-1.6603 -2.7377,-0.1531 -4.9181,1.2665 -6.7166,3.7136 -1.7985,-2.4471 -3.9789,-3.8667 -6.7166,-3.7136 -1.8625,0.1042 -3.5193,0.7129 -4.8997,1.6603 -2.5758,-0.8746 -6.4601,-2.7041 -8.4157,-9.4008 -0.1883,1.3907 -0.2789,2.6595 -0.2874,3.8212zm20.3194 34.6856c-5.6181,-4.1267 -14.1888,-12.4714 -14.3197,-20.036 -0.0052,-0.4846 0.0232,-0.9661 0.0901,-1.4429 1.5717,1.4893 2.8334,2.7964 2.8461,4.8016 -0.0013,0.133 -0.0081,0.2691 -0.0207,0.4085 0.0029,-0.0069 0.0053,-0.0138 0.0081,-0.0206 -0.0023,0.0335 -0.005,0.0672 -0.0081,0.1012 0.2094,-0.5019 0.2885,-1.0187 0.285,-1.5387 0.0169,-1.8591 -1.0646,-3.7678 -1.0788,-5.1978 0.0065,-0.6453 0.238,-1.1904 0.8979,-1.5855 0.3045,-0.1823 1.3285,-0.2379 2.0304,-1.1475 0.1927,-0.2497 0.3126,-0.8041 0.3098,-1.3422 0.0033,-0.528 -0.1109,-1.0483 -0.3904,-1.2567 -0.0535,-0.04 -0.1149,-0.078 -0.1832,-0.1149 1.0116,-0.5024 2.1663,-0.7753 3.448,-0.7189 2.4804,0.1092 4.456,2.2518 6.0855,4.5509 1.6295,-2.2991 3.6051,-4.4417 6.0855,-4.5509 1.2817,-0.0564 2.4364,0.2165 3.448,0.7189 -0.0683,0.0369 -0.1297,0.0749 -0.1832,0.1149 -0.2795,0.2084 -0.3937,0.7287 -0.3904,1.2567 -0.0028,0.5381 0.1171,1.0925 0.3098,1.3422 0.7019,0.9096 1.7259,0.9652 2.0304,1.1475 0.6599,0.3951 0.8915,0.9402 0.8979,1.5855 -0.0143,1.43 -1.0957,3.3388 -1.0788,5.1978 -0.0034,0.52 0.0756,1.0368 0.285,1.5387 -0.0031,-0.034 -0.0057,-0.0677 -0.0081,-0.1012 0.0028,0.0068 0.0052,0.0137 0.0081,0.0206 -0.0126,-0.1394 -0.0194,-0.2755 -0.0207,-0.4085 0.0127,-2.0052 1.2744,-3.3123 2.8461,-4.8016 0.0669,0.4768 0.0953,0.9583 0.0901,1.4429 -0.1309,7.5646 -8.7016,15.9093 -14.3197,20.036z"/>
  <path class="fil2" d="M21.6746 15.196c-1.6575,-2.3387 -3.6672,-4.5182 -6.1903,-4.6293 -4.3325,-0.1908 -7.2415,3.3126 -8.1075,6.815 -2.0522,8.2994 7.9669,18.2515 14.2978,22.9187 6.3309,-4.6672 16.35,-14.6193 14.2978,-22.9187 -0.866,-3.5024 -3.775,-7.0058 -8.1075,-6.815 -2.5231,0.1111 -4.5328,2.2906 -6.1903,4.6293z"/>
  <g>
   <path class="fil3" d="M22.3096 13.5066l-1.27 0 0.0008 -0.0301 0.0025 -0.0297 0.004 -0.0292 0.0056 -0.0288 0.0071 -0.0283 0.0085 -0.0278 0.01 -0.0271 0.0114 -0.0266 0.0127 -0.0259 0.014 -0.0252 0.0153 -0.0245 0.0165 -0.0237 0.0178 -0.0229 0.0188 -0.0221 0.02 -0.0212 0.021 -0.0203 0.022 -0.0194 0.0231 -0.0184 0.024 -0.0173 0.0249 -0.0163 0.0257 -0.0152 0.0266 -0.0141 0.0274 -0.0129 0.0281 -0.0117 0.0289 -0.0105 0.0295 -0.0092 0.0301 -0.0079 0.0307 -0.0065 0.0313 -0.0052 0.0318 -0.0037 0.0322 -0.0022 0.0327 -0.0008 0.0327 0.0008 0.0322 0.0022 0.0318 0.0037 0.0313 0.0052 0.0307 0.0065 0.0301 0.0079 0.0295 0.0092 0.0289 0.0105 0.0281 0.0117 0.0274 0.0129 0.0266 0.0141 0.0257 0.0152 0.0249 0.0163 0.024 0.0173 0.0231 0.0184 0.022 0.0194 0.021 0.0203 0.02 0.0212 0.0188 0.0221 0.0178 0.0229 0.0165 0.0237 0.0153 0.0245 0.014 0.0252 0.0127 0.0259 0.0114 0.0266 0.01 0.0271 0.0085 0.0278 0.0071 0.0283 0.0056 0.0288 0.004 0.0292 0.0025 0.0297 0.0008 0.0301zm-0.7913 6.0299l-0.4787 -0.5665 0 -5.4634 1.27 0 0 5.4634 -0.7913 0.5665zm-0.4787 -0.5665l1.27 0 -0.0008 0.0301 -0.0025 0.0297 -0.004 0.0292 -0.0056 0.0288 -0.0071 0.0283 -0.0085 0.0278 -0.01 0.0271 -0.0114 0.0266 -0.0127 0.0259 -0.014 0.0252 -0.0153 0.0245 -0.0165 0.0237 -0.0178 0.0229 -0.0188 0.0221 -0.02 0.0212 -0.021 0.0203 -0.022 0.0194 -0.0231 0.0184 -0.024 0.0173 -0.0249 0.0163 -0.0257 0.0152 -0.0266 0.0141 -0.0274 0.0129 -0.0281 0.0117 -0.0289 0.0105 -0.0295 0.0092 -0.0301 0.0079 -0.0307 0.0065 -0.0313 0.0052 -0.0318 0.0037 -0.0322 0.0022 -0.0327 0.0008 -0.0327 -0.0008 -0.0322 -0.0022 -0.0318 -0.0037 -0.0313 -0.0052 -0.0307 -0.0065 -0.0301 -0.0079 -0.0295 -0.0092 -0.0289 -0.0105 -0.0281 -0.0117 -0.0274 -0.0129 -0.0266 -0.0141 -0.0257 -0.0152 -0.0249 -0.0163 -0.024 -0.0173 -0.0231 -0.0184 -0.022 -0.0194 -0.021 -0.0203 -0.02 -0.0212 -0.0188 -0.0221 -0.0178 -0.0229 -0.0165 -0.0237 -0.0153 -0.0245 -0.014 -0.0252 -0.0127 -0.0259 -0.0114 -0.0266 -0.01 -0.0271 -0.0085 -0.0278 -0.0071 -0.0283 -0.0056 -0.0288 -0.004 -0.0292 -0.0025 -0.0297 -0.0008 -0.0301zm7.5738 2.195l-0.2357 -0.0114 -6.8594 -1.6171 0.3126 -1.133 6.8594 1.6171 -0.0769 1.1444zm-0.2357 -0.0114l0.3126 -1.133 0.0314 0.0081 0.0307 0.0095 0.0298 0.0108 0.0289 0.0121 0.028 0.0133 0.0271 0.0144 0.0261 0.0156 0.0251 0.0167 0.0242 0.0177 0.023 0.0187 0.022 0.0197 0.0209 0.0206 0.0198 0.0214 0.0186 0.0223 0.0174 0.023 0.0162 0.0238 0.0149 0.0244 0.0137 0.0251 0.0124 0.0257 0.011 0.0262 0.0097 0.0267 0.0082 0.0272 0.0069 0.0276 0.0054 0.028 0.0039 0.0283 0.0024 0.0286 0.0009 0.0288 -0.0007 0.029 -0.0023 0.0292 -0.0039 0.0292 -0.0056 0.0294 -0.0072 0.0293 -0.0088 0.029 -0.0104 0.0282 -0.0117 0.0274 -0.0131 0.0266 -0.0144 0.0258 -0.0157 0.025 -0.017 0.024 -0.0181 0.0232 -0.0192 0.0222 -0.0204 0.0212 -0.0213 0.0203 -0.0224 0.0192 -0.0232 0.0182 -0.0242 0.0171 -0.025 0.0161 -0.0258 0.0149 -0.0266 0.0137 -0.0272 0.0126 -0.0279 0.0114 -0.0285 0.0102 -0.029 0.0089 -0.0295 0.0076 -0.03 0.0063 -0.0304 0.005 -0.0307 0.0036 -0.0311 0.0022 -0.0313 0.0008 -0.0315 -0.0006 -0.0316 -0.0021 -0.0318 -0.0036 -0.0318 -0.0051 -0.0319 -0.0067zm-13.7187 1.6169l0.0769 -1.1444 13.7187 -1.6169 0.1588 1.1558 -13.7187 1.6169 -0.2357 -0.0114zm0.0769 -1.1444l0.1588 1.1558 -0.0324 0.003 -0.0322 0.0015 -0.0319 0 -0.0316 -0.0015 -0.0312 -0.003 -0.0309 -0.0043 -0.0304 -0.0057 -0.0299 -0.007 -0.0294 -0.0083 -0.0288 -0.0097 -0.0282 -0.0108 -0.0276 -0.0121 -0.0268 -0.0132 -0.0261 -0.0144 -0.0252 -0.0155 -0.0245 -0.0166 -0.0235 -0.0177 -0.0226 -0.0186 -0.0216 -0.0197 -0.0206 -0.0206 -0.0196 -0.0216 -0.0184 -0.0224 -0.0173 -0.0233 -0.0161 -0.0241 -0.0148 -0.025 -0.0136 -0.0257 -0.0122 -0.0264 -0.0109 -0.0271 -0.0094 -0.0279 -0.0079 -0.0284 -0.0065 -0.0291 -0.0049 -0.0296 -0.0033 -0.0298 -0.0016 -0.0297 0.0001 -0.0293 0.0016 -0.0291 0.0031 -0.0288 0.0047 -0.0284 0.0062 -0.028 0.0076 -0.0276 0.0091 -0.027 0.0104 -0.0266 0.0118 -0.0259 0.0131 -0.0254 0.0144 -0.0247 0.0156 -0.024 0.0169 -0.0233 0.018 -0.0225 0.0192 -0.0216 0.0202 -0.0208 0.0214 -0.02 0.0224 -0.0189 0.0234 -0.018 0.0243 -0.017 0.0254 -0.0159 0.0262 -0.0149 0.027 -0.0136 0.028 -0.0125 0.0287 -0.0113 0.0294 -0.0099 0.0302 -0.0087 0.0309 -0.0074 0.0316 -0.0059 0.0322 -0.0045zm7.5737 2.195l-0.7913 0.5665 -6.8593 -1.6171 0.3126 -1.133 6.8593 1.6171 0.4787 0.5665zm-0.7913 0.5665l0.3126 -1.133 0.0314 0.0081 0.0307 0.0095 0.0298 0.0108 0.0289 0.0121 0.028 0.0133 0.0271 0.0144 0.0261 0.0156 0.0251 0.0167 0.0242 0.0177 0.023 0.0187 0.022 0.0197 0.0209 0.0206 0.0198 0.0214 0.0186 0.0223 0.0174 0.023 0.0162 0.0238 0.0149 0.0244 0.0137 0.0251 0.0124 0.0257 0.011 0.0262 0.0097 0.0267 0.0082 0.0272 0.0069 0.0276 0.0054 0.028 0.0039 0.0283 0.0024 0.0286 0.0009 0.0288 -0.0007 0.029 -0.0023 0.0292 -0.0039 0.0292 -0.0056 0.0294 -0.0072 0.0293 -0.0088 0.029 -0.0104 0.0282 -0.0117 0.0274 -0.0131 0.0266 -0.0144 0.0258 -0.0157 0.025 -0.017 0.024 -0.0181 0.0232 -0.0192 0.0222 -0.0204 0.0212 -0.0213 0.0203 -0.0224 0.0192 -0.0232 0.0182 -0.0242 0.0171 -0.025 0.0161 -0.0258 0.0149 -0.0266 0.0137 -0.0272 0.0126 -0.0279 0.0114 -0.0285 0.0102 -0.029 0.0089 -0.0295 0.0076 -0.03 0.0063 -0.0304 0.005 -0.0307 0.0036 -0.0311 0.0022 -0.0313 0.0008 -0.0315 -0.0006 -0.0316 -0.0021 -0.0318 -0.0036 -0.0318 -0.0051 -0.0319 -0.0067zm-0.1314 4.803l-0.3473 -0.5185 0 -4.851 1.27 0 0 4.851 -0.9227 0.5185zm-0.3473 -0.5185l1.27 0 -0.0008 0.0301 -0.0025 0.0297 -0.004 0.0292 -0.0056 0.0288 -0.0071 0.0283 -0.0085 0.0278 -0.01 0.0271 -0.0114 0.0266 -0.0127 0.0259 -0.014 0.0252 -0.0153 0.0245 -0.0165 0.0237 -0.0178 0.0229 -0.0188 0.0221 -0.02 0.0212 -0.021 0.0203 -0.022 0.0194 -0.0231 0.0184 -0.024 0.0173 -0.0249 0.0163 -0.0257 0.0152 -0.0266 0.0141 -0.0274 0.0129 -0.0281 0.0117 -0.0289 0.0105 -0.0295 0.0092 -0.0301 0.0079 -0.0307 0.0065 -0.0313 0.0052 -0.0318 0.0037 -0.0322 0.0022 -0.0327 0.0008 -0.0327 -0.0008 -0.0322 -0.0022 -0.0318 -0.0037 -0.0313 -0.0052 -0.0307 -0.0065 -0.0301 -0.0079 -0.0295 -0.0092 -0.0289 -0.0105 -0.0281 -0.0117 -0.0274 -0.0129 -0.0266 -0.0141 -0.0257 -0.0152 -0.0249 -0.0163 -0.024 -0.0173 -0.0231 -0.0184 -0.022 -0.0194 -0.021 -0.0203 -0.02 -0.0212 -0.0188 -0.0221 -0.0178 -0.0229 -0.0165 -0.0237 -0.0153 -0.0245 -0.014 -0.0252 -0.0127 -0.0259 -0.0114 -0.0266 -0.01 -0.0271 -0.0085 -0.0278 -0.0071 -0.0283 -0.0056 -0.0288 -0.004 -0.0292 -0.0025 -0.0297 -0.0008 -0.0301zm4.221 2.1836l-0.444 -0.048 -3.4297 -1.6171 0.5754 -1.037 3.4297 1.6171 -0.1314 1.085zm-0.444 -0.048l0.5754 -1.037 0.0286 0.0143 0.0275 0.0155 0.0263 0.0165 0.0252 0.0176 0.024 0.0186 0.0229 0.0196 0.0216 0.0205 0.0204 0.0213 0.0192 0.0221 0.0179 0.0229 0.0167 0.0236 0.0153 0.0242 0.0141 0.0249 0.0127 0.0254 0.0114 0.0259 0.01 0.0264 0.0087 0.0267 0.0073 0.0272 0.0058 0.0274 0.0044 0.0278 0.003 0.0279 0.0015 0.0281 0 0.0282 -0.0014 0.0283 -0.003 0.0283 -0.0045 0.0282 -0.0061 0.0282 -0.0076 0.028 -0.0092 0.0279 -0.0108 0.0276 -0.0124 0.0274 -0.0141 0.027 -0.0155 0.0263 -0.0168 0.0253 -0.018 0.0243 -0.0191 0.0232 -0.0202 0.0221 -0.0212 0.021 -0.0223 0.02 -0.0231 0.0188 -0.024 0.0176 -0.0249 0.0165 -0.0256 0.0154 -0.0263 0.0141 -0.027 0.0129 -0.0276 0.0118 -0.0281 0.0104 -0.0287 0.0093 -0.029 0.0079 -0.0295 0.0067 -0.0298 0.0054 -0.0301 0.0041 -0.0304 0.0027 -0.0305 0.0014 -0.0306 0 -0.0307 -0.0013 -0.0308 -0.0028 -0.0306 -0.0041 -0.0306 -0.0056 -0.0305 -0.007 -0.0302 -0.0085 -0.0301 -0.01 -0.0297 -0.0114 -0.0293 -0.013zm-6.8594 1.617l0.1314 -1.085 6.8594 -1.617 0.3126 1.133 -6.8594 1.617 -0.444 -0.048zm0.1314 -1.085l0.3126 1.133 -0.0319 0.0067 -0.0318 0.0051 -0.0318 0.0036 -0.0316 0.0021 -0.0315 0.0006 -0.0313 -0.0008 -0.0311 -0.0022 -0.0307 -0.0036 -0.0304 -0.005 -0.03 -0.0063 -0.0295 -0.0076 -0.029 -0.0089 -0.0285 -0.0102 -0.0279 -0.0114 -0.0272 -0.0126 -0.0266 -0.0137 -0.0258 -0.0149 -0.025 -0.0161 -0.0242 -0.0171 -0.0232 -0.0182 -0.0224 -0.0192 -0.0213 -0.0203 -0.0204 -0.0212 -0.0192 -0.0222 -0.0181 -0.0232 -0.017 -0.024 -0.0157 -0.025 -0.0144 -0.0258 -0.0131 -0.0266 -0.0117 -0.0274 -0.0104 -0.0282 -0.0088 -0.029 -0.0072 -0.0293 -0.0056 -0.0294 -0.0039 -0.0292 -0.0023 -0.0292 -0.0007 -0.029 0.0009 -0.0288 0.0024 -0.0286 0.0039 -0.0283 0.0054 -0.028 0.0069 -0.0276 0.0082 -0.0272 0.0097 -0.0267 0.011 -0.0262 0.0124 -0.0257 0.0137 -0.0251 0.0149 -0.0244 0.0162 -0.0238 0.0174 -0.023 0.0186 -0.0223 0.0198 -0.0214 0.0209 -0.0206 0.022 -0.0197 0.023 -0.0187 0.0241 -0.0177 0.0252 -0.0167 0.0261 -0.0156 0.0271 -0.0144 0.028 -0.0133 0.0289 -0.0121 0.0298 -0.0108 0.0307 -0.0095 0.0314 -0.0081zm4.221 2.1834l-0.9227 0.5185 -3.4297 -1.6169 0.5754 -1.037 3.4297 1.6169 0.3473 0.5185zm-0.9227 0.5185l0.5754 -1.037 0.0286 0.0143 0.0275 0.0155 0.0263 0.0165 0.0252 0.0176 0.024 0.0186 0.0229 0.0196 0.0216 0.0205 0.0204 0.0213 0.0192 0.0221 0.0179 0.0229 0.0167 0.0236 0.0153 0.0242 0.0141 0.0249 0.0127 0.0254 0.0114 0.0259 0.01 0.0263 0.0087 0.0268 0.0073 0.0272 0.0058 0.0274 0.0044 0.0278 0.003 0.0279 0.0015 0.0281 0 0.0282 -0.0014 0.0283 -0.003 0.0283 -0.0045 0.0282 -0.0061 0.0282 -0.0076 0.028 -0.0092 0.0279 -0.0108 0.0276 -0.0124 0.0274 -0.0141 0.027 -0.0155 0.0263 -0.0168 0.0253 -0.018 0.0243 -0.0191 0.0232 -0.0202 0.0221 -0.0212 0.021 -0.0223 0.02 -0.0231 0.0188 -0.024 0.0176 -0.0249 0.0165 -0.0256 0.0154 -0.0263 0.0141 -0.027 0.0129 -0.0276 0.0118 -0.0281 0.0104 -0.0287 0.0093 -0.029 0.0079 -0.0295 0.0067 -0.0298 0.0054 -0.0301 0.0041 -0.0304 0.0027 -0.0305 0.0014 -0.0306 0 -0.0307 -0.0013 -0.0308 -0.0028 -0.0306 -0.0041 -0.0306 -0.0056 -0.0305 -0.007 -0.0302 -0.0085 -0.0301 -0.01 -0.0297 -0.0114 -0.0293 -0.013zm-0.3473 6.2589l0 -6.7774 1.27 0 0 6.7774 -1.27 0zm0 0l1.27 0 -0.0008 0.0301 -0.0025 0.0297 -0.004 0.0292 -0.0056 0.0288 -0.0071 0.0283 -0.0085 0.0278 -0.01 0.0271 -0.0114 0.0266 -0.0127 0.0259 -0.014 0.0252 -0.0153 0.0245 -0.0165 0.0237 -0.0178 0.0229 -0.0188 0.0221 -0.02 0.0212 -0.021 0.0203 -0.022 0.0194 -0.0231 0.0184 -0.024 0.0173 -0.0249 0.0163 -0.0257 0.0152 -0.0266 0.0141 -0.0274 0.0129 -0.0281 0.0117 -0.0289 0.0105 -0.0295 0.0092 -0.0301 0.0079 -0.0307 0.0065 -0.0313 0.0052 -0.0318 0.0037 -0.0322 0.0022 -0.0327 0.0008 -0.0327 -0.0008 -0.0322 -0.0022 -0.0318 -0.0037 -0.0313 -0.0052 -0.0307 -0.0065 -0.0301 -0.0079 -0.0295 -0.0092 -0.0289 -0.0105 -0.0281 -0.0117 -0.0274 -0.0129 -0.0266 -0.0141 -0.0257 -0.0152 -0.0249 -0.0163 -0.024 -0.0173 -0.0231 -0.0184 -0.022 -0.0194 -0.021 -0.0203 -0.02 -0.0212 -0.0188 -0.0221 -0.0178 -0.0229 -0.0165 -0.0237 -0.0153 -0.0245 -0.014 -0.0252 -0.0127 -0.0259 -0.0114 -0.0266 -0.01 -0.0271 -0.0085 -0.0278 -0.0071 -0.0283 -0.0056 -0.0288 -0.004 -0.0292 -0.0025 -0.0297 -0.0008 -0.0301z"/>
  </g>
 </g>
</svg>
