<?xml version="1.0" encoding="UTF-8"?>
<!DOCTYPE svg PUBLIC "-//W3C//DTD SVG 1.1//EN" "http://www.w3.org/Graphics/SVG/1.1/DTD/svg11.dtd">
<svg xmlns="http://www.w3.org/2000/svg" version="1.1" width="507px" height="507px" style="shape-rendering:geometricPrecision; text-rendering:geometricPrecision; image-rendering:optimizeQuality; fill-rule:evenodd; clip-rule:evenodd" xmlns:xlink="http://www.w3.org/1999/xlink">
<g><path style="opacity:1" fill="#dededd" d="M 10.5,-0.5 C 14.8333,-0.5 19.1667,-0.5 23.5,-0.5C 25.7706,1.26589 27.9373,3.26589 30,5.5C 37.6728,37.0322 53.1728,63.8656 76.5,86C 87.9884,94.8307 100.488,101.997 114,107.5C 139.35,92.8968 166.516,87.3968 195.5,91C 218.3,96.231 237.633,107.398 253.5,124.5C 287.194,89.6638 326.86,80.8304 372.5,98C 379.393,101.03 386.227,104.197 393,107.5C 426.445,94.3885 450.445,71.3885 465,38.5C 469.591,27.7296 473.591,16.7296 477,5.5C 479.063,3.26589 481.229,1.26589 483.5,-0.5C 487.833,-0.5 492.167,-0.5 496.5,-0.5C 499.529,1.37197 501.695,4.03864 503,7.5C 504.343,14.9468 505.509,22.2801 506.5,29.5C 506.5,49.5 506.5,69.5 506.5,89.5C 502.085,131.929 485.252,168.595 456,199.5C 459.683,233.369 455.017,266.035 442,297.5C 429.214,326.243 413.214,352.91 394,377.5C 353.98,426.698 308.48,469.698 257.5,506.5C 254.833,506.5 252.167,506.5 249.5,506.5C 198.52,469.698 153.02,426.698 113,377.5C 93.7864,352.91 77.7864,326.243 65,297.5C 51.9834,266.035 47.3168,233.369 51,199.5C 18.5448,164.985 1.37815,123.985 -0.5,76.5C -0.5,65.5 -0.5,54.5 -0.5,43.5C 0.587044,32.977 1.75371,22.3103 3,11.5C 3.75932,6.29517 6.25932,2.29517 10.5,-0.5 Z"/></g>
<g><path style="opacity:1" fill="#201a17" d="M 16.5,13.5 C 20.9289,24.3809 25.4289,35.3809 30,46.5C 47.6515,84.4857 76.3182,110.152 116,123.5C 139.245,107.98 164.745,101.814 192.5,105C 218.172,111.505 238.505,125.672 253.5,147.5C 283.638,104.962 322.971,93.462 371.5,113C 378.155,115.993 384.488,119.493 390.5,123.5C 430.468,110.367 459.301,84.7003 477,46.5C 481.629,35.582 485.962,24.582 490,13.5C 497.041,54.6266 494.041,94.9599 481,134.5C 471.529,158.29 457.696,179.124 439.5,197C 444.791,224.297 442.957,251.13 434,277.5C 424.309,304.888 410.975,330.221 394,353.5C 354.128,405.705 307.961,451.539 255.5,491C 254.167,491.667 252.833,491.667 251.5,491C 199.039,451.539 152.872,405.705 113,353.5C 90.9485,323.724 75.6152,290.724 67,254.5C 63.6709,234.767 63.6709,215.1 67,195.5C 29.7992,158.274 11.9658,113.108 13.5,60C 13.9646,44.461 14.9646,28.961 16.5,13.5 Z"/></g>
<g><path style="opacity:1" fill="#d8241c" d="M 164.5,121.5 C 186.574,119.347 205.907,125.513 222.5,140C 231.069,147.9 238.903,156.4 246,165.5C 246.023,185.589 246.69,205.589 248,225.5C 262.35,229.702 276.85,233.535 291.5,237C 251.277,242.718 210.944,247.718 170.5,252C 165.962,253.713 164.462,256.88 166,261.5C 166.5,263.333 167.667,264.5 169.5,265C 194.756,271.314 220.089,277.314 245.5,283C 246.327,301.427 246.827,319.927 247,338.5C 255.263,343.382 263.763,347.882 272.5,352C 252.552,356.88 232.552,361.547 212.5,366C 205.555,367.915 203.888,371.915 207.5,378C 220.41,384.038 233.243,390.205 246,396.5C 246.667,419.833 246.667,443.167 246,466.5C 204.742,435.243 168.075,399.243 136,358.5C 112.164,328.832 95.1644,295.498 85,258.5C 75.9374,218.42 84.604,182.753 111,151.5C 125.6,135.619 143.433,125.619 164.5,121.5 Z"/></g>
<g><path style="opacity:1" fill="#d8241c" d="M 319.5,121.5 C 353.055,119.287 380.222,131.287 401,157.5C 423.603,187.847 430.603,221.514 422,258.5C 411.836,295.498 394.836,328.832 371,358.5C 338.925,399.243 302.258,435.243 261,466.5C 260.667,440.5 260.333,414.5 260,388.5C 251.806,384.265 243.64,379.932 235.5,375.5C 256.027,369.893 276.693,364.727 297.5,360C 302.818,356.049 302.818,352.049 297.5,348C 285.257,342.295 273.09,336.462 261,330.5C 260.667,311.833 260.333,293.167 260,274.5C 259.167,273.667 258.333,272.833 257.5,272C 242.722,268.639 228.055,264.972 213.5,261C 252.829,256.334 292.163,251.667 331.5,247C 334.506,246.668 337.34,245.834 340,244.5C 342.364,240.526 341.864,237.026 338.5,234C 312.842,227.769 287.176,221.602 261.5,215.5C 260.334,198.843 260.167,182.177 261,165.5C 273.111,148.716 288.278,135.549 306.5,126C 310.98,124.564 315.313,123.064 319.5,121.5 Z"/></g>
</svg>
