<?xml version="1.0" encoding="UTF-8"?>
<svg class="theme--agnostic" fill="none" viewBox="0 0 1000 330" xmlns="http://www.w3.org/2000/svg">
<style>.gauge-base {
				opacity: 0.1
			}

			.gauge-arc {
				fill: none;
				animation-delay: 250ms;
				stroke-linecap: round;
				transform: rotate(-90deg);
				transform-origin: 100px 60px;
				animation: load-gauge 1s ease forwards
			}

			.guage-text {
				font-size: 40px;
				font-family: monospace;
				text-align: center
			}

			.guage-red {
				color: #ff4e42;
				fill: #ff4e42;
				stroke: #ff4e42
			}
			.guage-orange {
				color: #ffa400;
				fill: #ffa400;
				stroke: #ffa400
			}
			.guage-green {
				color: #0cce6b;
				fill: #0cce6b;
				stroke: #0cce6b
			}
			.theme--agnostic .guage-undefined {
				color: #5c5c5c;
				fill: #5c5c5c;
				stroke: #5c5c5c
			}
			.theme--light .guage-undefined {
				color: #1e1e1e;
				fill: #1e1e1e;
				stroke: #1e1e1e
			}
			.theme--dark .guage-undefined {
				color: #f5f5f5;
				fill: #f5f5f5;
				stroke: #f5f5f5
			}

			.guage-title {
				stroke: none;
				font-size: 26px;
				line-height: 26px;
				font-family: Roboto, Halvetica, Arial, sans-serif
			}
			.metric.guage-title {
				font-family: 'Courier New', Courier, monospace
			}
			.theme--agnostic .guage-title {
				color: #737373;
				fill: #737373
			}
			.theme--light .guage-title {
				color: #212121;
				fill: #212121
			}
			.theme--dark .guage-title {
				color: #f5f5f5;
				fill: #f5f5f5
			}

			@keyframes load-gauge {
				from {
					stroke-dasharray: 0 352.858
				}
			}
			.lh-gauge--pwa__disc {
				fill: #e0e0e0
			}
			.lh-gauge--pwa__logo {
				position: relative;
				fill: #b0b0b0
			}
			.lh-gauge--pwa__invisible {
				display: none
			}
			.lh-gauge--pwa__visible {
				display: inline
			}
			.guage-invisible {
				display: none
			}
			.lh-gauge--pwa__logo--primary-color {
				fill: #304ffe
			}
			.theme--agnostic .lh-gauge--pwa__logo--secondary-color {
				fill: #787878
			}
			.theme--light .lh-gauge--pwa__logo--secondary-color {
				fill: #3d3d3d
			}
			.theme--dark .lh-gauge--pwa__logo--secondary-color {
				fill: #d8b6b6
			}
			.theme--light #svg_2 {
				stroke: #00000022
			}
			.theme--agnostic #svg_2 {
				stroke: #616161
			}
			.theme--light #svg_2 {
				stroke: #00000022
			}
			.theme--dark #svg_2 {
				stroke: #f5f5f566
			}</style>
<svg class="guage-div guage-perf guage-green" width="200" height="200" viewBox="0 0 200 200">
<circle class="gauge-base" cx="100" cy="60" r="56" stroke-width="8"/>
<circle class="gauge-arc guage-arc-1" cx="100" cy="60" r="56" stroke-dasharray="351.858, 351.858" stroke-width="8"/>
<text class="guage-text" x="100px" y="60px" alignment-baseline="central" dominant-baseline="central" text-anchor="middle">100</text>
<text class="guage-title" x="100px" y="160px" alignment-baseline="central" dominant-baseline="central" text-anchor="middle">Performance</text>
</svg>
<svg class="guage-div guage-acc guage-green" x="200" width="200" height="200" viewBox="0 0 200 200">
<circle class="gauge-base" cx="100" cy="60" r="56" stroke-width="8"/>
<circle class="gauge-arc guage-arc-2" cx="100" cy="60" r="56" stroke-dasharray="351.858, 351.858" stroke-width="8"/>
<text class="guage-text" x="100px" y="60px" alignment-baseline="central" dominant-baseline="central" text-anchor="middle">100</text>
<text class="guage-title" x="100px" y="160px" alignment-baseline="central" dominant-baseline="central" text-anchor="middle">Accessibility</text>
</svg>
<svg class="guage-div guage-best guage-green" x="400" width="200" height="200" viewBox="0 0 200 200">
<circle class="gauge-base" cx="100" cy="60" r="56" stroke-width="8"/>
<circle class="gauge-arc guage-arc-3" cx="100" cy="60" r="56" stroke-dasharray="351.858, 351.858" stroke-width="8"/>
<text class="guage-text" x="100px" y="60px" alignment-baseline="central" dominant-baseline="central" text-anchor="middle">100</text>
<text class="guage-title" x="100px" y="160px" alignment-baseline="central" dominant-baseline="central" text-anchor="middle">Best Practices</text>
</svg>
<svg class="guage-div guage-seo guage-green" x="600" width="200" height="200" viewBox="0 0 200 200">
<circle class="gauge-base" cx="100" cy="60" r="56" stroke-width="8"/>
<circle class="gauge-arc guage-arc-4" cx="100" cy="60" r="56" stroke-dasharray="351.858, 351.858" stroke-width="8"/>
<text class="guage-text" x="100px" y="60px" alignment-baseline="central" dominant-baseline="central" text-anchor="middle">100</text>
<text class="guage-title" x="100px" y="160px" alignment-baseline="central" dominant-baseline="central" text-anchor="middle">SEO</text>
</svg>
<svg class="guage-div guage-pwa " x="800" width="200" height="200" viewBox="0 0 200 200">
<svg x="44" y="4" width="112" height="112" viewBox="0 0 60 60">
<defs>
<linearGradient id="c" x1="50%" x2="50%" y2="100%">
<stop stop-color="#00C852" offset="0"/>
<stop stop-color="#009688" offset="1"/>
</linearGradient>
<linearGradient id="a" x1="76.056%" x2="24.111%" y1="82.995%" y2="24.735%">
<stop stop-color="#A5D6A7" offset="0"/>
<stop stop-color="#80CBC4" offset="1"/>
</linearGradient>
<linearGradient id="b" x1="76.056%" x2="25.678%" y1="82.995%" y2="26.493%">
<stop stop-color="#64B5F6" offset="0"/>
<stop stop-color="#2979FF" offset="1"/>
</linearGradient>
</defs>
<g>
<circle class="lh-gauge--pwa__disc" cx="30" cy="30" r="30"/>
<g class="lh-gauge--pwa__logo">
<path class="lh-gauge--pwa__logo--secondary-color" d="M35.66 19.39l.7-1.75h2L37.4 15 38.6 12l3.4 9h-2.51l-.58-1.61z"/>
<path class="lh-gauge--pwa__logo--primary-color" d="M33.52 21l3.65-9h-2.42l-2.5 5.82L30.5 12h-1.86l-1.9 5.82-1.35-2.65-1.21 3.72L25.4 21h2.38l1.72-5.2 1.64 5.2z"/>
<path class="lh-gauge--pwa__logo--secondary-color" d="M20.3 17.91h1.48c.45 0 .85-.05 1.2-.15l.39-1.18 1.07-3.3a2.64 2.64 0 0 0-.28-.37c-.55-.6-1.36-.91-2.42-.91H18v9h2.3V17.9zm1.96-3.84c.22.22.33.5.33.87 0 .36-.1.65-.29.87-.2.23-.59.35-1.15.35h-.86v-2.41h.87c.52 0 .89.1 1.1.32z"/>
</g>
<rect class="lh-gauge--pwa__component lh-gauge--pwa__na-line lh-gauge--pwa__invisible" x="20" y="32" width="20" height="4" rx="2" fill="#fff"/>
<g class="lh-gauge--pwa__component lh-gauge--pwa__fast-reliable-badge lh-gauge--pwa__invisible" transform="translate(20 29)">
<path d="M33.63 19.49A30 30 0 0 1 16.2 30.36L3 17.14 17.14 3l16.49 16.49z" fill="url(#b)"/>
<use href="#lh-gauge--pwa__fast-reliable-badge-0"/>
</g>
<g class="lh-gauge--pwa__component lh-gauge--pwa__installable-badge lh-gauge--pwa__invisible" transform="translate(20 29)">
<path d="M33.629 19.487c-4.272 5.453-10.391 9.39-17.415 10.869L3 17.142 17.142 3 33.63 19.487z" fill="url(#a)"/>
<use href="#lh-gauge--pwa__installable-badge-0"/>
</g>
<g class="lh-gauge--pwa__component lh-gauge--pwa__fast-reliable-installable-badges lh-gauge--pwa__invisible">
<g transform="translate(8 29)">
<path d="M16.321 30.463L3 17.143 17.142 3l22.365 22.365A29.864 29.864 0 0 1 22 31c-1.942 0-3.84-.184-5.679-.537z" fill="url(#b)"/>
<use href="#lh-gauge--pwa__fast-reliable-badge-0"/>
</g>
<g transform="translate(32 29)">
<path d="M25.982 11.84a30.107 30.107 0 0 1-13.08 15.203L3 17.143 17.142 3l8.84 8.84z" fill="url(#a)"/>
<use href="#lh-gauge--pwa__installable-badge-0"/>
</g>
</g>
<g class="lh-gauge--pwa__component lh-gauge--pwa__check-circle lh-gauge--pwa__visible" transform="translate(18 28)">
<circle cx="12" cy="12" r="12" fill="#fff"/>
<path d="M12 2a10 10 0 1 0 0 20 10 10 0 0 0 0-20zm-2 15l-5-5 1.41-1.41L10 14.17l7.59-7.59L19 8l-9 9z" fill="url(#c)"/>
</g>
</g>
</svg>
<text class="guage-title" y="160px" alignment-baseline="central" dominant-baseline="central" text-anchor="middle"><tspan x="100px" dy="-6px">Progressive</tspan> <tspan x="100px" dy="30px">Web App</tspan></text>
</svg>
<svg x="200" y="250" width="604" height="76">
<rect x="-1" y="-1" width="604" height="80" fill="none"/>
<g x="0" y="0" width="100%" height="100%" display="none" overflow="visible">
<rect width="100%" height="100%" fill="url(#gridpattern)" stroke-width="0"/>
</g>
<rect y="1" width="600" height="72" rx="40" fill="#000" fill-opacity="0" stroke-width="2"/>
<rect x="35" y="30" width="48" height="14" rx="8" fill="#ff4e42" stroke="#000" stroke-opacity="null" stroke-width="0"/>
<rect x="220" y="30" width="48" height="14" rx="6" fill="#ffa400" stroke="#000" stroke-opacity="null" stroke-width="0"/>
<rect x="410" y="30" width="48" height="14" rx="6" fill="#0cce6b" stroke="#000" stroke-opacity="null" stroke-width="0"/>
<text class="metric guage-title" x="100" y="45" font-size="26" stroke="#000" stroke-opacity="null" stroke-width="0" xml:space="preserve">0-49</text>
<text class="metric guage-title" x="280" y="45" font-size="26" stroke="#000" stroke-opacity="null" stroke-width="0" xml:space="preserve">50-89</text>
<text class="metric guage-title" x="470" y="45" font-size="26" stroke="#000" stroke-opacity="null" stroke-width="0" xml:space="preserve">90-100</text>
</svg>
</svg>
