<svg version="1.2" id="trustedsite" xmlns="http://www.w3.org/2000/svg" viewBox="12 26 124 54">
<g id="trustmark_x2F_engagement_x2F_certified"><g id="mixin_x2F_trustmark_x2F_background">
<path id="background" d="M16.7 28.6h115c1.1 0 2 .9 2 2v45c0 1.1-.9 2-2 2h-115c-1.1 0-2-.9-2-2v-45c0-1.1.9-2 2-2z" style="fill-rule:evenodd;clip-rule:evenodd;fill:#fff;stroke:#000;stroke-opacity:.1"/></g>
<g id="logo_x2F_trustedsite" transform="translate(7 8)"><g id="logo_x2F_ts-full-color"><g id="Logo">
<path id="_xAE_" class="st1" d="M119 34.2v.7h-.4v-1.7c.2 0 .4-.1.7-.1s.5.1.6.1c.1.1.2.2.2.4s-.1.3-.4.4c.2.1.3.2.3.4.1.3.1.4.1.4h-.4c-.1-.1-.1-.2-.1-.4s-.1-.3-.4-.3h-.2zm0-.7v.5h.2c.2 0 .4-.1.4-.2 0-.2-.1-.3-.4-.3zm.3-1.2c1 0 1.8.7 1.8 1.7s-.8 1.7-1.8 1.7-1.8-.7-1.8-1.7c0-.9.8-1.7 1.8-1.7m0 .4c-.8 0-1.3.6-1.3 1.3s.6 1.3 1.3 1.3c.8 0 1.3-.6 1.3-1.3s-.5-1.3-1.3-1.3"/>
<path id="Fill-19" class="st1" d="M115.1 37.4c0-.6-.3-1.7-1.5-1.7-1.1 0-1.5 1-1.6 1.7zm-3.1 1.8c.1 1.1 1.1 1.6 2.4 1.6.9 0 1.6-.1 2.3-.3l.3 1.7c-.9.3-1.9.5-3 .5-2.8 0-4.5-1.6-4.5-4.2 0-2.1 1.3-4.4 4.2-4.4 2.7 0 3.7 2.1 3.7 4.1 0 .4-.1.8-.1 1z"/>
<path id="Fill-18" class="st1" d="M107.3 31.9v2.4h1.9v1.9h-1.9v3c0 1 .2 1.4 1 1.4.3 0 .6 0 .8-.1v1.9c-.3.1-1 .2-1.7.2-.8 0-1.5-.3-1.9-.7-.5-.5-.7-1.3-.7-2.4v-3.4h-1.1v-1.9h1.1v-1.8z"/>
<path id="Fill-16" class="st1" d="M100 42.5h2.6v-8.2H100zm2.7-10.5c0 .7-.5 1.3-1.4 1.3-.8 0-1.4-.6-1.3-1.3 0-.7.5-1.3 1.4-1.3.7 0 1.2.5 1.3 1.3"/>
<path id="Fill-14" class="st1" d="M91.4 39.8c.7.4 1.8.7 2.9.7 1.2 0 1.8-.5 1.8-1.2s-.5-1.1-1.9-1.6c-2-.6-3.2-1.7-3.2-3.3 0-1.9 1.6-3.4 4.3-3.4 1.3 0 2.3.3 2.9.6l-.6 2.1c-.5-.2-1.3-.5-2.4-.5s-1.7.5-1.7 1.1c0 .7.6 1 2.1 1.6 2 .7 3 1.8 3 3.4 0 1.9-1.5 3.5-4.6 3.5-1.3 0-2.6-.3-3.3-.7z"/>
<path id="Fill-12" class="st2" d="M86.6 37.7v-.5c-.2-.7-.7-1.3-1.5-1.3-1.2 0-1.8 1-1.8 2.3 0 1.4.7 2.3 1.8 2.3.8 0 1.3-.5 1.5-1.2.1-.2.1-.4.1-.6v-1zm2.6-7.2V40c0 .9 0 1.9.1 2.5H87l-.1-1.2c-.5.9-1.5 1.4-2.6 1.4-2 0-3.6-1.7-3.6-4.2 0-2.8 1.7-4.4 3.7-4.4 1 0 1.8.4 2.2.9v-4.5z"/>
<path id="Fill-10" class="st2" d="M77.6 37.4c0-.6-.3-1.7-1.5-1.7-1.1 0-1.5 1-1.6 1.7zm-3 1.8c.1 1.1 1.1 1.6 2.4 1.6.9 0 1.6-.1 2.3-.3l.3 1.7c-.9.3-1.9.5-3 .5-2.8 0-4.5-1.6-4.5-4.2 0-2.1 1.3-4.4 4.2-4.4 2.7 0 3.7 2.1 3.7 4.1 0 .4-.1.8-.1 1z"/>
<path id="Fill-8" class="st2" d="M69.9 31.9v2.4h1.9v1.9h-1.9v3c0 1 .2 1.4 1 1.4.3 0 .6 0 .8-.1v1.9c-.3.1-1 .2-1.7.2-.8 0-1.5-.3-1.9-.7-.5-.5-.7-1.3-.7-2.4v-3.4h-1.1v-1.9h1.1v-1.8z"/>
<path id="Fill-6" class="st2" d="M59.8 40.2c.5.3 1.5.6 2.2.6.8 0 1.1-.3 1.1-.7s-.3-.6-1.2-.9c-1.7-.6-2.4-1.5-2.4-2.5 0-1.5 1.3-2.7 3.4-2.7 1 0 1.8.2 2.4.5l-.5 1.8c-.4-.2-1.1-.5-1.8-.5-.6 0-1 .3-1 .7s.3.6 1.3.9c1.6.5 2.3 1.3 2.3 2.5 0 1.5-1.2 2.7-3.6 2.7-1.1 0-2.1-.2-2.7-.6z"/>
<path id="Fill-4" class="st2" d="M58.4 39.8c0 1.1 0 2 .1 2.6h-2.3l-.1-1.2H56c-.3.5-1.1 1.3-2.6 1.3-1.7 0-2.9-1-2.9-3.6v-4.8h2.6v4.4c0 1.2.4 1.9 1.3 1.9.7 0 1.1-.5 1.3-.9.1-.2.1-.4.1-.6V34h2.6z"/>
<path id="Fill-2" class="st2" d="M44.3 37c0-1.2 0-2-.1-2.7h2.2l.1 1.5h.1c.4-1.2 1.4-1.7 2.3-1.7h.5v2.4c-.2 0-.4-.1-.7-.1-1 0-1.6.5-1.8 1.3 0 .2-.1.4-.1.6v4.2h-2.6V37z"/>
<path id="Fill-1" class="st2" d="M38.6 33.3h-3.1v-2.2h8.9v2.2h-3.2v9.2h-2.6z"/>
<path id="Fill-20" class="st1" d="M27.1 45.2H14.2V32.6c0-2.5 2.1-4.5 4.6-4.5h12.9v12.6c.1 2.5-2 4.5-4.6 4.5"/>
<path id="Fill-21" d="M28.2 31.6c-.1-.1-.4-.1-.5 0L21.2 38c-.1.1-.4.1-.5 0l-2.4-2.3c-.1-.1-.4-.1-.5 0l-1.6 1.5c-.1.1-.1.4 0 .5l4.5 4.4c.1.1.4.1.5 0l8.6-8.5c.1-.1.1-.4 0-.5z" style="fill-rule:evenodd;clip-rule:evenodd;fill:#fefefe"/></g></g></g>
<path id="Rectangle" d="M15.2 60.1h118v16c0 .6-.4 1-1 1h-116c-.6 0-1-.4-1-1z" style="fill:#f2f3f3"/>
<path id="CertifiedSecure" d="M25 65.9c-.7 0-1.2.2-1.6.7s-.6 1.1-.6 2 .2 1.5.6 2c.4.4.9.7 1.6.7.3 0 .6 0 .9-.1s.6-.1.9-.2v1c-.6.2-1.2.3-1.9.3q-1.5 0-2.4-.9c-.6-.6-.8-1.5-.8-2.7 0-.7.1-1.4.4-1.9.3-.6.7-1 1.2-1.3s1.1-.4 1.8-.4 1.4.2 2 .5l-.4 1c-.2-.1-.5-.2-.8-.3-.4-.4-.6-.4-.9-.4m8.5 6.2h-4V65h4v1h-2.9v1.9h2.7v1h-2.7v2.2h2.9zm3.8-3.8h.8q.75 0 1.2-.3c.2-.2.4-.5.4-.9s-.1-.7-.4-.9-.7-.2-1.2-.2h-.8zm0 1v2.9h-1.2V65h2c.9 0 1.6.2 2 .5s.7.9.7 1.6c0 .9-.5 1.5-1.4 1.9l2 3.2h-1.3l-1.7-2.9zm8.9 2.8H45V66h-2.1v-1h5.4v1h-2.1zm4.4 0V65h1.2v7.1zm5.3 0h-1.2V65h4v1h-2.9v2.2h2.7v1h-2.7v2.9zm5.4 0V65h1.2v7.1zm8.2 0h-4V65h4v1h-2.9v1.9h2.7v1h-2.7v2.2h2.9zm8.6-3.6c0 1.2-.3 2.1-1 2.7s-1.6.9-2.8.9h-2V65h2.2q1.65 0 2.7.9c.5.6.9 1.5.9 2.6m-1.3 0c0-1.7-.8-2.6-2.4-2.6h-1v5.2h.8c1.8.1 2.6-.8 2.6-2.6m11.8 1.7c0 .6-.2 1.1-.7 1.5s-1.1.5-1.9.5-1.5-.1-2-.4v-1.1c.3.2.7.3 1 .4.4.1.7.1 1 .1.5 0 .8-.1 1-.3s.3-.4.3-.7-.1-.5-.3-.7-.6-.4-1.2-.7c-.7-.3-1.1-.6-1.4-.9s-.4-.7-.4-1.2c0-.6.2-1.1.6-1.4s1-.5 1.7-.5 1.4.1 2 .4l-.4 1c-.6-.3-1.2-.4-1.7-.4-.4 0-.7.1-.9.2-.2.2-.3.4-.3.7 0 .2 0 .3.1.5.1.1.2.3.4.4s.5.3 1 .5q.75.3 1.2.6c.2.2.4.4.5.6.4.3.4.6.4.9m6.6 1.9h-4V65h4v1h-2.9v1.9H95v1h-2.7v2.2h2.9zm5.8-6.2c-.7 0-1.2.2-1.6.7s-.6 1.1-.6 2 .2 1.5.6 2c.4.4.9.7 1.6.7.3 0 .6 0 .9-.1s.6-.1.9-.2v1c-.6.2-1.2.3-1.9.3q-1.5 0-2.4-.9c-.9-.9-.8-1.5-.8-2.7 0-.7.1-1.4.4-1.9.3-.6.7-1 1.2-1.3s1.1-.4 1.8-.4 1.4.2 2 .5l-.4 1c-.2-.1-.5-.2-.8-.3-.3-.4-.6-.4-.9-.4m10.1-.9v4.6c0 .5-.1 1-.3 1.4s-.6.7-1 .9-.9.3-1.5.3c-.9 0-1.6-.2-2.1-.7s-.7-1.1-.7-1.9V65h1.2v4.5c0 .6.1 1 .4 1.3s.7.4 1.3.4c1.1 0 1.7-.6 1.7-1.7V65zm4.1 3.3h.8q.75 0 1.2-.3c.2-.2.4-.5.4-.9s-.1-.7-.4-.9q-.45-.3-1.2-.3h-.8zm0 1v2.9H114V65h2c.9 0 1.6.2 2 .5s.7.9.7 1.6c0 .9-.5 1.5-1.4 1.9l2 3.2H118l-1.7-2.9zm10.4 2.8h-4V65h4v1h-2.9v1.9h2.7v1h-2.7v2.2h2.9z" style="opacity:.6;fill:#323835"/></g>
<style>.st1,.st2{fill-rule:evenodd;clip-rule:evenodd;fill:#80c600}.st2{fill:#323835}</style></svg>
