<?xml version="1.0" encoding="utf-8"?>
<!-- Generator: Adobe Illustrator 25.4.1, SVG Export Plug-In . SVG Version: 6.00 Build 0)  -->
<svg version="1.0" id="katman_1" xmlns="http://www.w3.org/2000/svg" xmlns:xlink="http://www.w3.org/1999/xlink" x="0px" y="0px"
	 viewBox="0 0 148.4 106.3" style="enable-background:new 0 0 148.4 106.3;" xml:space="preserve">
<style type="text/css">
	.st0{fill-rule:evenodd;clip-rule:evenodd;fill:#FFFFFF;stroke:#000000;stroke-opacity:0.1;}
	.st1{fill-rule:evenodd;clip-rule:evenodd;fill:#80C600;}
	.st2{fill-rule:evenodd;clip-rule:evenodd;fill:#323835;}
	.st3{fill-rule:evenodd;clip-rule:evenodd;fill:#FEFEFE;}
	.st4{fill:#F2F3F3;}
	.st5{opacity:0.6;fill:#323835;enable-background:new    ;}
</style>
<g id="trustmark_x2F_engagement_x2F_certified">
	<g id="mixin_x2F_trustmark_x2F_background">
		<path id="background" class="st0" d="M16.7,28.6h115c1.1,0,2,0.9,2,2v45c0,1.1-0.9,2-2,2h-115c-1.1,0-2-0.9-2-2v-45
			C14.7,29.5,15.6,28.6,16.7,28.6z"/>
	</g>
	<g id="logo_x2F_trustedsite" transform="translate(7.000000, 8.000000)">
		<g id="logo_x2F_ts-full-color">
			<g id="Logo">
				<path id="_xAE_" class="st1" d="M119,34.2v0.7h-0.4v-1.7c0.2,0,0.4-0.1,0.7-0.1c0.3,0,0.5,0.1,0.6,0.1c0.1,0.1,0.2,0.2,0.2,0.4
					c0,0.2-0.1,0.3-0.4,0.4v0c0.2,0.1,0.3,0.2,0.3,0.4c0.1,0.3,0.1,0.4,0.1,0.4h-0.4c-0.1-0.1-0.1-0.2-0.1-0.4
					c0-0.2-0.1-0.3-0.4-0.3H119z M119,33.5V34h0.2c0.2,0,0.4-0.1,0.4-0.2c0-0.2-0.1-0.3-0.4-0.3C119.2,33.5,119.1,33.5,119,33.5z
					 M119.3,32.3c1,0,1.8,0.7,1.8,1.7c0,1-0.8,1.7-1.8,1.7c-1,0-1.8-0.7-1.8-1.7C117.5,33.1,118.3,32.3,119.3,32.3z M119.3,32.7
					c-0.8,0-1.3,0.6-1.3,1.3c0,0.7,0.6,1.3,1.3,1.3c0.8,0,1.3-0.6,1.3-1.3C120.6,33.3,120.1,32.7,119.3,32.7z"/>
				<path id="Fill-19" class="st1" d="M115.1,37.4c0-0.6-0.3-1.7-1.5-1.7c-1.1,0-1.5,1-1.6,1.7H115.1z M112,39.2
					c0.1,1.1,1.1,1.6,2.4,1.6c0.9,0,1.6-0.1,2.3-0.3l0.3,1.7c-0.9,0.3-1.9,0.5-3,0.5c-2.8,0-4.5-1.6-4.5-4.2c0-2.1,1.3-4.4,4.2-4.4
					c2.7,0,3.7,2.1,3.7,4.1c0,0.4-0.1,0.8-0.1,1H112z"/>
				<path id="Fill-18" class="st1" d="M107.3,31.9v2.4h1.9v1.9h-1.9v3c0,1,0.2,1.4,1,1.4c0.3,0,0.6,0,0.8-0.1l0,1.9
					c-0.3,0.1-1,0.2-1.7,0.2c-0.8,0-1.5-0.3-1.9-0.7c-0.5-0.5-0.7-1.3-0.7-2.4v-3.4h-1.1v-1.9h1.1v-1.8L107.3,31.9z"/>
				<path id="Fill-16" class="st1" d="M100,42.5h2.6v-8.2H100V42.5z M102.7,32c0,0.7-0.5,1.3-1.4,1.3c-0.8,0-1.4-0.6-1.3-1.3
					c0-0.7,0.5-1.3,1.4-1.3C102.1,30.7,102.6,31.2,102.7,32L102.7,32z"/>
				<path id="Fill-14" class="st1" d="M91.4,39.8c0.7,0.4,1.8,0.7,2.9,0.7c1.2,0,1.8-0.5,1.8-1.2c0-0.7-0.5-1.1-1.9-1.6
					C92.2,37.1,91,36,91,34.4c0-1.9,1.6-3.4,4.3-3.4c1.3,0,2.3,0.3,2.9,0.6l-0.6,2.1c-0.5-0.2-1.3-0.5-2.4-0.5
					c-1.1,0-1.7,0.5-1.7,1.1c0,0.7,0.6,1,2.1,1.6c2,0.7,3,1.8,3,3.4c0,1.9-1.5,3.5-4.6,3.5c-1.3,0-2.6-0.3-3.3-0.7L91.4,39.8z"/>
				<path id="Fill-12" class="st2" d="M86.6,37.7c0-0.1,0-0.3,0-0.5c-0.2-0.7-0.7-1.3-1.5-1.3c-1.2,0-1.8,1-1.8,2.3
					c0,1.4,0.7,2.3,1.8,2.3c0.8,0,1.3-0.5,1.5-1.2c0.1-0.2,0.1-0.4,0.1-0.6V37.7z M89.2,30.5V40c0,0.9,0,1.9,0.1,2.5H87l-0.1-1.2h0
					c-0.5,0.9-1.5,1.4-2.6,1.4c-2,0-3.6-1.7-3.6-4.2c0-2.8,1.7-4.4,3.7-4.4c1,0,1.8,0.4,2.2,0.9h0v-4.5H89.2z"/>
				<path id="Fill-10" class="st2" d="M77.6,37.4c0-0.6-0.3-1.7-1.5-1.7c-1.1,0-1.5,1-1.6,1.7H77.6z M74.6,39.2
					c0.1,1.1,1.1,1.6,2.4,1.6c0.9,0,1.6-0.1,2.3-0.3l0.3,1.7c-0.9,0.3-1.9,0.5-3,0.5c-2.8,0-4.5-1.6-4.5-4.2c0-2.1,1.3-4.4,4.2-4.4
					c2.7,0,3.7,2.1,3.7,4.1c0,0.4-0.1,0.8-0.1,1H74.6z"/>
				<path id="Fill-8" class="st2" d="M69.9,31.9v2.4h1.9v1.9h-1.9v3c0,1,0.2,1.4,1,1.4c0.3,0,0.6,0,0.8-0.1l0,1.9
					c-0.3,0.1-1,0.2-1.7,0.2c-0.8,0-1.5-0.3-1.9-0.7c-0.5-0.5-0.7-1.3-0.7-2.4v-3.4h-1.1v-1.9h1.1v-1.8L69.9,31.9z"/>
				<path id="Fill-6" class="st2" d="M59.8,40.2c0.5,0.3,1.5,0.6,2.2,0.6c0.8,0,1.1-0.3,1.1-0.7c0-0.4-0.3-0.6-1.2-0.9
					c-1.7-0.6-2.4-1.5-2.4-2.5c0-1.5,1.3-2.7,3.4-2.7c1,0,1.8,0.2,2.4,0.5l-0.5,1.8c-0.4-0.2-1.1-0.5-1.8-0.5c-0.6,0-1,0.3-1,0.7
					c0,0.4,0.3,0.6,1.3,0.9c1.6,0.5,2.3,1.3,2.3,2.5c0,1.5-1.2,2.7-3.6,2.7c-1.1,0-2.1-0.2-2.7-0.6L59.8,40.2z"/>
				<path id="Fill-4" class="st2" d="M58.4,39.8c0,1.1,0,2,0.1,2.6h-2.3l-0.1-1.2H56c-0.3,0.5-1.1,1.3-2.6,1.3c-1.7,0-2.9-1-2.9-3.6
					v-4.8h2.6v4.4c0,1.2,0.4,1.9,1.3,1.9c0.7,0,1.1-0.5,1.3-0.9c0.1-0.2,0.1-0.4,0.1-0.6v-4.9h2.6V39.8z"/>
				<path id="Fill-2" class="st2" d="M44.3,37c0-1.2,0-2-0.1-2.7h2.2l0.1,1.5h0.1c0.4-1.2,1.4-1.7,2.3-1.7c0.2,0,0.4,0,0.5,0v2.4
					c-0.2,0-0.4-0.1-0.7-0.1c-1,0-1.6,0.5-1.8,1.3c0,0.2-0.1,0.4-0.1,0.6v4.2h-2.6V37z"/>
				<polygon id="Fill-1" class="st2" points="38.6,33.3 35.5,33.3 35.5,31.1 44.4,31.1 44.4,33.3 41.2,33.3 41.2,42.5 38.6,42.5 
									"/>
				<path id="Fill-20" class="st1" d="M27.1,45.2H14.2V32.6c0-2.5,2.1-4.5,4.6-4.5h12.9v12.6C31.8,43.2,29.7,45.2,27.1,45.2"/>
				<path id="Fill-21" class="st3" d="M28.2,31.6c-0.1-0.1-0.4-0.1-0.5,0l-6.5,6.4c-0.1,0.1-0.4,0.1-0.5,0l-2.4-2.3
					c-0.1-0.1-0.4-0.1-0.5,0l-1.6,1.5c-0.1,0.1-0.1,0.4,0,0.5l4.5,4.4c0.1,0.1,0.4,0.1,0.5,0l8.6-8.5c0.1-0.1,0.1-0.4,0-0.5
					L28.2,31.6z"/>
			</g>
		</g>
	</g>
	<path id="Rectangle" class="st4" d="M15.2,60.1h118v16c0,0.6-0.4,1-1,1h-116c-0.6,0-1-0.4-1-1V60.1z"/>
	<path id="CERTIFIEDSECURE" class="st5" d="M25,65.9c-0.7,0-1.2,0.2-1.6,0.7c-0.4,0.5-0.6,1.1-0.6,2c0,0.9,0.2,1.5,0.6,2
		c0.4,0.4,0.9,0.7,1.6,0.7c0.3,0,0.6,0,0.9-0.1c0.3-0.1,0.6-0.1,0.9-0.2v1c-0.6,0.2-1.2,0.3-1.9,0.3c-1,0-1.8-0.3-2.4-0.9
		c-0.6-0.6-0.8-1.5-0.8-2.7c0-0.7,0.1-1.4,0.4-1.9c0.3-0.6,0.7-1,1.2-1.3c0.5-0.3,1.1-0.4,1.8-0.4c0.7,0,1.4,0.2,2,0.5l-0.4,1
		c-0.2-0.1-0.5-0.2-0.8-0.3C25.5,65.9,25.3,65.9,25,65.9z M33.5,72.1h-4V65h4v1h-2.9v1.9h2.7v1h-2.7v2.2h2.9V72.1z M37.3,68.3h0.8
		c0.5,0,0.9-0.1,1.2-0.3c0.2-0.2,0.4-0.5,0.4-0.9c0-0.4-0.1-0.7-0.4-0.9S38.6,66,38.1,66h-0.8V68.3z M37.3,69.3v2.9h-1.2V65h2
		c0.9,0,1.6,0.2,2,0.5s0.7,0.9,0.7,1.6c0,0.9-0.5,1.5-1.4,1.9l2,3.2h-1.3l-1.7-2.9H37.3z M46.2,72.1H45V66h-2.1v-1h5.4v1h-2.1V72.1z
		 M50.6,72.1V65h1.2v7.1H50.6z M55.9,72.1h-1.2V65h4v1h-2.9v2.2h2.7v1h-2.7V72.1z M61.3,72.1V65h1.2v7.1H61.3z M69.5,72.1h-4V65h4v1
		h-2.9v1.9h2.7v1h-2.7v2.2h2.9V72.1z M78.1,68.5c0,1.2-0.3,2.1-1,2.7c-0.7,0.6-1.6,0.9-2.8,0.9h-2V65h2.2c1.1,0,2,0.3,2.7,0.9
		C77.7,66.5,78.1,67.4,78.1,68.5z M76.8,68.5c0-1.7-0.8-2.6-2.4-2.6h-1v5.2h0.8C76,71.2,76.8,70.3,76.8,68.5z M88.6,70.2
		c0,0.6-0.2,1.1-0.7,1.5c-0.5,0.4-1.1,0.5-1.9,0.5c-0.8,0-1.5-0.1-2-0.4v-1.1c0.3,0.2,0.7,0.3,1,0.4c0.4,0.1,0.7,0.1,1,0.1
		c0.5,0,0.8-0.1,1-0.3c0.2-0.2,0.3-0.4,0.3-0.7c0-0.3-0.1-0.5-0.3-0.7c-0.2-0.2-0.6-0.4-1.2-0.7c-0.7-0.3-1.1-0.6-1.4-0.9
		c-0.3-0.3-0.4-0.7-0.4-1.2c0-0.6,0.2-1.1,0.6-1.4c0.4-0.3,1-0.5,1.7-0.5c0.7,0,1.4,0.1,2,0.4l-0.4,1c-0.6-0.3-1.2-0.4-1.7-0.4
		c-0.4,0-0.7,0.1-0.9,0.2c-0.2,0.2-0.3,0.4-0.3,0.7c0,0.2,0,0.3,0.1,0.5c0.1,0.1,0.2,0.3,0.4,0.4c0.2,0.1,0.5,0.3,1,0.5
		c0.5,0.2,0.9,0.4,1.2,0.6c0.2,0.2,0.4,0.4,0.5,0.6C88.6,69.6,88.6,69.9,88.6,70.2z M95.2,72.1h-4V65h4v1h-2.9v1.9h2.7v1h-2.7v2.2
		h2.9V72.1z M101,65.9c-0.7,0-1.2,0.2-1.6,0.7c-0.4,0.5-0.6,1.1-0.6,2c0,0.9,0.2,1.5,0.6,2c0.4,0.4,0.9,0.7,1.6,0.7
		c0.3,0,0.6,0,0.9-0.1c0.3-0.1,0.6-0.1,0.9-0.2v1c-0.6,0.2-1.2,0.3-1.9,0.3c-1,0-1.8-0.3-2.4-0.9s-0.8-1.5-0.8-2.7
		c0-0.7,0.1-1.4,0.4-1.9c0.3-0.6,0.7-1,1.2-1.3s1.1-0.4,1.8-0.4c0.7,0,1.4,0.2,2,0.5l-0.4,1c-0.2-0.1-0.5-0.2-0.8-0.3
		C101.6,65.9,101.3,65.9,101,65.9z M111.1,65v4.6c0,0.5-0.1,1-0.3,1.4c-0.2,0.4-0.6,0.7-1,0.9s-0.9,0.3-1.5,0.3
		c-0.9,0-1.6-0.2-2.1-0.7c-0.5-0.5-0.7-1.1-0.7-1.9V65h1.2v4.5c0,0.6,0.1,1,0.4,1.3c0.3,0.3,0.7,0.4,1.3,0.4c1.1,0,1.7-0.6,1.7-1.7
		V65H111.1z M115.2,68.3h0.8c0.5,0,0.9-0.1,1.2-0.3c0.2-0.2,0.4-0.5,0.4-0.9c0-0.4-0.1-0.7-0.4-0.9c-0.3-0.2-0.7-0.3-1.2-0.3h-0.8
		V68.3z M115.2,69.3v2.9H114V65h2c0.9,0,1.6,0.2,2,0.5s0.7,0.9,0.7,1.6c0,0.9-0.5,1.5-1.4,1.9l2,3.2h-1.3l-1.7-2.9H115.2z
		 M125.6,72.1h-4V65h4v1h-2.9v1.9h2.7v1h-2.7v2.2h2.9V72.1z"/>
</g>
</svg>
