<?xml version="1.0" ?><svg width="6.3500002px" height="6.3500002px" viewBox="0 0 6.3500002 6.3500002" id="svg1976" version="1.1" xmlns="http://www.w3.org/2000/svg" xmlns:cc="http://creativecommons.org/ns#" xmlns:dc="http://purl.org/dc/elements/1.1/" xmlns:inkscape="http://www.inkscape.org/namespaces/inkscape" xmlns:rdf="http://www.w3.org/1999/02/22-rdf-syntax-ns#" xmlns:sodipodi="http://sodipodi.sourceforge.net/DTD/sodipodi-0.dtd" xmlns:svg="http://www.w3.org/2000/svg"><defs id="defs1970"/><g id="layer1" style="display:inline"><path d="m 1.058228,2e-7 c -0.5817394,0 -1.0588493,0.4771203 -1.0588493,1.0588504 v 4.2323 c 0,0.5817394 0.4771099,1.0588493 1.0588493,1.0588493 h 3.1755186 c 0.5817288,0 1.0588493,-0.4771099 1.0588493,-1.0588493 V 5.0141636 L 4.8879686,5.4187909 c -0.064492,0.063309 -0.151474,0.098436 -0.241845,0.097668 H 3.7702072 C 3.5826573,5.5161946 3.4305324,5.3644957 3.4296593,5.1769458 V 4.3010294 c 1.932e-4,-0.09089 0.036653,-0.1779455 0.1012878,-0.241845 L 4.9411948,2.6468674 H 3.7495379 c -0.67945,0 -1.2361016,-0.5571572 -1.2361016,-1.2366171 V 2e-7 Z m 1.984375,0.00103 v 1.4092164 c 0,0.39545 0.311494,0.7069336 0.7069349,0.7069336 H 5.2936304 C 5.277729,1.2959858 5.0191093,0.7287591 4.5758449,0.4004908 4.1519242,0.0865494 3.6127695,0.0041555 3.042603,0.0010321 Z M 1.058228,1.1249946 H 1.8530125 A 0.2645835,0.2645835 0 0 1 2.1165613,1.3890609 0.2645835,0.2645835 0 0 1 1.8530125,1.654678 H 1.058228 A 0.2645835,0.2645835 0 0 1 0.7946791,1.3890609 0.2645835,0.2645835 0 0 1 1.058228,1.1249946 Z m 0,0.9921875 H 1.8530125 A 0.2645835,0.2645835 0 0 1 2.1165613,2.3812485 0.2645835,0.2645835 0 0 1 1.8530125,2.6468655 H 1.058228 A 0.2645835,0.2645835 0 0 1 0.7946791,2.3812485 0.2645835,0.2645835 0 0 1 1.058228,2.1171821 Z m 0,1.054716 H 2.9118618 A 0.264584,0.264584 0 0 1 3.1754133,3.4375141 0.264584,0.264584 0 0 1 2.9118618,3.7015815 H 1.058228 A 0.264584,0.264584 0 0 1 0.7946791,3.4375167 0.264584,0.264584 0 0 1 1.058228,3.1718999 Z m 0,1.0588501 H 2.9118618 A 0.264584,0.264584 0 0 1 3.1754133,4.4963634 0.264584,0.264584 0 0 1 2.9118618,4.7599149 H 1.058228 A 0.264584,0.264584 0 0 1 0.7946791,4.4963634 0.264584,0.264584 0 0 1 1.058228,4.2307482 Z" id="path832" style="color:#000000;font-style:normal;font-variant:normal;font-weight:normal;font-stretch:normal;font-size:medium;line-height:normal;font-family:sans-serif;font-variant-ligatures:normal;font-variant-position:normal;font-variant-caps:normal;font-variant-numeric:normal;font-variant-alternates:normal;font-variant-east-asian:normal;font-feature-settings:normal;font-variation-settings:normal;text-indent:0;text-align:start;text-decoration:none;text-decoration-line:none;text-decoration-style:solid;text-decoration-color:#000000;letter-spacing:normal;word-spacing:normal;text-transform:none;writing-mode:lr-tb;direction:ltr;text-orientation:mixed;dominant-baseline:auto;baseline-shift:baseline;text-anchor:start;white-space:normal;shape-padding:0;shape-margin:0;inline-size:0;clip-rule:nonzero;display:inline;overflow:visible;visibility:visible;isolation:auto;mix-blend-mode:normal;color-interpolation:sRGB;color-interpolation-filters:linearRGB;solid-color:#000000;solid-opacity:1;vector-effect:none;fill:#000000;fill-opacity:1;fill-rule:nonzero;stroke:none;stroke-width:0.529167;stroke-linecap:round;stroke-linejoin:round;stroke-miterlimit:4;stroke-dasharray:none;stroke-dashoffset:0;stroke-opacity:1;paint-order:stroke fill markers;color-rendering:auto;image-rendering:auto;shape-rendering:auto;text-rendering:auto;enable-background:accumulate;stop-color:#000000"/><path d="M 5.3980165,2.5977747 A 0.26460996,0.26460996 0 0 0 5.2181818,2.6742557 L 3.7361024,4.1584032 a 0.26460996,0.26460996 0 0 0 -0.07855,0.1875843 V 5.0255327 A 0.26460996,0.26460996 0 0 0 3.9216203,5.2890842 H 4.6011656 A 0.26460996,0.26460996 0 0 0 4.7887499,5.2131197 L 6.2728985,3.7284552 a 0.26460996,0.26460996 0 0 0 0,-0.3746553 L 5.5933535,2.673739 A 0.26460996,0.26460996 0 0 0 5.3980165,2.5977747 Z M 5.1851089,3.355869 5.5912865,3.7615281 5.2161155,4.1366994 4.8099377,3.7305216 Z" id="path840" style="color:#000000;font-style:normal;font-variant:normal;font-weight:normal;font-stretch:normal;font-size:medium;line-height:normal;font-family:sans-serif;font-variant-ligatures:normal;font-variant-position:normal;font-variant-caps:normal;font-variant-numeric:normal;font-variant-alternates:normal;font-variant-east-asian:normal;font-feature-settings:normal;font-variation-settings:normal;text-indent:0;text-align:start;text-decoration:none;text-decoration-line:none;text-decoration-style:solid;text-decoration-color:#000000;letter-spacing:normal;word-spacing:normal;text-transform:none;writing-mode:lr-tb;direction:ltr;text-orientation:mixed;dominant-baseline:auto;baseline-shift:baseline;text-anchor:start;white-space:normal;shape-padding:0;shape-margin:0;inline-size:0;clip-rule:nonzero;display:inline;overflow:visible;visibility:visible;isolation:auto;mix-blend-mode:normal;color-interpolation:sRGB;color-interpolation-filters:linearRGB;solid-color:#000000;solid-opacity:1;vector-effect:none;fill:#000000;fill-opacity:1;fill-rule:nonzero;stroke:none;stroke-width:0.529167;stroke-linecap:round;stroke-linejoin:round;stroke-miterlimit:4;stroke-dasharray:none;stroke-dashoffset:0;stroke-opacity:1;paint-order:stroke fill markers;color-rendering:auto;image-rendering:auto;shape-rendering:auto;text-rendering:auto;enable-background:accumulate;stop-color:#000000"/></g></svg>