<?xml version="1.0" ?><svg width="64px" height="64px" viewBox="0 0 64 64" xmlns="http://www.w3.org/2000/svg"><g id="a"/><g id="b"/><g id="c"/><g id="d"/><g id="e"/><g id="f"/><g id="g"/><g id="h"/><g id="i"/><g id="j"/><g id="k"/><g id="l"/><g id="m"/><g id="n"/><g id="o"/><g id="p"/><g id="q"/><g id="r"/><g id="s"/><g id="t"/><g id="u"/><g id="v"/><g id="w"/><g id="x"/><g id="y"/><g id="a`"/><g id="aa"/><g id="ab"><path d="M32,5c-.2,0-.4,.01-.59,.03h0c-.2,.02-.39,.05-.59,.1l-4.5,.98c-.73,.16-1.31,.7-1.53,1.42l-.87,2.92,8.1,2.66,8.06-2.66-.88-2.92c-.21-.71-.8-1.26-1.53-1.42l-4.5-.98c-.19-.04-.39-.07-.59-.1-.2-.02-.39-.03-.59-.03h0Z" fill="#9dacb9" id="ac"/><path d="M29.48,23.72l-7.02,10.66,1.14,19.32,7.37,5.02c.32,.19,.68,.29,1.03,.29s.71-.1,1.03-.29l7.37-5.02-.21-18.78-5.68-11.28-5.04,.09Z" fill="#758797" id="ad"/><path d="M23.6,53.69l5.88-29.97-2.64-5.68-5.6,1.86L6.11,45.82s-.16,.67-.09,1.02c.07,.35,.24,.67,.48,.9l8.17,7.46c.86,.78,2.08,1.02,3.17,.62l5.76-2.12h0Z" fill="#f0f4f6" id="ae"/><path d="M42.76,19.89l-5.3-.64-2.94,4.38,5.89,30.06,5.76,2.12c1.09,.4,2.31,.16,3.17-.62l8.17-7.46c.25-.22,.41-.55,.48-.9,.07-.35-.09-1.02-.09-1.02l-15.14-25.93Z" fill="#f0f4f6" id="af"/><path d="M23.38,10.45c-.67,0-1.43,.49-1.7,1.1-.87,1.93-1.75,3.89-2.36,5.24-.43,.95-.02,2.11,.9,2.59l1.01,.52c3.24,1.51,6.48,3.01,9.71,4.52,.5,.23,1.31,.24,1.82,0,3.33-1.51,6.66-3.02,9.98-4.52l1.01-.52c.93-.48,1.33-1.63,.9-2.59-.61-1.35-1.49-3.31-2.35-5.24-.27-.61-1.03-1.1-1.7-1.1H23.38Z" fill="#8598ab" id="ag"/><path d="M34.51,23.63l10.02-.7-1.61-3.13-8.41,3.82Z" fill="#e2eef2" id="ah"/><path d="M29.48,23.72l-10.02-.7,1.61-3.13,8.41,3.82Z" fill="#e2eef2" id="ai"/><path d="M5.14,45.59c-.07,.27-.21,.94-.1,1.45,.12,.57,.4,1.08,.79,1.44l8.17,7.46c1.14,1.04,2.74,1.35,4.19,.82l5.27-1.94,6.94,4.73s.03,.02,.04,.03c.47,.28,1,.44,1.55,.44s1.08-.15,1.59-.46l6.94-4.73,5.28,1.94c1.45,.53,3.05,.22,4.19-.82l8.17-7.46c.39-.36,.68-.87,.79-1.44,.1-.51-.04-1.19-.1-1.45-.02-.09-.06-.18-.11-.27l-14.6-25.02c1.54-.78,2.05-2.55,1.43-3.92-.61-1.35-1.49-3.31-2.35-5.24-.4-.9-1.41-1.6-2.4-1.68l-.66-2.21c-.32-1.06-1.19-1.87-2.27-2.11l-4.5-.98c-.23-.05-.46-.09-.69-.11-.47-.06-.94-.06-1.41,0-.23,.03-.46,.06-.69,.11l-4.5,.98c-1.08,.24-1.95,1.04-2.27,2.11l-.66,2.21c-.99,.09-2,.78-2.4,1.68-.86,1.93-1.75,3.89-2.35,5.24-.61,1.34-.14,3.11,1.43,3.92L5.24,45.32c-.05,.08-.08,.17-.11,.27Zm27.38,12.27c-.3,.18-.7,.19-1.01,.01l-6.8-4.63,5.51-28.07,1.23,.57c.26,.12,.57,.12,.83,0l1.5-.68,5.52,28.18-6.78,4.62Zm24.44-11.66c.04,.19,.06,.39,.06,.45-.03,.15-.1,.28-.18,.36l-8.17,7.46c-.58,.53-1.41,.69-2.15,.42l-5.23-1.93-5.63-28.74,6.7-3.04,14.6,25.02ZM26.53,7.09l4.51-.98c.16-.04,.32-.06,.49-.08,.31-.04,.63-.04,.96,0,.16,.02,.32,.04,.48,.08l4.5,.98c.37,.08,.67,.36,.78,.73l.49,1.63h-13.48l.49-1.63c.11-.37,.41-.64,.78-.73Zm-6.29,10.11c.61-1.35,1.49-3.31,2.36-5.24,.11-.25,.52-.51,.79-.51h17.23c.27,0,.68,.26,.79,.51,.87,1.93,1.75,3.89,2.35,5.24,.21,.46,0,1.05-.45,1.29-1.41,.72-.02,.07-11.45,5.25l-11.18-5.25c-.45-.23-.66-.82-.45-1.29ZM7.05,46.19l14.6-25.01,6.7,3.11-5.62,28.65-5.23,1.93c-.74,.27-1.57,.11-2.15-.42l-8.17-7.46c-.08-.07-.15-.21-.17-.34,0-.08,.02-.28,.05-.47Z"/></g><g id="aj"/><g id="ak"/><g id="al"/><g id="am"/><g id="an"/><g id="ao"/><g id="ap"/><g id="aq"/><g id="ar"/><g id="as"/><g id="at"/><g id="au"/><g id="av"/><g id="aw"/><g id="ax"/><g id="ay"/><g id="b`"/><g id="ba"/><g id="bb"/><g id="bc"/><g id="bd"/><g id="be"/></svg>