<?xml version="1.0" ?><svg width="64px" height="64px" viewBox="0 0 64 64" xmlns="http://www.w3.org/2000/svg"><g id="a"/><g id="b"/><g id="c"/><g id="d"/><g id="e"/><g id="f"/><g id="g"/><g id="h"/><g id="i"/><g id="j"/><g id="k"/><g id="l"/><g id="m"/><g id="n"/><g id="o"/><g id="p"/><g id="q"/><g id="r"/><g id="s"/><g id="t"/><g id="u"/><g id="v"/><g id="w"/><g id="x"/><g id="y"/><g id="a`"/><g id="aa"/><g id="ab"/><g id="ac"/><g id="ad"/><g id="ae"/><g id="af"/><g id="ag"/><g id="ah"/><g id="ai"><path d="M40.04,27.63l5.72-.27,3.62-6.31c-.12-.32-.26-.63-.42-.93l-6.87-12.67H21.9l-6.87,12.67c-.16,.3-.3,.61-.42,.93l3.49,6.05,5.85,.54h16.09Z" fill="#8598ab" id="aj"/><path d="M23.07,48.24l8.04,4.2c.56,.29,1.23,.29,1.79,0l8.04-4.2-.89-20.6-8.04-6.23-8.05,6.23-.89,20.6Z" fill="#d7e5eb" id="ak"/><path d="M40.93,48.24l2.47,10.34c.1,.42,.63,.56,.93,.25l9.99-10.66c.24-.26,.41-.58,.48-.93l-7.39-13.26-10.54-3.81c-.1,.27-.13,.58-.06,.87l4.11,17.19Z" fill="#e2eef2" id="al"/><path d="M36.86,30.32l15.18,20.29,2.29-2.44c.24-.26,.41-.58,.48-.93l-5.33-9.57c-5.16-3.37-10.8-6.88-12.62-7.35h0Z" fill="#d7e5eb" id="am"/><path d="M36.85,30.31l17.96,16.93c.05-.26,.05-.53,0-.79l-5.15-24.46c-.07-.32-.16-.64-.27-.94l-9.34,6.59-2.63,1.85c-.29,.21-.48,.5-.57,.82h0Z" fill="#f0f4f6" id="an"/><path d="M19.51,5.61h0l2.39,1.83-2.39-1.83Z" fill="#ffa6c5" id="ao"/><path d="M28.77,12.7l-1.97,3.42c-.29,.5-.16,1.13,.29,1.48l4.91,3.8,4.91-3.8c.45-.35,.58-.98,.29-1.48l-1.97-3.42h-6.46Z" fill="#fce87b" id="ap"/><path d="M19.72,5c-.33,0-.47,.41-.21,.61l11.7,8.96c.47,.36,1.12,.36,1.59,0l11.7-8.96c.26-.2,.11-.61-.21-.61H19.72Z" fill="#9dacb9" id="aq"/><path d="M23.08,48.21l-2.47,10.34c-.1,.42-.63,.56-.93,.25l-9.99-10.66c-.24-.26-.41-.58-.48-.93l7.39-13.26,10.54-3.81c.1,.27,.13,.58,.06,.87l-4.11,17.19Z" fill="#e2eef2" id="ar"/><path d="M27.15,30.3l-15.18,20.29-2.29-2.44c-.24-.26-.41-.58-.48-.93l5.33-9.57c5.16-3.37,10.8-6.88,12.62-7.35h0Z" fill="#d7e5eb" id="as"/><path d="M27.16,30.28L9.2,47.21c-.05-.26-.05-.53,0-.79l5.15-24.46c.07-.32,.16-.64,.27-.94l9.34,6.59,2.63,1.85c.29,.21,.48,.5,.57,.82h0Z" fill="#f0f4f6" id="at"/><path d="M13.36,21.78l-5.15,24.46c-.2,.94,.08,1.92,.73,2.62l9.99,10.66c.28,.3,.67,.47,1.08,.49h.05c.39,0,.77-.15,1.05-.42,.22-.21,.38-.47,.45-.77l2.17-9.09,6.9,3.61c.85,.44,1.86,.44,2.72,0l6.9-3.61,2.17,9.09c.2,.83,1.03,1.34,1.86,1.14,.29-.07,.56-.22,.77-.44l9.99-10.66c.66-.7,.93-1.68,.73-2.62l-5.15-24.46c-.16-.75-.42-1.47-.79-2.15l-6.46-11.92,1.71-1.31c.59-.45,.7-1.29,.25-1.88-.25-.33-.65-.52-1.06-.52H19.72c-.74,0-1.34,.6-1.34,1.34,0,.42,.2,.81,.53,1.07l1.71,1.31-6.46,11.92c-.37,.67-.63,1.4-.79,2.15ZM20.12,4.82h0Zm-4.9,17.87l10.62,7.49-15.21,14.34,4.6-21.82Zm4.6,34.83l-9.41-10.04h0l15.26-14.39-5.84,24.43Zm12.62-5.97c-.27,.14-.59,.14-.86,0l-7.35-3.84,3.93-16.43c.24-1-.15-2.02-.99-2.61l-1.52-1.07,6.36-4.93,6.36,4.93-1.52,1.07c-.84,.59-1.23,1.62-.99,2.61l3.93,16.43-7.35,3.84Zm-4.73-34.74c-.06-.05-.08-.13-.04-.2l1.4-2.43,1.52,1.17c.83,.63,1.99,.64,2.82,0l1.52-1.17,1.4,2.43c.04,.07,.02,.15-.04,.2l-4.29,3.32-4.29-3.32Zm16.48,40.71l-5.84-24.43,15.26,14.38h0l-9.41,10.05Zm9.2-13.01l-15.21-14.34,10.62-7.49,4.6,21.82Zm-5.25-23.81l-8.06,5.68-6.44-4.98,3.88-3.01c.85-.66,1.09-1.85,.55-2.78l-1.53-2.65,5.24-4.01c6.31,11.64,5.81,10.69,6.35,11.76Zm-5.79-14.71l-.85,.65h0l-9.3,7.12c-.12,.09-.28,.09-.39,0l-9.3-7.12h0l-.85-.65h20.69Zm-20.12,2.95l5.24,4.01-1.53,2.65c-.54,.93-.3,2.13,.55,2.78l3.88,3.01-6.44,4.98-8.06-5.68c.56-1.09,.06-.14,6.35-11.76Z"/></g><g id="au"/><g id="av"/><g id="aw"/><g id="ax"/><g id="ay"/><g id="b`"/><g id="ba"/><g id="bb"/><g id="bc"/><g id="bd"/><g id="be"/><g id="bf"/><g id="bg"/><g id="bh"/><g id="bi"/></svg>